<svg width="260" height="60" viewBox="0 0 260 60" fill="none" xmlns="http://www.w3.org/2000/svg">
<g filter="url(#filter0_d)">
<path d="M118.944 13.4L101.184 47H92.88L89.952 24.392L77.808 47H69.456L65.184 13.4H72.864L75.84 37.016L88.464 13.4H95.664L98.544 37.208L111.216 13.4H118.944ZM121.642 21.176H129.082L123.946 47H116.506L121.642 21.176ZM126.634 17.576C125.354 17.576 124.298 17.208 123.466 16.472C122.666 15.704 122.266 14.776 122.266 13.688C122.266 12.408 122.714 11.352 123.61 10.52C124.538 9.656 125.738 9.224 127.21 9.224C128.522 9.224 129.578 9.592 130.378 10.328C131.21 11.032 131.626 11.912 131.626 12.968C131.626 14.344 131.162 15.464 130.234 16.328C129.306 17.16 128.106 17.576 126.634 17.576ZM151.056 20.792C153.936 20.792 156.224 21.56 157.92 23.096C159.616 24.6 160.464 26.76 160.464 29.576C160.464 30.632 160.352 31.672 160.128 32.696L157.248 47H149.76L152.544 33.176C152.672 32.632 152.736 32.04 152.736 31.4C152.736 30.056 152.368 29.032 151.632 28.328C150.896 27.624 149.792 27.272 148.32 27.272C146.4 27.272 144.8 27.832 143.52 28.952C142.272 30.04 141.424 31.688 140.976 33.896L138.384 47H130.896L136.032 21.176H143.136L142.56 23.96C144.864 21.848 147.696 20.792 151.056 20.792ZM192.397 32.168C192.397 33.352 192.253 34.664 191.965 36.104H172.189C172.445 39.624 174.669 41.384 178.861 41.384C180.173 41.384 181.421 41.176 182.605 40.76C183.821 40.344 184.877 39.752 185.773 38.984L188.893 43.928C187.453 45.08 185.805 45.944 183.949 46.52C182.093 47.096 180.141 47.384 178.093 47.384C175.437 47.384 173.101 46.92 171.085 45.992C169.101 45.032 167.565 43.672 166.477 41.912C165.421 40.152 164.893 38.12 164.893 35.816C164.893 32.968 165.533 30.408 166.813 28.136C168.125 25.832 169.933 24.04 172.237 22.76C174.541 21.448 177.165 20.792 180.109 20.792C182.605 20.792 184.765 21.256 186.589 22.184C188.445 23.112 189.869 24.44 190.861 26.168C191.885 27.896 192.397 29.896 192.397 32.168ZM179.773 26.408C178.013 26.408 176.525 26.888 175.309 27.848C174.093 28.776 173.229 30.072 172.717 31.736H185.533C185.533 30.072 185.005 28.776 183.949 27.848C182.925 26.888 181.533 26.408 179.773 26.408ZM227.866 11.384L220.762 47H213.658L214.186 44.408C212.01 46.392 209.37 47.384 206.266 47.384C204.25 47.384 202.394 46.92 200.698 45.992C199.002 45.064 197.642 43.736 196.618 42.008C195.626 40.248 195.13 38.184 195.13 35.816C195.13 32.968 195.754 30.408 197.002 28.136C198.282 25.832 200.01 24.04 202.186 22.76C204.362 21.448 206.762 20.792 209.386 20.792C211.274 20.792 212.922 21.112 214.33 21.752C215.77 22.392 216.906 23.336 217.738 24.584L220.378 11.384H227.866ZM208.57 41.192C210.042 41.192 211.354 40.84 212.506 40.136C213.658 39.4 214.554 38.392 215.194 37.112C215.834 35.832 216.154 34.36 216.154 32.696C216.154 30.936 215.626 29.544 214.57 28.52C213.546 27.496 212.106 26.984 210.25 26.984C208.778 26.984 207.466 27.352 206.314 28.088C205.162 28.792 204.266 29.784 203.626 31.064C202.986 32.344 202.666 33.816 202.666 35.48C202.666 37.24 203.178 38.632 204.202 39.656C205.258 40.68 206.714 41.192 208.57 41.192ZM252.844 33.128H244.54L242.908 41.288H236.668L238.3 33.128H229.996L231.148 27.272H239.452L241.084 19.112H247.324L245.692 27.272H253.996L252.844 33.128Z" fill="#9B0000"/>
</g>
<path d="M14.156 20.7188C14.9998 28.2188 21.8435 34.6876 29.9998 34.6876C38.8123 34.6876 46.031 27.1876 46.031 19.0313V18.8438C36.8435 17.6251 25.3123 24.2813 14.156 20.7188Z" fill="#9B0000"/>
<path opacity="0.8" d="M50.625 19.125C50.625 8.4375 45.2812 1.875 45.2812 1.875H14.7188C14.7188 1.875 9.375 8.53125 9.375 19.125C9.375 29.25 18.0937 38.7188 28.9688 39.2812C28.875 45.1875 28.3125 51.2812 26.9062 53.4375C24.8438 56.4375 17.7188 54.9375 17.7188 58.125H42.2812C42.2812 54.9375 35.1562 56.4375 33.0938 53.4375C31.6875 51.2812 31.125 45.1875 31.0312 39.2812C41.9062 38.7188 50.625 29.3438 50.625 19.125ZM30 36.8438C20.8125 36.8438 13.2188 29.5312 12.2813 21.1875C12.1875 20.625 12.1875 19.9688 12.1875 19.4062C12.1875 10.125 16.7812 4.5 16.7812 4.5H43.2188C43.2188 4.5 47.7188 10.125 47.8125 19.2188V19.4062C47.8125 28.4063 39.8438 36.8438 30 36.8438Z" fill="#A1B8C7"/>
<defs>
<filter id="filter0_d" x="63.184" y="9.22388" width="196.812" height="46.16" filterUnits="userSpaceOnUse" color-interpolation-filters="sRGB">
<feFlood flood-opacity="0" result="BackgroundImageFix"/>
<feColorMatrix in="SourceAlpha" type="matrix" values="0 0 0 0 0 0 0 0 0 0 0 0 0 0 0 0 0 0 127 0"/>
<feOffset dx="2" dy="4"/>
<feGaussianBlur stdDeviation="2"/>
<feColorMatrix type="matrix" values="0 0 0 0 0 0 0 0 0 0 0 0 0 0 0 0 0 0 0.25 0"/>
<feBlend mode="normal" in2="BackgroundImageFix" result="effect1_dropShadow"/>
<feBlend mode="normal" in="SourceGraphic" in2="effect1_dropShadow" result="shape"/>
</filter>
</defs>
</svg>
