<svg width="140" height="40" viewBox="0 0 140 40" fill="none" xmlns="http://www.w3.org/2000/svg">
<g filter="url(#filter0_dd)">
<rect width="132" height="32" fill="#EC414B"/>
<path d="M30.97 17.89C30.89 17.9567 30.74 18.0467 30.52 18.16C30.3067 18.2733 30.0433 18.3733 29.73 18.46C29.4167 18.5467 29.07 18.5867 28.69 18.58C28.11 18.5667 27.59 18.4633 27.13 18.27C26.6767 18.07 26.29 17.8 25.97 17.46C25.6567 17.12 25.4167 16.73 25.25 16.29C25.0833 15.85 25 15.38 25 14.88C25 14.1333 25.15 13.4733 25.45 12.9C25.75 12.3267 26.1667 11.8767 26.7 11.55C27.24 11.2233 27.8667 11.06 28.58 11.06C29.0733 11.06 29.51 11.1267 29.89 11.26C30.27 11.3933 30.58 11.5367 30.82 11.69L30.25 13.06C30.0833 12.9333 29.86 12.8033 29.58 12.67C29.3067 12.53 28.99 12.46 28.63 12.46C28.2567 12.46 27.9067 12.5633 27.58 12.77C27.26 12.9767 27 13.2567 26.8 13.61C26.6067 13.9567 26.51 14.3533 26.51 14.8C26.51 15.2733 26.6 15.69 26.78 16.05C26.96 16.4033 27.2167 16.68 27.55 16.88C27.8833 17.08 28.2733 17.18 28.72 17.18C29.1133 17.18 29.45 17.1167 29.73 16.99C30.01 16.8633 30.2233 16.73 30.37 16.59L30.97 17.89ZM35.6527 11.14C36.5793 11.14 37.2893 11.3667 37.7827 11.82C38.2827 12.2667 38.5327 12.8667 38.5327 13.62C38.5327 14.04 38.4427 14.4533 38.2627 14.86C38.0893 15.2667 37.7927 15.59 37.3727 15.83L39.0827 18.5H37.3927L35.8427 16.16H34.8727V18.5H33.4227V11.14H35.6527ZM35.9027 14.76C36.196 14.76 36.4227 14.7 36.5827 14.58C36.7493 14.4533 36.866 14.3067 36.9327 14.14C36.9993 13.9667 37.0327 13.81 37.0327 13.67C37.0327 13.59 37.0193 13.49 36.9927 13.37C36.9727 13.2433 36.926 13.1167 36.8527 12.99C36.7793 12.8633 36.666 12.7567 36.5127 12.67C36.366 12.5833 36.166 12.54 35.9127 12.54H34.8727V14.76H35.9027ZM41.2781 11.14H42.7281V18.5H41.2781V11.14ZM44.7977 18.5L48.1177 10.85H48.1977L51.5177 18.5H49.8377L49.2677 17.06H46.8277L46.2277 18.5H44.7977ZM47.3377 15.84H48.7877L48.0777 14.05L47.3377 15.84ZM55.8206 11.14C56.7473 11.14 57.4573 11.3667 57.9506 11.82C58.4506 12.2667 58.7006 12.8667 58.7006 13.62C58.7006 14.04 58.6106 14.4533 58.4306 14.86C58.2573 15.2667 57.9606 15.59 57.5406 15.83L59.2506 18.5H57.5606L56.0106 16.16H55.0406V18.5H53.5906V11.14H55.8206ZM56.0706 14.76C56.364 14.76 56.5906 14.7 56.7506 14.58C56.9173 14.4533 57.034 14.3067 57.1006 14.14C57.1673 13.9667 57.2006 13.81 57.2006 13.67C57.2006 13.59 57.1873 13.49 57.1606 13.37C57.1406 13.2433 57.094 13.1167 57.0206 12.99C56.9473 12.8633 56.834 12.7567 56.6806 12.67C56.534 12.5833 56.334 12.54 56.0806 12.54H55.0406V14.76H56.0706ZM71.218 17.89C71.138 17.9567 70.988 18.0467 70.768 18.16C70.5547 18.2733 70.2914 18.3733 69.978 18.46C69.6647 18.5467 69.318 18.5867 68.938 18.58C68.358 18.5667 67.838 18.4633 67.378 18.27C66.9247 18.07 66.538 17.8 66.218 17.46C65.9047 17.12 65.6647 16.73 65.498 16.29C65.3314 15.85 65.248 15.38 65.248 14.88C65.248 14.1333 65.398 13.4733 65.698 12.9C65.998 12.3267 66.4147 11.8767 66.948 11.55C67.488 11.2233 68.1147 11.06 68.828 11.06C69.3214 11.06 69.758 11.1267 70.138 11.26C70.518 11.3933 70.828 11.5367 71.068 11.69L70.498 13.06C70.3314 12.9333 70.108 12.8033 69.828 12.67C69.5547 12.53 69.238 12.46 68.878 12.46C68.5047 12.46 68.1547 12.5633 67.828 12.77C67.508 12.9767 67.248 13.2567 67.048 13.61C66.8547 13.9567 66.758 14.3533 66.758 14.8C66.758 15.2733 66.848 15.69 67.028 16.05C67.208 16.4033 67.4647 16.68 67.798 16.88C68.1314 17.08 68.5214 17.18 68.968 17.18C69.3614 17.18 69.698 17.1167 69.978 16.99C70.258 16.8633 70.4714 16.73 70.618 16.59L71.218 17.89ZM73.2207 14.83C73.2207 14.3233 73.3174 13.8433 73.5107 13.39C73.704 12.9367 73.9707 12.5367 74.3107 12.19C74.6574 11.8367 75.0574 11.56 75.5107 11.36C75.964 11.16 76.4507 11.06 76.9707 11.06C77.484 11.06 77.9674 11.16 78.4207 11.36C78.874 11.56 79.274 11.8367 79.6207 12.19C79.974 12.5367 80.2474 12.9367 80.4407 13.39C80.6407 13.8433 80.7407 14.3233 80.7407 14.83C80.7407 15.35 80.6407 15.8367 80.4407 16.29C80.2474 16.7433 79.974 17.1433 79.6207 17.49C79.274 17.83 78.874 18.0967 78.4207 18.29C77.9674 18.4833 77.484 18.58 76.9707 18.58C76.4507 18.58 75.964 18.4833 75.5107 18.29C75.0574 18.0967 74.6574 17.83 74.3107 17.49C73.9707 17.1433 73.704 16.7433 73.5107 16.29C73.3174 15.8367 73.2207 15.35 73.2207 14.83ZM74.7207 14.83C74.7207 15.2633 74.8207 15.66 75.0207 16.02C75.2274 16.3733 75.504 16.6567 75.8507 16.87C76.1974 17.0767 76.5874 17.18 77.0207 17.18C77.4407 17.18 77.8174 17.0767 78.1507 16.87C78.4907 16.6567 78.7574 16.3733 78.9507 16.02C79.144 15.66 79.2407 15.2633 79.2407 14.83C79.2407 14.3833 79.1407 13.9833 78.9407 13.63C78.7407 13.27 78.4707 12.9867 78.1307 12.78C77.7907 12.5667 77.4074 12.46 76.9807 12.46C76.554 12.46 76.1707 12.5667 75.8307 12.78C75.4907 12.9867 75.2207 13.27 75.0207 13.63C74.8207 13.9833 74.7207 14.3833 74.7207 14.83ZM89.7763 18.8L84.6263 14.15L84.6563 18.5H83.1863V10.85H83.2463L88.3863 15.57L88.3563 11.14H89.8163V18.8H89.7763ZM92.2117 11.14H97.1717V12.54H95.3817V18.5H93.9317V12.54H92.2117V11.14ZM98.1454 18.5L101.465 10.85H101.545L104.865 18.5H103.185L102.615 17.06H100.175L99.5754 18.5H98.1454ZM100.685 15.84H102.135L101.425 14.05L100.685 15.84Z" fill="white"/>
</g>
<defs>
<filter id="filter0_dd" x="0" y="0" width="140" height="40" filterUnits="userSpaceOnUse" color-interpolation-filters="sRGB">
<feFlood flood-opacity="0" result="BackgroundImageFix"/>
<feColorMatrix in="SourceAlpha" type="matrix" values="0 0 0 0 0 0 0 0 0 0 0 0 0 0 0 0 0 0 127 0"/>
<feOffset dx="8" dy="8"/>
<feColorMatrix type="matrix" values="0 0 0 0 0.961818 0 0 0 0 0.680479 0 0 0 0 0.618182 0 0 0 1 0"/>
<feBlend mode="normal" in2="BackgroundImageFix" result="effect1_dropShadow"/>
<feColorMatrix in="SourceAlpha" type="matrix" values="0 0 0 0 0 0 0 0 0 0 0 0 0 0 0 0 0 0 127 0"/>
<feOffset dx="4" dy="4"/>
<feColorMatrix type="matrix" values="0 0 0 0 0.943636 0 0 0 0 0.528325 0 0 0 0 0.436364 0 0 0 1 0"/>
<feBlend mode="normal" in2="effect1_dropShadow" result="effect2_dropShadow"/>
<feBlend mode="normal" in="SourceGraphic" in2="effect2_dropShadow" result="shape"/>
</filter>
</defs>
</svg>
