<svg width="20" height="27" viewBox="0 0 20 27" fill="none" xmlns="http://www.w3.org/2000/svg">
<path d="M2.27783 9.05627C2.69948 12.6392 5.95073 15.7797 9.90308 15.7797C14.1421 15.7797 17.5778 12.1689 17.5778 8.27237C17.5778 8.23907 17.5756 8.20667 17.5751 8.17472C13.202 7.58117 7.63058 10.7586 2.27783 9.05627Z" fill="#FA0404"/>
<path d="M19.8 8.30025C19.8 3.1689 17.2314 0.0009 17.2309 0H2.5686C2.5686 0 0 3.1734 0 8.30025C0 13.1729 4.1652 17.6989 9.40275 17.9703C9.34155 20.7999 9.1008 23.7465 8.4078 24.7671C7.43175 26.2053 4.01085 25.4664 4.01085 27H15.7905C15.7905 25.466 12.3682 26.2053 11.3922 24.7671C10.6992 23.7465 10.4584 20.8004 10.3972 17.9703C15.6334 17.6994 19.8 13.1729 19.8 8.30025ZM9.9 16.7643C5.4927 16.7643 1.8675 13.2629 1.3977 9.2682C1.36243 8.97837 1.34425 8.68672 1.34325 8.39475C1.34325 3.96225 3.5631 1.21995 3.5631 1.21995H16.2365C16.2369 1.2213 18.4171 3.915 18.4536 8.28585C18.454 8.32185 18.4567 8.3574 18.4567 8.39475C18.4567 12.7386 14.6259 16.7643 9.9 16.7643Z" fill="white"/>
<path d="M19.8 8.30025C19.8 3.1689 17.2314 0.0009 17.2309 0H2.5686C2.5686 0 0 3.1734 0 8.30025C0 13.1729 4.1652 17.6989 9.40275 17.9703C9.34155 20.7999 9.1008 23.7465 8.4078 24.7671C7.43175 26.2053 4.01085 25.4664 4.01085 27H15.7905C15.7905 25.466 12.3682 26.2053 11.3922 24.7671C10.6992 23.7465 10.4584 20.8004 10.3972 17.9703C15.6334 17.6994 19.8 13.1729 19.8 8.30025ZM9.9 16.7643C5.4927 16.7643 1.8675 13.2629 1.3977 9.2682C1.36243 8.97837 1.34425 8.68672 1.34325 8.39475C1.34325 3.96225 3.5631 1.21995 3.5631 1.21995H16.2365C16.2369 1.2213 18.4171 3.915 18.4536 8.28585C18.454 8.32185 18.4567 8.3574 18.4567 8.39475C18.4567 12.7386 14.6259 16.7643 9.9 16.7643Z" fill="white"/>
</svg>
