<svg width="48" height="8" viewBox="0 0 48 8" fill="none" xmlns="http://www.w3.org/2000/svg">
<path d="M4 8C6.20914 8 8 6.20914 8 4C8 1.79086 6.20914 0 4 0C1.79086 0 0 1.79086 0 4C0 6.20914 1.79086 8 4 8Z" fill="#596980"/>
<path d="M3.9998 7.2C5.76711 7.2 7.1998 5.76732 7.1998 4.00003C7.1998 2.23273 5.76711 0.800049 3.9998 0.800049C2.23249 0.800049 0.799805 2.23273 0.799805 4.00003C0.799805 5.76732 2.23249 7.2 3.9998 7.2Z" fill="#B42340"/>
<path d="M24 8C26.2091 8 28 6.20914 28 4C28 1.79086 26.2091 0 24 0C21.7909 0 20 1.79086 20 4C20 6.20914 21.7909 8 24 8Z" fill="#596980"/>
<path d="M24.0003 7.19999C25.7676 7.19999 27.2003 5.76731 27.2003 4.00002C27.2003 2.23272 25.7676 0.800049 24.0003 0.800049C22.233 0.800049 20.8003 2.23272 20.8003 4.00002C20.8003 5.76731 22.233 7.19999 24.0003 7.19999Z" fill="#CCD5E3"/>
<path d="M44 8C46.2091 8 48 6.20914 48 4C48 1.79086 46.2091 0 44 0C41.7909 0 40 1.79086 40 4C40 6.20914 41.7909 8 44 8Z" fill="#596980"/>
<path d="M43.9998 7.19999C45.7671 7.19999 47.1998 5.76731 47.1998 4.00002C47.1998 2.23272 45.7671 0.800049 43.9998 0.800049C42.2325 0.800049 40.7998 2.23272 40.7998 4.00002C40.7998 5.76731 42.2325 7.19999 43.9998 7.19999Z" fill="#CCD5E3"/>
</svg>
