<svg width="68" height="8" viewBox="0 0 68 8" fill="none" xmlns="http://www.w3.org/2000/svg">
<path d="M4 7.19077C6.20914 7.19077 8 5.58106 8 3.59538C8 1.60971 6.20914 0 4 0C1.79086 0 0 1.60971 0 3.59538C0 5.58106 1.79086 7.19077 4 7.19077Z" fill="#596980"/>
<path d="M3.9998 6.47157C5.76711 6.47157 7.1998 5.18381 7.1998 3.59528C7.1998 2.00675 5.76711 0.718994 3.9998 0.718994C2.23249 0.718994 0.799805 2.00675 0.799805 3.59528C0.799805 5.18381 2.23249 6.47157 3.9998 6.47157Z" fill="#B42340"/>
<path d="M24 7.19077C26.2091 7.19077 28 5.58106 28 3.59538C28 1.60971 26.2091 0 24 0C21.7909 0 20 1.60971 20 3.59538C20 5.58106 21.7909 7.19077 24 7.19077Z" fill="#596980"/>
<path d="M24.0003 6.47156C25.7676 6.47156 27.2003 5.1838 27.2003 3.59528C27.2003 2.00675 25.7676 0.718994 24.0003 0.718994C22.233 0.718994 20.8003 2.00675 20.8003 3.59528C20.8003 5.1838 22.233 6.47156 24.0003 6.47156Z" fill="#CCD5E3"/>
<path d="M44 7.19077C46.2091 7.19077 48 5.58106 48 3.59538C48 1.60971 46.2091 0 44 0C41.7909 0 40 1.60971 40 3.59538C40 5.58106 41.7909 7.19077 44 7.19077Z" fill="#596980"/>
<path d="M43.9998 6.47156C45.7671 6.47156 47.1998 5.1838 47.1998 3.59528C47.1998 2.00675 45.7671 0.718994 43.9998 0.718994C42.2325 0.718994 40.7998 2.00675 40.7998 3.59528C40.7998 5.1838 42.2325 6.47156 43.9998 6.47156Z" fill="#CCD5E3"/>
<path d="M64 7.19077C66.2091 7.19077 68 5.58106 68 3.59538C68 1.60971 66.2091 0 64 0C61.7909 0 60 1.60971 60 3.59538C60 5.58106 61.7909 7.19077 64 7.19077Z" fill="#596980"/>
<path d="M63.9998 6.47156C65.7671 6.47156 67.1998 5.1838 67.1998 3.59528C67.1998 2.00675 65.7671 0.718994 63.9998 0.718994C62.2325 0.718994 60.7998 2.00675 60.7998 3.59528C60.7998 5.1838 62.2325 6.47156 63.9998 6.47156Z" fill="#CCD5E3"/>
</svg>
