<svg width="722" height="276" viewBox="0 0 722 276" fill="none" xmlns="http://www.w3.org/2000/svg">
<path d="M3.05908 0H722L503.773 275.339H259.535H3.05908V0Z" fill="#FFC9A4"/>
<path d="M3.05908 0H712.822L490.928 275.339H252.955H3.05908V0Z" fill="#F2E8E1"/>
<path d="M0 0H700.585L479.759 275.339H245.742H0V0Z" fill="white"/>
<path d="M27.6564 34.3739L37.7364 59.2739L47.2164 34.3739H57.5364L37.3764 80.5739L17.2164 34.3739H27.6564ZM69.1961 79.2539C65.9961 79.2539 63.2761 78.6539 61.0361 77.4539C58.8361 76.2539 57.1561 74.5939 55.9961 72.4739C54.8361 70.3539 54.2561 67.9139 54.2561 65.1539C54.2561 62.5139 54.9361 60.1339 56.2961 58.0139C57.6561 55.8939 59.4761 54.2139 61.7561 52.9739C64.0361 51.6939 66.5761 51.0539 69.3761 51.0539C73.1361 51.0539 76.2161 52.1539 78.6161 54.3539C81.0561 56.5139 82.6361 59.6539 83.3561 63.7739L64.1561 69.8939C65.4361 71.3739 67.1761 72.1139 69.3761 72.1139C70.2961 72.1139 71.1761 71.9539 72.0161 71.6339C72.8961 71.3139 73.7561 70.8939 74.5961 70.3739L78.3161 76.6139C76.9161 77.4139 75.3961 78.0539 73.7561 78.5339C72.1561 79.0139 70.6361 79.2539 69.1961 79.2539ZM62.5361 64.6739C62.5361 64.8739 62.5361 65.0539 62.5361 65.2139L74.0561 61.3139C73.6961 60.3139 73.1161 59.4539 72.3161 58.7339C71.5161 57.9739 70.3161 57.5939 68.7161 57.5939C66.8361 57.5939 65.3361 58.2339 64.2161 59.5139C63.0961 60.7939 62.5361 62.5139 62.5361 64.6739ZM91.2001 91.1939L86.3401 85.9739C87.5401 85.0939 88.4601 84.0139 89.1001 82.7339C89.7801 81.4539 90.1201 79.8939 90.1201 78.0539V52.3139H98.5201V78.5339C98.5201 81.6539 97.9601 84.2339 96.8401 86.2739C95.7201 88.3539 93.8401 89.9939 91.2001 91.1939ZM89.8201 43.0139C89.8201 41.7739 90.3001 40.7539 91.2601 39.9539C92.2601 39.1539 93.3201 38.7539 94.4401 38.7539C95.5601 38.7539 96.5801 39.1539 97.5001 39.9539C98.4601 40.7539 98.9401 41.7739 98.9401 43.0139C98.9401 44.2539 98.4601 45.2739 97.5001 46.0739C96.5801 46.8339 95.5601 47.2139 94.4401 47.2139C93.3201 47.2139 92.2601 46.8339 91.2601 46.0739C90.3001 45.2739 89.8201 44.2539 89.8201 43.0139ZM118.195 79.2539C115.755 79.2539 113.535 78.7739 111.535 77.8139C109.575 76.8139 108.015 75.2939 106.855 73.2539C105.695 71.2139 105.115 68.6139 105.115 65.4539C105.115 62.4939 105.715 59.9339 106.915 57.7739C108.115 55.6139 109.695 53.9539 111.655 52.7939C113.615 51.5939 115.695 50.9939 117.895 50.9939C120.495 50.9939 122.455 51.4139 123.775 52.2539C125.135 53.0939 126.215 54.0139 127.015 55.0139L127.555 52.3139H135.355V78.5339H126.955V75.2939C126.555 75.6939 125.955 76.2139 125.155 76.8539C124.395 77.4939 123.435 78.0539 122.275 78.5339C121.115 79.0139 119.755 79.2539 118.195 79.2539ZM120.595 72.4139C123.515 72.4139 125.635 71.0939 126.955 68.4539V62.0339C126.475 60.7539 125.635 59.7339 124.435 58.9739C123.275 58.2139 121.895 57.8339 120.295 57.8339C118.495 57.8339 116.935 58.5139 115.615 59.8739C114.295 61.1939 113.635 62.9139 113.635 65.0339C113.635 66.4339 113.955 67.6939 114.595 68.8139C115.235 69.9339 116.075 70.8139 117.115 71.4539C118.195 72.0939 119.355 72.4139 120.595 72.4139ZM185.783 76.1939C184.623 77.1139 183.163 77.8539 181.403 78.4139C179.683 78.9739 177.983 79.2539 176.303 79.2539C171.823 79.2539 168.223 78.0339 165.503 75.5939C162.823 73.1539 161.483 69.7539 161.483 65.3939C161.483 62.4739 162.143 59.9939 163.463 57.9539C164.783 55.8739 166.503 54.2939 168.623 53.2139C170.783 52.1339 173.043 51.5939 175.403 51.5939C177.763 51.5939 179.803 51.9139 181.523 52.5539C183.283 53.1939 184.783 54.0339 186.023 55.0739L181.943 60.4739C181.383 60.0339 180.603 59.5939 179.603 59.1539C178.643 58.6739 177.503 58.4339 176.183 58.4339C174.463 58.4339 172.983 59.0939 171.743 60.4139C170.503 61.6939 169.883 63.3539 169.883 65.3939C169.883 67.3539 170.523 69.0139 171.803 70.3739C173.123 71.7339 174.863 72.4139 177.023 72.4139C178.863 72.4139 180.383 71.9139 181.583 70.9139L185.783 76.1939ZM190.194 65.0939C190.194 62.4139 190.814 60.0139 192.054 57.8939C193.334 55.7739 195.114 54.1139 197.394 52.9139C199.674 51.6739 202.294 51.0539 205.254 51.0539C208.254 51.0539 210.854 51.6739 213.054 52.9139C215.254 54.1139 216.934 55.7739 218.094 57.8939C219.294 60.0139 219.894 62.4139 219.894 65.0939C219.894 67.7739 219.294 70.1939 218.094 72.3539C216.934 74.4739 215.254 76.1539 213.054 77.3939C210.854 78.6339 208.214 79.2539 205.134 79.2539C202.254 79.2539 199.674 78.6939 197.394 77.5739C195.154 76.4539 193.394 74.8339 192.114 72.7139C190.834 70.5939 190.194 68.0539 190.194 65.0939ZM198.654 65.1539C198.654 67.2339 199.254 68.9739 200.454 70.3739C201.654 71.7339 203.174 72.4139 205.014 72.4139C206.974 72.4139 208.534 71.7339 209.694 70.3739C210.854 68.9739 211.434 67.2339 211.434 65.1539C211.434 63.0739 210.854 61.3539 209.694 59.9939C208.534 58.5939 206.974 57.8939 205.014 57.8939C203.174 57.8939 201.654 58.5939 200.454 59.9939C199.254 61.3539 198.654 63.0739 198.654 65.1539ZM234.131 52.3139L234.731 56.4539C235.731 54.7339 237.011 53.3939 238.571 52.4339C240.171 51.4739 242.051 50.9939 244.211 50.9939C246.331 50.9939 248.091 51.4339 249.491 52.3139C250.931 53.1539 251.871 54.4339 252.311 56.1539C253.391 54.5939 254.691 53.3539 256.211 52.4339C257.771 51.4739 259.391 50.9939 261.071 50.9939C263.671 50.9939 265.731 51.7339 267.251 53.2139C268.811 54.6539 269.611 56.5339 269.651 58.8539V78.5339H261.311V62.3339C261.271 61.1739 261.091 60.2339 260.771 59.5139C260.451 58.7539 259.711 58.3339 258.551 58.2539C257.191 58.2539 256.031 58.7339 255.071 59.6939C254.151 60.6139 253.451 61.8139 252.971 63.2939C252.531 64.7339 252.311 66.2339 252.311 67.7939V78.5339H243.911V62.3339C243.871 61.1739 243.651 60.2339 243.251 59.5139C242.891 58.7539 242.131 58.3339 240.971 58.2539C239.651 58.2539 238.531 58.7339 237.611 59.6939C236.731 60.6139 236.051 61.7939 235.571 63.2339C235.131 64.6739 234.911 66.1539 234.911 67.6739V78.5339H226.511V52.3139H234.131ZM276.268 65.0939C276.268 62.4139 276.888 60.0139 278.128 57.8939C279.408 55.7739 281.188 54.1139 283.468 52.9139C285.748 51.6739 288.368 51.0539 291.328 51.0539C294.328 51.0539 296.928 51.6739 299.128 52.9139C301.328 54.1139 303.008 55.7739 304.168 57.8939C305.368 60.0139 305.968 62.4139 305.968 65.0939C305.968 67.7739 305.368 70.1939 304.168 72.3539C303.008 74.4739 301.328 76.1539 299.128 77.3939C296.928 78.6339 294.288 79.2539 291.208 79.2539C288.328 79.2539 285.748 78.6939 283.468 77.5739C281.228 76.4539 279.468 74.8339 278.188 72.7139C276.908 70.5939 276.268 68.0539 276.268 65.0939ZM284.728 65.1539C284.728 67.2339 285.328 68.9739 286.528 70.3739C287.728 71.7339 289.248 72.4139 291.088 72.4139C293.048 72.4139 294.608 71.7339 295.768 70.3739C296.928 68.9739 297.508 67.2339 297.508 65.1539C297.508 63.0739 296.928 61.3539 295.768 59.9939C294.608 58.5939 293.048 57.8939 291.088 57.8939C289.248 57.8939 287.728 58.5939 286.528 59.9939C285.328 61.3539 284.728 63.0739 284.728 65.1539ZM343.137 79.2539C340.697 79.2539 338.477 78.7739 336.477 77.8139C334.517 76.8139 332.957 75.2939 331.797 73.2539C330.637 71.2139 330.057 68.6139 330.057 65.4539C330.057 62.4939 330.657 59.9339 331.857 57.7739C333.057 55.6139 334.637 53.9539 336.597 52.7939C338.557 51.5939 340.637 50.9939 342.837 50.9939C345.437 50.9939 347.397 51.4139 348.717 52.2539C350.077 53.0939 351.157 54.0139 351.957 55.0139L352.497 52.3139H360.297V78.5339H351.897V75.2939C351.497 75.6939 350.897 76.2139 350.097 76.8539C349.337 77.4939 348.377 78.0539 347.217 78.5339C346.057 79.0139 344.697 79.2539 343.137 79.2539ZM345.537 72.4139C348.457 72.4139 350.577 71.0939 351.897 68.4539V62.0339C351.417 60.7539 350.577 59.7339 349.377 58.9739C348.217 58.2139 346.837 57.8339 345.237 57.8339C343.437 57.8339 341.877 58.5139 340.557 59.8739C339.237 61.1939 338.577 62.9139 338.577 65.0339C338.577 66.4339 338.897 67.6939 339.537 68.8139C340.177 69.9339 341.017 70.8139 342.057 71.4539C343.137 72.0939 344.297 72.4139 345.537 72.4139ZM386.064 34.6739H396.264L404.964 60.2339L411.684 43.3739L408.204 34.6739H416.844L426.744 59.2139L434.244 34.6739H443.604L426.564 80.4539L416.064 54.2939L403.824 80.5739L386.064 34.6739ZM449.87 52.3139H458.27V78.5339H449.87V52.3139ZM449.69 43.0139C449.69 41.7739 450.17 40.7539 451.13 39.9539C452.13 39.1539 453.19 38.7539 454.31 38.7539C455.43 38.7539 456.45 39.1539 457.37 39.9539C458.33 40.7539 458.81 41.7739 458.81 43.0139C458.81 44.2539 458.33 45.2739 457.37 46.0739C456.45 46.8339 455.43 47.2139 454.31 47.2139C453.19 47.2139 452.13 46.8339 451.13 46.0739C450.17 45.2739 449.69 44.2539 449.69 43.0139ZM474.541 52.3139L475.141 56.5139C476.061 54.8739 477.361 53.5539 479.041 52.5539C480.721 51.5539 482.761 51.0539 485.161 51.0539C487.641 51.0539 489.701 51.7939 491.341 53.2739C493.021 54.7139 493.881 56.5939 493.921 58.9139V78.5339H485.521V62.0339C485.481 60.8739 485.161 59.9539 484.561 59.2739C484.001 58.5539 483.041 58.1939 481.681 58.1939C479.721 58.1939 478.161 59.1139 477.001 60.9539C475.881 62.7539 475.321 65.0539 475.321 67.8539V78.5339H466.921V52.3139H474.541ZM515.446 79.2539C512.246 79.2539 509.526 78.6539 507.286 77.4539C505.086 76.2539 503.406 74.5939 502.246 72.4739C501.086 70.3539 500.506 67.9139 500.506 65.1539C500.506 62.5139 501.186 60.1339 502.546 58.0139C503.906 55.8939 505.726 54.2139 508.006 52.9739C510.286 51.6939 512.826 51.0539 515.626 51.0539C519.386 51.0539 522.466 52.1539 524.866 54.3539C527.306 56.5139 528.886 59.6539 529.606 63.7739L510.406 69.8939C511.686 71.3739 513.426 72.1139 515.626 72.1139C516.546 72.1139 517.426 71.9539 518.266 71.6339C519.146 71.3139 520.006 70.8939 520.846 70.3739L524.566 76.6139C523.166 77.4139 521.646 78.0539 520.006 78.5339C518.406 79.0139 516.886 79.2539 515.446 79.2539ZM508.786 64.6739C508.786 64.8739 508.786 65.0539 508.786 65.2139L520.306 61.3139C519.946 60.3139 519.366 59.4539 518.566 58.7339C517.766 57.9739 516.566 57.5939 514.966 57.5939C513.086 57.5939 511.586 58.2339 510.466 59.5139C509.346 60.7939 508.786 62.5139 508.786 64.6739ZM546.39 79.2539C543.95 79.2539 541.77 78.6939 539.85 77.5739C537.93 76.4139 536.41 74.7539 535.29 72.5939C534.21 70.4339 533.67 67.8739 533.67 64.9139C533.67 61.9539 534.27 59.4339 535.47 57.3539C536.67 55.2739 538.31 53.6939 540.39 52.6139C542.47 51.5339 544.83 50.9939 547.47 50.9939C549.15 50.9939 550.75 51.2539 552.27 51.7739C553.83 52.2939 555.13 53.0939 556.17 54.1739V31.1939H564.51V78.5339H556.11V75.7739C554.83 76.7739 553.39 77.6139 551.79 78.2939C550.19 78.9339 548.39 79.2539 546.39 79.2539ZM549.15 72.1739C550.83 72.1739 552.23 71.8539 553.35 71.2139C554.47 70.5339 555.39 69.5339 556.11 68.2139V61.7939C555.63 60.5139 554.77 59.4939 553.53 58.7339C552.29 57.9739 550.83 57.5939 549.15 57.5939C547.91 57.5939 546.75 57.9139 545.67 58.5539C544.63 59.1539 543.79 59.9939 543.15 61.0739C542.51 62.1539 542.19 63.3939 542.19 64.7939C542.19 66.1939 542.51 67.4539 543.15 68.5739C543.79 69.6939 544.63 70.5739 545.67 71.2139C546.75 71.8539 547.91 72.1739 549.15 72.1739ZM581.312 53.3939H588.932V60.8339H596.132V68.0939H588.932V75.4139H581.312V68.0939H574.112V60.8339H581.312V53.3939ZM36.0564 151.254C34.5764 151.254 33.0964 150.994 31.6164 150.474C30.1764 149.914 28.9564 149.134 27.9564 148.134V163.134H19.6164V123.714H26.8164L27.5364 126.834C28.8964 125.754 30.3964 124.854 32.0364 124.134C33.7164 123.374 35.6164 122.994 37.7364 122.994C40.1764 122.994 42.3564 123.574 44.2764 124.734C46.1964 125.854 47.6964 127.494 48.7764 129.654C49.8964 131.774 50.4564 134.334 50.4564 137.334C50.4564 140.294 49.8364 142.814 48.5964 144.894C47.3564 146.974 45.6564 148.554 43.4964 149.634C41.3364 150.714 38.8564 151.254 36.0564 151.254ZM34.3764 144.654C35.7364 144.654 36.9764 144.354 38.0964 143.754C39.2564 143.154 40.1764 142.314 40.8564 141.234C41.5764 140.114 41.9364 138.854 41.9364 137.454C41.9364 135.214 41.2564 133.434 39.8964 132.114C38.5364 130.754 36.8964 130.074 34.9764 130.074C33.2964 130.074 31.8964 130.414 30.7764 131.094C29.6564 131.734 28.7364 132.714 28.0164 134.034V140.454C28.4564 141.734 29.2364 142.754 30.3564 143.514C31.5164 144.274 32.8564 144.654 34.3764 144.654ZM55.0178 137.094C55.0178 134.414 55.6378 132.014 56.8778 129.894C58.1578 127.774 59.9378 126.114 62.2178 124.914C64.4978 123.674 67.1178 123.054 70.0778 123.054C73.0778 123.054 75.6778 123.674 77.8778 124.914C80.0778 126.114 81.7578 127.774 82.9178 129.894C84.1178 132.014 84.7178 134.414 84.7178 137.094C84.7178 139.774 84.1178 142.194 82.9178 144.354C81.7578 146.474 80.0778 148.154 77.8778 149.394C75.6778 150.634 73.0378 151.254 69.9578 151.254C67.0778 151.254 64.4978 150.694 62.2178 149.574C59.9778 148.454 58.2178 146.834 56.9378 144.714C55.6578 142.594 55.0178 140.054 55.0178 137.094ZM63.4778 137.154C63.4778 139.234 64.0778 140.974 65.2778 142.374C66.4778 143.734 67.9978 144.414 69.8378 144.414C71.7978 144.414 73.3578 143.734 74.5178 142.374C75.6778 140.974 76.2578 139.234 76.2578 137.154C76.2578 135.074 75.6778 133.354 74.5178 131.994C73.3578 130.594 71.7978 129.894 69.8378 129.894C67.9978 129.894 66.4778 130.594 65.2778 131.994C64.0778 133.354 63.4778 135.074 63.4778 137.154ZM102.015 151.254C99.5751 151.254 97.3951 150.694 95.4751 149.574C93.5551 148.414 92.0351 146.754 90.9151 144.594C89.8351 142.434 89.2951 139.874 89.2951 136.914C89.2951 133.954 89.8951 131.434 91.0951 129.354C92.2951 127.274 93.9351 125.694 96.0151 124.614C98.0951 123.534 100.455 122.994 103.095 122.994C104.775 122.994 106.375 123.254 107.895 123.774C109.455 124.294 110.755 125.094 111.795 126.174V103.194H120.135V150.534H111.735V147.774C110.455 148.774 109.015 149.614 107.415 150.294C105.815 150.934 104.015 151.254 102.015 151.254ZM104.775 144.174C106.455 144.174 107.855 143.854 108.975 143.214C110.095 142.534 111.015 141.534 111.735 140.214V133.794C111.255 132.514 110.395 131.494 109.155 130.734C107.915 129.974 106.455 129.594 104.775 129.594C103.535 129.594 102.375 129.914 101.295 130.554C100.255 131.154 99.4151 131.994 98.7751 133.074C98.1351 134.154 97.8151 135.394 97.8151 136.794C97.8151 138.194 98.1351 139.454 98.7751 140.574C99.4151 141.694 100.255 142.574 101.295 143.214C102.375 143.854 103.535 144.174 104.775 144.174ZM141.677 151.254C138.477 151.254 135.757 150.654 133.517 149.454C131.317 148.254 129.637 146.594 128.477 144.474C127.317 142.354 126.737 139.914 126.737 137.154C126.737 134.514 127.417 132.134 128.777 130.014C130.137 127.894 131.957 126.214 134.237 124.974C136.517 123.694 139.057 123.054 141.857 123.054C145.617 123.054 148.697 124.154 151.097 126.354C153.537 128.514 155.117 131.654 155.837 135.774L136.637 141.894C137.917 143.374 139.657 144.114 141.857 144.114C142.777 144.114 143.657 143.954 144.497 143.634C145.377 143.314 146.237 142.894 147.077 142.374L150.797 148.614C149.397 149.414 147.877 150.054 146.237 150.534C144.637 151.014 143.117 151.254 141.677 151.254ZM135.017 136.674C135.017 136.874 135.017 137.054 135.017 137.214L146.537 133.314C146.177 132.314 145.597 131.454 144.797 130.734C143.997 129.974 142.797 129.594 141.197 129.594C139.317 129.594 137.817 130.234 136.697 131.514C135.577 132.794 135.017 134.514 135.017 136.674ZM183.912 112.794H192.312V124.194H198.672V130.734H192.312V150.534H183.912V130.734H179.832V124.194H183.912V112.794ZM217.966 151.254C214.766 151.254 212.046 150.654 209.806 149.454C207.606 148.254 205.926 146.594 204.766 144.474C203.606 142.354 203.026 139.914 203.026 137.154C203.026 134.514 203.706 132.134 205.066 130.014C206.426 127.894 208.246 126.214 210.526 124.974C212.806 123.694 215.346 123.054 218.146 123.054C221.906 123.054 224.986 124.154 227.386 126.354C229.826 128.514 231.406 131.654 232.126 135.774L212.926 141.894C214.206 143.374 215.946 144.114 218.146 144.114C219.066 144.114 219.946 143.954 220.786 143.634C221.666 143.314 222.526 142.894 223.366 142.374L227.086 148.614C225.686 149.414 224.166 150.054 222.526 150.534C220.926 151.014 219.406 151.254 217.966 151.254ZM211.306 136.674C211.306 136.874 211.306 137.054 211.306 137.214L222.826 133.314C222.466 132.314 221.886 131.454 221.086 130.734C220.286 129.974 219.086 129.594 217.486 129.594C215.606 129.594 214.106 130.234 212.986 131.514C211.866 132.794 211.306 134.514 211.306 136.674ZM268.781 151.254C266.341 151.254 264.121 150.774 262.121 149.814C260.161 148.814 258.601 147.294 257.441 145.254C256.281 143.214 255.701 140.614 255.701 137.454C255.701 134.494 256.301 131.934 257.501 129.774C258.701 127.614 260.281 125.954 262.241 124.794C264.201 123.594 266.281 122.994 268.481 122.994C271.081 122.994 273.041 123.414 274.361 124.254C275.721 125.094 276.801 126.014 277.601 127.014L278.141 124.314H285.941V150.534H277.541V147.294C277.141 147.694 276.541 148.214 275.741 148.854C274.981 149.494 274.021 150.054 272.861 150.534C271.701 151.014 270.341 151.254 268.781 151.254ZM271.181 144.414C274.101 144.414 276.221 143.094 277.541 140.454V134.034C277.061 132.754 276.221 131.734 275.021 130.974C273.861 130.214 272.481 129.834 270.881 129.834C269.081 129.834 267.521 130.514 266.201 131.874C264.881 133.194 264.221 134.914 264.221 137.034C264.221 138.434 264.541 139.694 265.181 140.814C265.821 141.934 266.661 142.814 267.701 143.454C268.781 144.094 269.941 144.414 271.181 144.414ZM296.337 163.194L291.477 157.974C292.677 157.094 293.597 156.014 294.237 154.734C294.917 153.454 295.257 151.894 295.257 150.054V124.314H303.657V150.534C303.657 153.654 303.097 156.234 301.977 158.274C300.857 160.354 298.977 161.994 296.337 163.194ZM294.957 115.014C294.957 113.774 295.437 112.754 296.397 111.954C297.397 111.154 298.457 110.754 299.577 110.754C300.697 110.754 301.717 111.154 302.637 111.954C303.597 112.754 304.077 113.774 304.077 115.014C304.077 116.254 303.597 117.274 302.637 118.074C301.717 118.834 300.697 119.214 299.577 119.214C298.457 119.214 297.397 118.834 296.397 118.074C295.437 117.274 294.957 116.254 294.957 115.014ZM320.752 151.794C318.392 151.794 316.412 151.074 314.812 149.634C313.212 148.154 312.372 146.254 312.292 143.934V124.314H320.692V140.814C320.772 141.974 321.072 142.914 321.592 143.634C322.112 144.314 322.992 144.654 324.232 144.654C326.112 144.654 327.592 143.754 328.672 141.954C329.752 140.114 330.292 137.794 330.292 134.994V124.314H338.692V150.534H331.072L330.472 146.334C329.592 147.974 328.332 149.294 326.692 150.294C325.052 151.294 323.072 151.794 320.752 151.794ZM358.011 151.254C355.571 151.254 353.391 150.694 351.471 149.574C349.551 148.414 348.031 146.754 346.911 144.594C345.831 142.434 345.291 139.874 345.291 136.914C345.291 133.954 345.891 131.434 347.091 129.354C348.291 127.274 349.931 125.694 352.011 124.614C354.091 123.534 356.451 122.994 359.091 122.994C360.771 122.994 362.371 123.254 363.891 123.774C365.451 124.294 366.751 125.094 367.791 126.174V103.194H376.131V150.534H367.731V147.774C366.451 148.774 365.011 149.614 363.411 150.294C361.811 150.934 360.011 151.254 358.011 151.254ZM360.771 144.174C362.451 144.174 363.851 143.854 364.971 143.214C366.091 142.534 367.011 141.534 367.731 140.214V133.794C367.251 132.514 366.391 131.494 365.151 130.734C363.911 129.974 362.451 129.594 360.771 129.594C359.531 129.594 358.371 129.914 357.291 130.554C356.251 131.154 355.411 131.994 354.771 133.074C354.131 134.154 353.811 135.394 353.811 136.794C353.811 138.194 354.131 139.454 354.771 140.574C355.411 141.694 356.251 142.574 357.291 143.214C358.371 143.854 359.531 144.174 360.771 144.174ZM395.813 151.254C393.373 151.254 391.153 150.774 389.153 149.814C387.193 148.814 385.633 147.294 384.473 145.254C383.313 143.214 382.733 140.614 382.733 137.454C382.733 134.494 383.333 131.934 384.533 129.774C385.733 127.614 387.313 125.954 389.273 124.794C391.233 123.594 393.313 122.994 395.513 122.994C398.113 122.994 400.073 123.414 401.393 124.254C402.753 125.094 403.833 126.014 404.633 127.014L405.173 124.314H412.973V150.534H404.573V147.294C404.173 147.694 403.573 148.214 402.773 148.854C402.013 149.494 401.053 150.054 399.893 150.534C398.733 151.014 397.373 151.254 395.813 151.254ZM398.213 144.414C401.133 144.414 403.253 143.094 404.573 140.454V134.034C404.093 132.754 403.253 131.734 402.053 130.974C400.893 130.214 399.513 129.834 397.913 129.834C396.113 129.834 394.553 130.514 393.233 131.874C391.913 133.194 391.253 134.914 391.253 137.034C391.253 138.434 391.573 139.694 392.213 140.814C392.853 141.934 393.693 142.814 394.733 143.454C395.813 144.094 396.973 144.414 398.213 144.414ZM429.188 124.314L429.848 130.314C430.608 128.794 431.648 127.494 432.968 126.414C434.288 125.294 435.588 124.454 436.868 123.894C438.148 123.294 439.128 122.994 439.808 122.994L439.388 131.394C437.428 131.154 435.748 131.474 434.348 132.354C432.948 133.234 431.868 134.394 431.108 135.834C430.348 137.274 429.968 138.754 429.968 140.274V150.534H421.628V124.314H429.188ZM444.077 104.634H451.577V138.594H444.077V104.634ZM448.037 151.374C446.597 151.374 445.417 150.994 444.497 150.234C443.577 149.434 443.117 148.394 443.117 147.114C443.117 145.874 443.577 144.834 444.497 143.994C445.457 143.154 446.637 142.734 448.037 142.734C449.437 142.734 450.577 143.154 451.457 143.994C452.377 144.834 452.837 145.874 452.837 147.114C452.837 148.394 452.397 149.434 451.517 150.234C450.637 150.994 449.477 151.374 448.037 151.374ZM456.206 104.634H463.706V138.594H456.206V104.634ZM460.166 151.374C458.726 151.374 457.546 150.994 456.626 150.234C455.706 149.434 455.246 148.394 455.246 147.114C455.246 145.874 455.706 144.834 456.626 143.994C457.586 143.154 458.766 142.734 460.166 142.734C461.566 142.734 462.706 143.154 463.586 143.994C464.506 144.834 464.966 145.874 464.966 147.114C464.966 148.394 464.526 149.434 463.646 150.234C462.766 150.994 461.606 151.374 460.166 151.374Z" fill="black"/>
</svg>
