<svg width="27" height="27" viewBox="0 0 27 27" fill="none" xmlns="http://www.w3.org/2000/svg">
<path d="M18.6842 20.5849L18.6216 20.5223L18.5518 20.5769C16.5515 22.1412 14.0853 22.9913 11.5459 22.9918C5.23501 22.9918 0.1 17.8568 0.1 11.5459C0.1 5.23501 5.23501 0.1 11.5459 0.1C17.8568 0.1 22.9918 5.23501 22.9918 11.5459C22.9912 14.0859 22.1406 16.5527 20.5754 18.5533L20.5209 18.623L20.5835 18.6856L26.8572 24.9594L24.9579 26.8587L18.6842 20.5849ZM20.3053 11.5459C20.3053 6.715 16.3768 2.78648 11.5459 2.78648C6.715 2.78648 2.78648 6.715 2.78648 11.5459C2.78648 16.3768 6.715 20.3053 11.5459 20.3053C16.3768 20.3053 20.3053 16.3768 20.3053 11.5459Z" fill="white" stroke="black" stroke-width="0.2"/>
<path d="M13.6542 9.43434L13.654 9.43416C12.5475 8.33052 10.6512 8.30475 9.50629 9.36769L7.609 7.46502C9.76398 5.39207 13.4311 5.41535 15.5535 7.53498L15.5537 7.53516C16.0824 8.06046 16.5018 8.68535 16.7875 9.3737C17.0605 10.0313 17.2064 10.7344 17.2178 11.4457H14.5304C14.5053 10.6884 14.1959 9.97746 13.6542 9.43434Z" fill="white" stroke="black" stroke-width="0.2"/>
</svg>
