<svg width="15" height="15" viewBox="0 0 15 15" fill="none" xmlns="http://www.w3.org/2000/svg">
<path d="M0.292786 1.29296C0.480314 1.10549 0.734622 1.00017 0.999786 1.00017C1.26495 1.00017 1.51926 1.10549 1.70679 1.29296L6.99979 6.58596L12.2928 1.29296C12.385 1.19745 12.4954 1.12127 12.6174 1.06886C12.7394 1.01645 12.8706 0.988862 13.0034 0.987709C13.1362 0.986555 13.2678 1.01186 13.3907 1.06214C13.5136 1.11242 13.6253 1.18667 13.7192 1.28056C13.8131 1.37446 13.8873 1.48611 13.9376 1.60901C13.9879 1.7319 14.0132 1.86358 14.012 1.99636C14.0109 2.12914 13.9833 2.26036 13.9309 2.38236C13.8785 2.50437 13.8023 2.61471 13.7068 2.70696L8.41379 7.99996L13.7068 13.293C13.8889 13.4816 13.9897 13.7342 13.9875 13.9964C13.9852 14.2586 13.88 14.5094 13.6946 14.6948C13.5092 14.8802 13.2584 14.9854 12.9962 14.9876C12.734 14.9899 12.4814 14.8891 12.2928 14.707L6.99979 9.41396L1.70679 14.707C1.51818 14.8891 1.26558 14.9899 1.00339 14.9876C0.741188 14.9854 0.490376 14.8802 0.304968 14.6948C0.11956 14.5094 0.0143909 14.2586 0.0121125 13.9964C0.00983408 13.7342 0.110628 13.4816 0.292786 13.293L5.58579 7.99996L0.292786 2.70696C0.105315 2.51943 0 2.26512 0 1.99996C0 1.73479 0.105315 1.48049 0.292786 1.29296V1.29296Z" fill="#287A5C"/>
</svg>
