<svg width="266" height="30" viewBox="0 0 266 30" fill="none" xmlns="http://www.w3.org/2000/svg">
<path d="M0 0H226.143L266 30H38.9902L0 0Z" fill="#C4C4C4"/>
<path d="M47.466 11.918C47.466 11.2087 47.6013 10.5413 47.872 9.916C48.1427 9.28133 48.516 8.726 48.992 8.25C49.468 7.76467 50.0187 7.38667 50.644 7.116C51.2787 6.836 51.9553 6.696 52.674 6.696C53.3833 6.696 54.0507 6.836 54.676 7.116C55.3107 7.38667 55.866 7.76467 56.342 8.25C56.8273 8.726 57.2053 9.28133 57.476 9.916C57.756 10.5413 57.896 11.2087 57.896 11.918C57.896 12.6367 57.756 13.3087 57.476 13.934C57.2053 14.5593 56.8273 15.11 56.342 15.586C55.866 16.062 55.3107 16.4353 54.676 16.706C54.0507 16.9767 53.3833 17.112 52.674 17.112C51.9553 17.112 51.2787 16.9813 50.644 16.72C50.0187 16.4493 49.468 16.0807 48.992 15.614C48.516 15.138 48.1427 14.5873 47.872 13.962C47.6013 13.3273 47.466 12.646 47.466 11.918ZM49.146 11.918C49.146 12.59 49.3047 13.2013 49.622 13.752C49.9393 14.2933 50.364 14.7273 50.896 15.054C51.4373 15.3807 52.044 15.544 52.716 15.544C53.3693 15.544 53.9573 15.3807 54.48 15.054C55.012 14.7273 55.432 14.2933 55.74 13.752C56.0573 13.2013 56.216 12.59 56.216 11.918C56.216 11.2367 56.0573 10.6207 55.74 10.07C55.4227 9.51933 54.998 9.08067 54.466 8.754C53.934 8.42733 53.3367 8.264 52.674 8.264C52.0113 8.264 51.414 8.42733 50.882 8.754C50.35 9.08067 49.9253 9.524 49.608 10.084C49.3 10.6347 49.146 11.246 49.146 11.918ZM63.927 11.918C63.927 11.2087 64.0623 10.5413 64.333 9.916C64.6036 9.28133 64.977 8.726 65.453 8.25C65.929 7.76467 66.4796 7.38667 67.105 7.116C67.7396 6.836 68.4163 6.696 69.135 6.696C69.8443 6.696 70.5116 6.836 71.137 7.116C71.7716 7.38667 72.327 7.76467 72.803 8.25C73.2883 8.726 73.6663 9.28133 73.937 9.916C74.217 10.5413 74.357 11.2087 74.357 11.918C74.357 12.59 74.231 13.2247 73.979 13.822C73.7363 14.4193 73.405 14.9467 72.985 15.404H74.833V17H70.199C69.8443 17.0747 69.4896 17.112 69.135 17.112C68.4163 17.112 67.7396 16.9813 67.105 16.72C66.4796 16.4493 65.929 16.076 65.453 15.6C64.977 15.124 64.6036 14.5733 64.333 13.948C64.0623 13.3227 63.927 12.646 63.927 11.918ZM65.607 11.918C65.607 12.5807 65.7656 13.1873 66.083 13.738C66.4003 14.2793 66.825 14.7133 67.357 15.04C67.8983 15.3667 68.505 15.53 69.177 15.53C69.8303 15.53 70.4183 15.3713 70.941 15.054C71.473 14.7273 71.893 14.2933 72.201 13.752C72.5183 13.2013 72.677 12.59 72.677 11.918C72.677 11.2553 72.5183 10.6533 72.201 10.112C71.8836 9.56133 71.459 9.12267 70.927 8.796C70.395 8.46933 69.7976 8.306 69.135 8.306C68.4723 8.306 67.875 8.46933 67.343 8.796C66.811 9.12267 66.3863 9.56133 66.069 10.112C65.761 10.6627 65.607 11.2647 65.607 11.918ZM78.594 17.252C78.0527 17.252 77.6047 17.0887 77.25 16.762C76.8954 16.426 76.7087 15.9967 76.69 15.474V11.078H78.258V14.914C78.2767 15.2127 78.3607 15.4553 78.51 15.642C78.6594 15.8193 78.8974 15.908 79.224 15.908C79.6907 15.908 80.0734 15.698 80.372 15.278C80.6707 14.858 80.82 14.3307 80.82 13.696V11.078H82.388V17H80.974L80.862 15.95C80.6754 16.3327 80.3814 16.6453 79.98 16.888C79.5787 17.1307 79.1167 17.252 78.594 17.252ZM87.3794 17.154C86.6794 17.154 86.082 17.0187 85.5874 16.748C85.0927 16.4773 84.7147 16.104 84.4534 15.628C84.192 15.1427 84.0614 14.5967 84.0614 13.99C84.0614 13.402 84.2107 12.87 84.5094 12.394C84.808 11.9087 85.2094 11.526 85.7134 11.246C86.2174 10.9567 86.782 10.812 87.4074 10.812C88.2194 10.812 88.8867 11.05 89.4094 11.526C89.9414 11.9927 90.296 12.6553 90.4734 13.514L85.9234 15.054C86.2594 15.558 86.754 15.81 87.4074 15.81C87.65 15.81 87.8787 15.768 88.0934 15.684C88.3174 15.6 88.532 15.488 88.7374 15.348L89.4514 16.51C89.134 16.706 88.7934 16.8647 88.4294 16.986C88.0654 17.098 87.7154 17.154 87.3794 17.154ZM85.6014 13.906C85.6014 13.9807 85.606 14.06 85.6154 14.144L88.7234 13.038C88.6114 12.7767 88.4434 12.548 88.2194 12.352C87.9954 12.1467 87.6827 12.044 87.2814 12.044C86.7867 12.044 86.3807 12.2167 86.0634 12.562C85.7554 12.9073 85.6014 13.3553 85.6014 13.906ZM99.3286 17.154C98.6286 17.154 98.0312 17.0187 97.5366 16.748C97.0419 16.4773 96.6639 16.104 96.4026 15.628C96.1412 15.1427 96.0106 14.5967 96.0106 13.99C96.0106 13.402 96.1599 12.87 96.4586 12.394C96.7572 11.9087 97.1586 11.526 97.6626 11.246C98.1666 10.9567 98.7312 10.812 99.3566 10.812C100.169 10.812 100.836 11.05 101.359 11.526C101.891 11.9927 102.245 12.6553 102.423 13.514L97.8726 15.054C98.2086 15.558 98.7032 15.81 99.3566 15.81C99.5992 15.81 99.8279 15.768 100.043 15.684C100.267 15.6 100.481 15.488 100.687 15.348L101.401 16.51C101.083 16.706 100.743 16.8647 100.379 16.986C100.015 17.098 99.6646 17.154 99.3286 17.154ZM97.5506 13.906C97.5506 13.9807 97.5552 14.06 97.5646 14.144L100.673 13.038C100.561 12.7767 100.393 12.548 100.169 12.352C99.9446 12.1467 99.6319 12.044 99.2306 12.044C98.7359 12.044 98.3299 12.2167 98.0126 12.562C97.7046 12.9073 97.5506 13.3553 97.5506 13.906ZM101.079 8.138L99.1886 10.014H98.2086L99.3426 8.138H101.079ZM110.354 17.252C109.812 17.252 109.364 17.0887 109.01 16.762C108.655 16.426 108.468 15.9967 108.45 15.474V11.078H110.018V14.914C110.036 15.2127 110.12 15.4553 110.27 15.642C110.419 15.8193 110.657 15.908 110.984 15.908C111.45 15.908 111.833 15.698 112.132 15.278C112.43 14.858 112.58 14.3307 112.58 13.696V11.078H114.148V17H112.734L112.622 15.95C112.435 16.3327 112.141 16.6453 111.74 16.888C111.338 17.1307 110.876 17.252 110.354 17.252ZM117.725 11.078L117.837 12.128C118.061 11.7173 118.364 11.3953 118.747 11.162C119.13 10.9287 119.573 10.812 120.077 10.812C120.562 10.812 120.968 10.9193 121.295 11.134C121.622 11.3487 121.822 11.6473 121.897 12.03C122.149 11.6567 122.457 11.3627 122.821 11.148C123.194 10.924 123.586 10.812 123.997 10.812C124.585 10.812 125.047 10.98 125.383 11.316C125.728 11.6427 125.906 12.0673 125.915 12.59V17H124.361V13.192C124.342 12.912 124.277 12.6787 124.165 12.492C124.053 12.296 123.848 12.1887 123.549 12.17C123.213 12.17 122.924 12.2773 122.681 12.492C122.438 12.6973 122.247 12.968 122.107 13.304C121.976 13.6307 121.911 13.976 121.911 14.34V17H120.329V13.192C120.32 12.912 120.254 12.6787 120.133 12.492C120.012 12.296 119.797 12.1887 119.489 12.17C119.162 12.17 118.878 12.2773 118.635 12.492C118.392 12.6973 118.206 12.968 118.075 13.304C117.944 13.6307 117.879 13.976 117.879 14.34V17H116.311V11.078H117.725ZM130.561 17.154C130.001 17.154 129.497 17.0373 129.049 16.804C128.601 16.5707 128.242 16.2253 127.971 15.768C127.71 15.3107 127.579 14.7367 127.579 14.046C127.579 13.374 127.714 12.8 127.985 12.324C128.265 11.8387 128.629 11.4653 129.077 11.204C129.534 10.9427 130.029 10.812 130.561 10.812C131.112 10.812 131.555 10.9193 131.891 11.134C132.236 11.3393 132.512 11.5867 132.717 11.876L132.829 11.078H134.271V17H132.703V16.132C132.6 16.2533 132.451 16.3933 132.255 16.552C132.059 16.7107 131.816 16.8507 131.527 16.972C131.247 17.0933 130.925 17.154 130.561 17.154ZM130.995 15.866C131.415 15.866 131.774 15.754 132.073 15.53C132.372 15.306 132.582 14.998 132.703 14.606V13.318C132.591 12.954 132.376 12.66 132.059 12.436C131.742 12.212 131.368 12.1 130.939 12.1C130.612 12.1 130.314 12.1793 130.043 12.338C129.782 12.4873 129.567 12.7067 129.399 12.996C129.24 13.276 129.161 13.598 129.161 13.962C129.161 14.3167 129.245 14.6387 129.413 14.928C129.581 15.2173 129.8 15.446 130.071 15.614C130.351 15.782 130.659 15.866 130.995 15.866ZM148.802 16.202C148.653 16.3047 148.429 16.4307 148.13 16.58C147.841 16.7293 147.491 16.86 147.08 16.972C146.67 17.0747 146.222 17.1213 145.736 17.112C144.943 17.1027 144.229 16.9627 143.594 16.692C142.96 16.412 142.418 16.0387 141.97 15.572C141.532 15.096 141.196 14.5547 140.962 13.948C140.729 13.332 140.612 12.6787 140.612 11.988C140.612 11.2133 140.734 10.504 140.976 9.86C141.228 9.216 141.574 8.66067 142.012 8.194C142.46 7.718 142.988 7.34933 143.594 7.088C144.21 6.82667 144.887 6.696 145.624 6.696C146.268 6.696 146.842 6.78467 147.346 6.962C147.86 7.13 148.289 7.32133 148.634 7.536L147.99 9.062C147.729 8.88467 147.402 8.70733 147.01 8.53C146.618 8.35267 146.175 8.264 145.68 8.264C145.074 8.264 144.514 8.42733 144 8.754C143.496 9.07133 143.086 9.50533 142.768 10.056C142.46 10.5973 142.306 11.2087 142.306 11.89C142.306 12.5993 142.446 13.2293 142.726 13.78C143.016 14.3307 143.417 14.7647 143.93 15.082C144.453 15.39 145.069 15.544 145.778 15.544C146.31 15.544 146.772 15.4647 147.164 15.306C147.556 15.138 147.874 14.9513 148.116 14.746L148.802 16.202ZM150.347 11.918C150.347 11.2087 150.482 10.5413 150.753 9.916C151.024 9.28133 151.397 8.726 151.873 8.25C152.349 7.76467 152.9 7.38667 153.525 7.116C154.16 6.836 154.836 6.696 155.555 6.696C156.264 6.696 156.932 6.836 157.557 7.116C158.192 7.38667 158.747 7.76467 159.223 8.25C159.708 8.726 160.086 9.28133 160.357 9.916C160.637 10.5413 160.777 11.2087 160.777 11.918C160.777 12.6367 160.637 13.3087 160.357 13.934C160.086 14.5593 159.708 15.11 159.223 15.586C158.747 16.062 158.192 16.4353 157.557 16.706C156.932 16.9767 156.264 17.112 155.555 17.112C154.836 17.112 154.16 16.9813 153.525 16.72C152.9 16.4493 152.349 16.0807 151.873 15.614C151.397 15.138 151.024 14.5873 150.753 13.962C150.482 13.3273 150.347 12.646 150.347 11.918ZM152.027 11.918C152.027 12.59 152.186 13.2013 152.503 13.752C152.82 14.2933 153.245 14.7273 153.777 15.054C154.318 15.3807 154.925 15.544 155.597 15.544C156.25 15.544 156.838 15.3807 157.361 15.054C157.893 14.7273 158.313 14.2933 158.621 13.752C158.938 13.2013 159.097 12.59 159.097 11.918C159.097 11.2367 158.938 10.6207 158.621 10.07C158.304 9.51933 157.879 9.08067 157.347 8.754C156.815 8.42733 156.218 8.264 155.555 8.264C154.892 8.264 154.295 8.42733 153.763 8.754C153.231 9.08067 152.806 9.524 152.489 10.084C152.181 10.6347 152.027 11.246 152.027 11.918ZM162.953 6.808H169.141V8.376H164.591V11.246H168.553V12.8H164.591V17H162.953V6.808ZM174.122 6.808C174.878 6.808 175.536 6.93867 176.096 7.2C176.666 7.452 177.104 7.82533 177.412 8.32C177.73 8.80533 177.888 9.39333 177.888 10.084C177.888 10.6627 177.762 11.2273 177.51 11.778C177.258 12.3287 176.834 12.758 176.236 13.066L178.714 17H176.824L174.528 13.458C174.472 13.458 174.416 13.458 174.36 13.458H172.89V17H171.252V6.808H174.122ZM174.346 11.89C174.832 11.89 175.21 11.7967 175.48 11.61C175.751 11.414 175.938 11.1807 176.04 10.91C176.152 10.63 176.208 10.3733 176.208 10.14C176.208 9.916 176.157 9.66867 176.054 9.398C175.952 9.118 175.77 8.88 175.508 8.684C175.247 8.47867 174.878 8.376 174.402 8.376H172.89V11.89H174.346ZM179.567 17L184.075 6.388H184.173L188.681 17H186.805L185.867 14.606H182.157L181.177 17H179.567ZM182.731 13.206H185.321L184.047 10L182.731 13.206ZM193.29 6.808C194.046 6.808 194.704 6.93867 195.264 7.2C195.834 7.452 196.272 7.82533 196.58 8.32C196.898 8.80533 197.056 9.39333 197.056 10.084C197.056 10.6627 196.93 11.2273 196.678 11.778C196.426 12.3287 196.002 12.758 195.404 13.066L197.882 17H195.992L193.696 13.458C193.64 13.458 193.584 13.458 193.528 13.458H192.058V17H190.42V6.808H193.29ZM193.514 11.89C194 11.89 194.378 11.7967 194.648 11.61C194.919 11.414 195.106 11.1807 195.208 10.91C195.32 10.63 195.376 10.3733 195.376 10.14C195.376 9.916 195.325 9.66867 195.222 9.398C195.12 9.118 194.938 8.88 194.676 8.684C194.415 8.47867 194.046 8.376 193.57 8.376H192.058V11.89H193.514ZM199.799 6.808H201.437V17H199.799V6.808ZM203.178 17L207.686 6.388H207.784L212.292 17H210.416L209.478 14.606H205.768L204.788 17H203.178ZM206.342 13.206H208.932L207.658 10L206.342 13.206ZM214.83 14.34V13.514C214.83 13.0567 214.89 12.6833 215.012 12.394C215.133 12.1047 215.287 11.862 215.474 11.666C215.66 11.4607 215.852 11.2647 216.048 11.078C216.328 10.8447 216.57 10.602 216.776 10.35C216.981 10.098 217.084 9.76667 217.084 9.356C217.084 8.964 216.944 8.64667 216.664 8.404C216.393 8.16133 216.099 8.04 215.782 8.04C215.343 8.04 214.988 8.18467 214.718 8.474C214.456 8.754 214.26 9.07133 214.13 9.426L212.828 8.824C212.893 8.63733 213 8.418 213.15 8.166C213.299 7.914 213.495 7.66667 213.738 7.424C213.99 7.18133 214.298 6.98067 214.662 6.822C215.026 6.66333 215.45 6.584 215.936 6.584C216.468 6.59333 216.944 6.696 217.364 6.892C217.784 7.07867 218.12 7.368 218.372 7.76C218.624 8.14267 218.75 8.628 218.75 9.216C218.75 9.692 218.684 10.084 218.554 10.392C218.423 10.7 218.25 10.966 218.036 11.19C217.83 11.414 217.62 11.6287 217.406 11.834C217.219 12.002 217.051 12.1747 216.902 12.352C216.752 12.52 216.631 12.7253 216.538 12.968C216.444 13.2013 216.398 13.5047 216.398 13.878V14.34H214.83ZM215.628 17.042C215.348 17.042 215.114 16.9673 214.928 16.818C214.75 16.6593 214.662 16.454 214.662 16.202C214.662 15.9593 214.75 15.754 214.928 15.586C215.114 15.418 215.348 15.334 215.628 15.334C215.898 15.334 216.122 15.418 216.3 15.586C216.477 15.754 216.566 15.9593 216.566 16.202C216.566 16.454 216.477 16.6593 216.3 16.818C216.122 16.9673 215.898 17.042 215.628 17.042Z" fill="black"/>
</svg>
