<svg width="107" height="13" viewBox="0 0 107 13" fill="none" xmlns="http://www.w3.org/2000/svg">
<path d="M5.02222 12.042C4.10755 12.042 3.27222 11.8227 2.51622 11.384C1.76955 10.9453 1.17689 10.348 0.738219 9.592C0.308885 8.836 0.0942188 8.00533 0.0942188 7.1C0.0942188 6.19467 0.308885 5.364 0.738219 4.608C1.17689 3.852 1.77422 3.25467 2.53022 2.816C3.28622 2.37733 4.12622 2.158 5.05022 2.158C5.97422 2.158 6.80955 2.37267 7.55622 2.802C8.31222 3.23133 8.90489 3.824 9.33422 4.58C9.76355 5.32667 9.97822 6.15733 9.97822 7.072C9.97822 7.98667 9.75889 8.82667 9.32022 9.592C8.88155 10.348 8.28422 10.9453 7.52822 11.384C6.77222 11.8227 5.93689 12.042 5.02222 12.042ZM5.02222 11.132C5.76889 11.132 6.44555 10.9547 7.05222 10.6C7.66822 10.236 8.14889 9.746 8.49422 9.13C8.84889 8.50467 9.02622 7.81867 9.02622 7.072C9.02622 6.316 8.85355 5.63467 8.50822 5.028C8.17222 4.42133 7.70089 3.94533 7.09422 3.6C6.48755 3.24533 5.80622 3.068 5.05022 3.068C4.29422 3.068 3.61289 3.24533 3.00622 3.6C2.39955 3.95467 1.92355 4.44 1.57822 5.056C1.23289 5.672 1.06022 6.35333 1.06022 7.1C1.06022 7.84667 1.23289 8.528 1.57822 9.144C1.92355 9.76 2.39489 10.2453 2.99222 10.6C3.59889 10.9547 4.27555 11.132 5.02222 11.132ZM5.20422 9.928C4.63489 9.928 4.12155 9.80667 3.66422 9.564C3.21622 9.32133 2.86155 8.98533 2.60022 8.556C2.34822 8.12667 2.22222 7.64133 2.22222 7.1C2.22222 6.55867 2.34822 6.07333 2.60022 5.644C2.86155 5.21467 3.21622 4.87867 3.66422 4.636C4.12155 4.39333 4.63489 4.272 5.20422 4.272C5.75489 4.272 6.24022 4.39333 6.66022 4.636C7.08955 4.86933 7.40222 5.19133 7.59822 5.602L6.33822 6.344C6.08622 5.90533 5.70355 5.686 5.19022 5.686C4.81689 5.686 4.49955 5.81667 4.23822 6.078C3.98622 6.33 3.86022 6.67067 3.86022 7.1C3.86022 7.52933 3.98622 7.87467 4.23822 8.136C4.49955 8.388 4.81689 8.514 5.19022 8.514C5.70355 8.514 6.08622 8.29467 6.33822 7.856L7.59822 8.584C7.40222 9.004 7.08955 9.33533 6.66022 9.578C6.24022 9.81133 5.75489 9.928 5.20422 9.928ZM31.4733 2.2L26.2933 12H23.8713L23.0173 5.406L19.4753 12H17.0393L15.7933 2.2H18.0333L18.9013 9.088L22.5833 2.2H24.6833L25.5233 9.144L29.2193 2.2H31.4733ZM32.2601 4.468H34.4301L32.9321 12H30.7621L32.2601 4.468ZM33.7161 3.418C33.3428 3.418 33.0348 3.31067 32.7921 3.096C32.5588 2.872 32.4421 2.60133 32.4421 2.284C32.4421 1.91067 32.5728 1.60267 32.8341 1.36C33.1048 1.108 33.4548 0.981999 33.8841 0.981999C34.2668 0.981999 34.5748 1.08933 34.8081 1.304C35.0508 1.50933 35.1721 1.766 35.1721 2.074C35.1721 2.47533 35.0368 2.802 34.7661 3.054C34.4954 3.29667 34.1454 3.418 33.7161 3.418ZM40.8394 4.356C41.6794 4.356 42.3467 4.58 42.8414 5.028C43.336 5.46667 43.5834 6.09667 43.5834 6.918C43.5834 7.226 43.5507 7.52933 43.4854 7.828L42.6454 12H40.4614L41.2734 7.968C41.3107 7.80933 41.3294 7.63667 41.3294 7.45C41.3294 7.058 41.222 6.75933 41.0074 6.554C40.7927 6.34867 40.4707 6.246 40.0414 6.246C39.4814 6.246 39.0147 6.40933 38.6414 6.736C38.2774 7.05333 38.03 7.534 37.8994 8.178L37.1434 12H34.9594L36.4574 4.468H38.5294L38.3614 5.28C39.0334 4.664 39.8594 4.356 40.8394 4.356ZM52.8971 7.674C52.8971 8.01933 52.8551 8.402 52.7711 8.822H47.0031C47.0777 9.84867 47.7264 10.362 48.9491 10.362C49.3317 10.362 49.6957 10.3013 50.0411 10.18C50.3957 10.0587 50.7037 9.886 50.9651 9.662L51.8751 11.104C51.4551 11.44 50.9744 11.692 50.4331 11.86C49.8917 12.028 49.3224 12.112 48.7251 12.112C47.9504 12.112 47.2691 11.9767 46.6811 11.706C46.1024 11.426 45.6544 11.0293 45.3371 10.516C45.0291 10.0027 44.8751 9.41 44.8751 8.738C44.8751 7.90733 45.0617 7.16067 45.4351 6.498C45.8177 5.826 46.3451 5.30333 47.0171 4.93C47.6891 4.54733 48.4544 4.356 49.3131 4.356C50.0411 4.356 50.6711 4.49133 51.2031 4.762C51.7444 5.03267 52.1597 5.42 52.4491 5.924C52.7477 6.428 52.8971 7.01133 52.8971 7.674ZM49.2151 5.994C48.7017 5.994 48.2677 6.134 47.9131 6.414C47.5584 6.68467 47.3064 7.06267 47.1571 7.548H50.8951C50.8951 7.06267 50.7411 6.68467 50.4331 6.414C50.1344 6.134 49.7284 5.994 49.2151 5.994ZM63.2421 1.612L61.1701 12H59.0981L59.2521 11.244C58.6174 11.8227 57.8474 12.112 56.9421 12.112C56.3541 12.112 55.8128 11.9767 55.3181 11.706C54.8234 11.4353 54.4268 11.048 54.1281 10.544C53.8388 10.0307 53.6941 9.42867 53.6941 8.738C53.6941 7.90733 53.8761 7.16067 54.2401 6.498C54.6134 5.826 55.1174 5.30333 55.7521 4.93C56.3868 4.54733 57.0868 4.356 57.8521 4.356C58.4028 4.356 58.8834 4.44933 59.2941 4.636C59.7141 4.82267 60.0454 5.098 60.2881 5.462L61.0581 1.612H63.2421ZM57.6141 10.306C58.0434 10.306 58.4261 10.2033 58.7621 9.998C59.0981 9.78333 59.3594 9.48933 59.5461 9.116C59.7328 8.74267 59.8261 8.31333 59.8261 7.828C59.8261 7.31467 59.6721 6.90867 59.3641 6.61C59.0654 6.31133 58.6454 6.162 58.1041 6.162C57.6748 6.162 57.2921 6.26933 56.9561 6.484C56.6201 6.68933 56.3588 6.97867 56.1721 7.352C55.9854 7.72533 55.8921 8.15467 55.8921 8.64C55.8921 9.15333 56.0414 9.55933 56.3401 9.858C56.6481 10.1567 57.0728 10.306 57.6141 10.306ZM70.5275 7.954H68.1055L67.6295 10.334H65.8095L66.2855 7.954H63.8635L64.1995 6.246H66.6215L67.0975 3.866H68.9175L68.4415 6.246H70.8635L70.5275 7.954ZM78.6728 10.152H82.7888L82.4248 12H75.0048L75.2988 10.53L79.7648 7.03C80.3062 6.59133 80.6795 6.22267 80.8848 5.924C81.0995 5.62533 81.2068 5.31267 81.2068 4.986C81.2068 4.65933 81.0808 4.398 80.8288 4.202C80.5862 4.006 80.2315 3.908 79.7648 3.908C79.3728 3.908 78.9948 3.99667 78.6308 4.174C78.2668 4.35133 77.9495 4.60333 77.6788 4.93L76.1528 3.824C76.5542 3.27333 77.1048 2.83933 77.8048 2.522C78.5048 2.19533 79.2702 2.032 80.1008 2.032C80.7822 2.032 81.3795 2.144 81.8928 2.368C82.4155 2.592 82.8168 2.90467 83.0968 3.306C83.3862 3.70733 83.5308 4.16 83.5308 4.664C83.5308 5.27067 83.3628 5.84 83.0268 6.372C82.6908 6.904 82.1075 7.492 81.2768 8.136L78.6728 10.152ZM87.7153 12.168C86.6233 12.168 85.76 11.8413 85.1253 11.188C84.4906 10.5253 84.1733 9.61533 84.1733 8.458C84.1733 7.282 84.388 6.204 84.8173 5.224C85.256 4.244 85.8626 3.46933 86.6373 2.9C87.412 2.32133 88.294 2.032 89.2833 2.032C90.3753 2.032 91.2386 2.36333 91.8733 3.026C92.508 3.67933 92.8253 4.58467 92.8253 5.742C92.8253 6.918 92.606 7.996 92.1673 8.976C91.738 9.956 91.136 10.7353 90.3613 11.314C89.5866 11.8833 88.7046 12.168 87.7153 12.168ZM87.9253 10.25C88.4666 10.25 88.9333 10.0167 89.3253 9.55C89.7266 9.08333 90.03 8.50467 90.2353 7.814C90.4406 7.114 90.5433 6.442 90.5433 5.798C90.5433 5.17267 90.4126 4.71067 90.1513 4.412C89.8993 4.104 89.54 3.95 89.0733 3.95C88.532 3.95 88.0606 4.18333 87.6593 4.65C87.2673 5.11667 86.9686 5.7 86.7633 6.4C86.558 7.09067 86.4553 7.758 86.4553 8.402C86.4553 9.02733 86.5813 9.494 86.8333 9.802C87.0946 10.1007 87.4586 10.25 87.9253 10.25ZM96.3095 10.152H100.426L100.062 12H92.6415L92.9355 10.53L97.4015 7.03C97.9429 6.59133 98.3162 6.22267 98.5215 5.924C98.7362 5.62533 98.8435 5.31267 98.8435 4.986C98.8435 4.65933 98.7175 4.398 98.4655 4.202C98.2229 4.006 97.8682 3.908 97.4015 3.908C97.0095 3.908 96.6315 3.99667 96.2675 4.174C95.9035 4.35133 95.5862 4.60333 95.3155 4.93L93.7895 3.824C94.1909 3.27333 94.7415 2.83933 95.4415 2.522C96.1415 2.19533 96.9069 2.032 97.7375 2.032C98.4189 2.032 99.0162 2.144 99.5295 2.368C100.052 2.592 100.454 2.90467 100.734 3.306C101.023 3.70733 101.168 4.16 101.168 4.664C101.168 5.27067 101 5.84 100.664 6.372C100.328 6.904 99.7442 7.492 98.9135 8.136L96.3095 10.152ZM106.723 2.2L104.763 12H102.495L104.091 4.02H102.131L102.495 2.2H106.723Z" fill="#961623"/>
</svg>
