<svg width="96" height="20" viewBox="0 0 96 20" fill="none" xmlns="http://www.w3.org/2000/svg">
<path d="M27.8719 2.18846L18.9919 18.9885H14.8399L13.3759 7.68446L7.3039 18.9885H3.1279L0.991902 2.18846H4.8319L6.3199 13.9965L12.6319 2.18846H16.2319L17.6719 14.0925L24.0079 2.18846H27.8719ZM29.2208 6.07646H32.9408L30.3728 18.9885H26.6528L29.2208 6.07646ZM31.7168 4.27646C31.0768 4.27646 30.5488 4.09246 30.1328 3.72446C29.7328 3.34046 29.5328 2.87646 29.5328 2.33246C29.5328 1.69246 29.7568 1.16446 30.2048 0.748463C30.6688 0.316463 31.2688 0.100463 32.0048 0.100463C32.6608 0.100463 33.1888 0.284463 33.5888 0.652463C34.0048 1.00446 34.2128 1.44446 34.2128 1.97246C34.2128 2.66046 33.9808 3.22046 33.5168 3.65246C33.0528 4.06846 32.4528 4.27646 31.7168 4.27646ZM43.9281 5.88446C45.3681 5.88446 46.5121 6.26846 47.3601 7.03646C48.2081 7.78846 48.6321 8.86846 48.6321 10.2765C48.6321 10.8045 48.5761 11.3245 48.4641 11.8365L47.0241 18.9885H43.2801L44.6721 12.0765C44.7361 11.8045 44.7681 11.5085 44.7681 11.1885C44.7681 10.5165 44.5841 10.0045 44.2161 9.65246C43.8481 9.30046 43.2961 9.12446 42.5601 9.12446C41.6001 9.12446 40.8001 9.40446 40.1601 9.96446C39.5361 10.5085 39.1121 11.3325 38.8881 12.4365L37.5921 18.9885H33.8481L36.4161 6.07646H39.9681L39.6801 7.46846C40.8321 6.41246 42.2481 5.88446 43.9281 5.88446ZM64.5985 11.5725C64.5985 12.1645 64.5265 12.8205 64.3825 13.5405H54.4945C54.6225 15.3005 55.7345 16.1805 57.8305 16.1805C58.4865 16.1805 59.1105 16.0765 59.7025 15.8685C60.3105 15.6605 60.8385 15.3645 61.2865 14.9805L62.8465 17.4525C62.1265 18.0285 61.3025 18.4605 60.3745 18.7485C59.4465 19.0365 58.4705 19.1805 57.4465 19.1805C56.1185 19.1805 54.9505 18.9485 53.9425 18.4845C52.9505 18.0045 52.1825 17.3245 51.6385 16.4445C51.1105 15.5645 50.8465 14.5485 50.8465 13.3965C50.8465 11.9725 51.1665 10.6925 51.8065 9.55646C52.4625 8.40446 53.3665 7.50846 54.5185 6.86846C55.6705 6.21246 56.9825 5.88446 58.4545 5.88446C59.7025 5.88446 60.7825 6.11646 61.6945 6.58046C62.6225 7.04446 63.3345 7.70846 63.8305 8.57246C64.3425 9.43646 64.5985 10.4365 64.5985 11.5725ZM58.2865 8.69246C57.4065 8.69246 56.6625 8.93246 56.0545 9.41246C55.4465 9.87646 55.0145 10.5245 54.7585 11.3565H61.1665C61.1665 10.5245 60.9025 9.87646 60.3745 9.41246C59.8625 8.93246 59.1665 8.69246 58.2865 8.69246ZM82.3328 1.18046L78.7808 18.9885H75.2288L75.4928 17.6925C74.4048 18.6845 73.0848 19.1805 71.5328 19.1805C70.5248 19.1805 69.5968 18.9485 68.7488 18.4845C67.9008 18.0205 67.2208 17.3565 66.7088 16.4925C66.2128 15.6125 65.9648 14.5805 65.9648 13.3965C65.9648 11.9725 66.2768 10.6925 66.9008 9.55646C67.5408 8.40446 68.4048 7.50846 69.4928 6.86846C70.5808 6.21246 71.7808 5.88446 73.0928 5.88446C74.0368 5.88446 74.8608 6.04446 75.5648 6.36446C76.2848 6.68446 76.8528 7.15646 77.2688 7.78046L78.5888 1.18046H82.3328ZM72.6848 16.0845C73.4208 16.0845 74.0768 15.9085 74.6528 15.5565C75.2288 15.1885 75.6768 14.6845 75.9968 14.0445C76.3168 13.4045 76.4768 12.6685 76.4768 11.8365C76.4768 10.9565 76.2128 10.2605 75.6848 9.74846C75.1728 9.23646 74.4528 8.98046 73.5248 8.98046C72.7888 8.98046 72.1328 9.16446 71.5568 9.53246C70.9808 9.88446 70.5328 10.3805 70.2128 11.0205C69.8928 11.6605 69.7328 12.3965 69.7328 13.2285C69.7328 14.1085 69.9888 14.8045 70.5008 15.3165C71.0288 15.8285 71.7568 16.0845 72.6848 16.0845ZM94.822 12.0525H90.67L89.854 16.1325H86.734L87.55 12.0525H83.398L83.974 9.12446H88.126L88.942 5.04446H92.062L91.246 9.12446H95.398L94.822 12.0525Z" fill="white"/>
</svg>
