<svg width="37" height="52" viewBox="0 0 37 52" fill="none" xmlns="http://www.w3.org/2000/svg">
<path d="M15 47C15 47.4608 14.96 47.8333 14.4992 47.8333H10.8333V51.4992C10.8333 51.9592 10.4608 52 10 52C9.53917 52 9.16667 51.9592 9.16667 51.4992V47.8333H5.50083C5.04083 47.8333 5 47.4608 5 47C5 46.5392 5.04083 46.1667 5.50083 46.1667H9.16667V42.5008C9.16667 42.04 9.53917 42 10 42C10.4608 42 10.8333 42.04 10.8333 42.5008V46.1667H14.4992C14.96 46.1667 15 46.5392 15 47Z" fill="#B42340"/>
<path d="M37 29C37 29.7373 36.936 30.3333 36.1987 30.3333H30.3333V36.1987C30.3333 36.9347 29.7373 37 29 37C28.2627 37 27.6667 36.9347 27.6667 36.1987V30.3333H21.8013C21.0653 30.3333 21 29.7373 21 29C21 28.2627 21.0653 27.6667 21.8013 27.6667H27.6667V21.8013C27.6667 21.064 28.2627 21 29 21C29.7373 21 30.3333 21.064 30.3333 21.8013V27.6667H36.1987C36.936 27.6667 37 28.2627 37 29Z" fill="#B42340"/>
<path d="M21 10.5C21 11.4677 20.916 12.25 19.9482 12.25H12.25V19.9482C12.25 20.9142 11.4677 21 10.5 21C9.53225 21 8.75 20.9142 8.75 19.9482V12.25H1.05175C0.0857497 12.25 0 11.4677 0 10.5C0 9.53225 0.0857497 8.75 1.05175 8.75H8.75V1.05175C8.75 0.0839998 9.53225 0 10.5 0C11.4677 0 12.25 0.0839998 12.25 1.05175V8.75H19.9482C20.916 8.75 21 9.53225 21 10.5Z" fill="#B42340"/>
</svg>
