<svg width="80" height="16" viewBox="0 0 80 16" fill="none" xmlns="http://www.w3.org/2000/svg">
<path d="M15.5731 6.24249H9.75798L7.95502 0.470581L6.15207 6.24249H0.336914L5.03475 9.81557L3.2318 15.5875L7.95502 12.0144L12.6529 15.5875L10.8499 9.81557L15.5731 6.24249Z" fill="#FFCE31"/>
<path d="M31.6091 6.24249H25.7939L23.9909 0.470581L22.188 6.24249H16.3728L21.0707 9.81557L19.2677 15.5875L23.9909 12.0144L28.6888 15.5875L26.8858 9.81557L31.6091 6.24249Z" fill="#FFCE31"/>
<path d="M47.6449 6.24249H41.8297L40.0268 0.470581L38.2238 6.24249H32.4087L37.1065 9.81557L35.3035 15.5875L40.0268 12.0144L44.7246 15.5875L42.9217 9.81557L47.6449 6.24249Z" fill="#FFCE31"/>
<path d="M63.681 6.24249H57.8658L56.0629 0.470581L54.2599 6.24249H48.4448L53.1426 9.81557L51.3397 15.5875L56.0629 12.0144L60.7607 15.5875L58.9578 9.81557L63.681 6.24249Z" fill="#FFCE31"/>
<path d="M79.7168 6.24249H73.9017L72.0987 0.470581L70.2958 6.24249H64.4806L69.1784 9.81557L67.3755 15.5875L72.0987 12.0144L76.7966 15.5875L74.9936 9.81557L79.7168 6.24249Z" fill="#FFCE31"/>
</svg>
