<svg width="80" height="16" viewBox="0 0 80 16" fill="none" xmlns="http://www.w3.org/2000/svg">
<path d="M15.2362 5.77191H9.42106L7.61811 0L5.81516 5.77191H0L4.69783 9.34499L2.89488 15.1169L7.61811 11.5438L12.3159 15.1169L10.513 9.34499L15.2362 5.77191Z" fill="#FFCE31"/>
<path d="M31.2721 5.77191H25.457L23.654 0L21.8511 5.77191H16.0359L20.7338 9.34499L18.9308 15.1169L23.654 11.5438L28.3519 15.1169L26.5489 9.34499L31.2721 5.77191Z" fill="#FFCE31"/>
<path d="M47.308 5.77191H41.4928L39.6899 0L37.8869 5.77191H32.0717L36.7696 9.34499L34.9666 15.1169L39.6899 11.5438L44.3877 15.1169L42.5847 9.34499L47.308 5.77191Z" fill="#FFCE31"/>
<path d="M63.3441 5.77191H57.5289L55.726 0L53.923 5.77191H48.1079L52.8057 9.34499L51.0027 15.1169L55.726 11.5438L60.4238 15.1169L58.6209 9.34499L63.3441 5.77191Z" fill="#FFCE31"/>
<path d="M79.3799 5.77191H73.5647L71.7618 0L69.9588 5.77191H64.1437L68.8415 9.34499L67.0386 15.1169L71.7618 11.5438L76.4596 15.1169L74.6567 9.34499L79.3799 5.77191Z" fill="#C7C7C7"/>
</svg>
