<svg width="231" height="30" viewBox="0 0 231 30" fill="none" xmlns="http://www.w3.org/2000/svg">
<path d="M0 0H196.388L231 30H33.8599L0 0Z" fill="#C4C4C4"/>
<path d="M48.77 10.918C48.77 10.2087 48.9053 9.54133 49.176 8.916C49.4467 8.28133 49.82 7.726 50.296 7.25C50.772 6.76467 51.3227 6.38667 51.948 6.116C52.5827 5.836 53.2593 5.696 53.978 5.696C54.6873 5.696 55.3547 5.836 55.98 6.116C56.6147 6.38667 57.17 6.76467 57.646 7.25C58.1313 7.726 58.5093 8.28133 58.78 8.916C59.06 9.54133 59.2 10.2087 59.2 10.918C59.2 11.6367 59.06 12.3087 58.78 12.934C58.5093 13.5593 58.1313 14.11 57.646 14.586C57.17 15.062 56.6147 15.4353 55.98 15.706C55.3547 15.9767 54.6873 16.112 53.978 16.112C53.2593 16.112 52.5827 15.9813 51.948 15.72C51.3227 15.4493 50.772 15.0807 50.296 14.614C49.82 14.138 49.4467 13.5873 49.176 12.962C48.9053 12.3273 48.77 11.646 48.77 10.918ZM50.45 10.918C50.45 11.59 50.6087 12.2013 50.926 12.752C51.2433 13.2933 51.668 13.7273 52.2 14.054C52.7413 14.3807 53.348 14.544 54.02 14.544C54.6733 14.544 55.2613 14.3807 55.784 14.054C56.316 13.7273 56.736 13.2933 57.044 12.752C57.3613 12.2013 57.52 11.59 57.52 10.918C57.52 10.2367 57.3613 9.62067 57.044 9.07C56.7267 8.51933 56.302 8.08067 55.77 7.754C55.238 7.42733 54.6407 7.264 53.978 7.264C53.3153 7.264 52.718 7.42733 52.186 7.754C51.654 8.08067 51.2293 8.524 50.912 9.084C50.604 9.63467 50.45 10.246 50.45 10.918ZM65.2309 10.918C65.2309 10.2087 65.3663 9.54133 65.6369 8.916C65.9076 8.28133 66.2809 7.726 66.7569 7.25C67.2329 6.76467 67.7836 6.38667 68.4089 6.116C69.0436 5.836 69.7203 5.696 70.4389 5.696C71.1483 5.696 71.8156 5.836 72.4409 6.116C73.0756 6.38667 73.6309 6.76467 74.1069 7.25C74.5923 7.726 74.9703 8.28133 75.2409 8.916C75.5209 9.54133 75.6609 10.2087 75.6609 10.918C75.6609 11.59 75.5349 12.2247 75.2829 12.822C75.0403 13.4193 74.7089 13.9467 74.2889 14.404H76.1369V16H71.5029C71.1483 16.0747 70.7936 16.112 70.4389 16.112C69.7203 16.112 69.0436 15.9813 68.4089 15.72C67.7836 15.4493 67.2329 15.076 66.7569 14.6C66.2809 14.124 65.9076 13.5733 65.6369 12.948C65.3663 12.3227 65.2309 11.646 65.2309 10.918ZM66.9109 10.918C66.9109 11.5807 67.0696 12.1873 67.3869 12.738C67.7043 13.2793 68.1289 13.7133 68.6609 14.04C69.2023 14.3667 69.8089 14.53 70.4809 14.53C71.1343 14.53 71.7223 14.3713 72.2449 14.054C72.7769 13.7273 73.1969 13.2933 73.5049 12.752C73.8223 12.2013 73.9809 11.59 73.9809 10.918C73.9809 10.2553 73.8223 9.65333 73.5049 9.112C73.1876 8.56133 72.7629 8.12267 72.2309 7.796C71.6989 7.46933 71.1016 7.306 70.4389 7.306C69.7763 7.306 69.1789 7.46933 68.6469 7.796C68.1149 8.12267 67.6903 8.56133 67.3729 9.112C67.0649 9.66267 66.9109 10.2647 66.9109 10.918ZM79.898 16.252C79.3567 16.252 78.9087 16.0887 78.554 15.762C78.1993 15.426 78.0127 14.9967 77.994 14.474V10.078H79.562V13.914C79.5807 14.2127 79.6647 14.4553 79.814 14.642C79.9633 14.8193 80.2013 14.908 80.528 14.908C80.9947 14.908 81.3773 14.698 81.676 14.278C81.9747 13.858 82.124 13.3307 82.124 12.696V10.078H83.692V16H82.278L82.166 14.95C81.9793 15.3327 81.6853 15.6453 81.284 15.888C80.8827 16.1307 80.4207 16.252 79.898 16.252ZM88.6833 16.154C87.9833 16.154 87.386 16.0187 86.8913 15.748C86.3967 15.4773 86.0187 15.104 85.7573 14.628C85.496 14.1427 85.3653 13.5967 85.3653 12.99C85.3653 12.402 85.5147 11.87 85.8133 11.394C86.112 10.9087 86.5133 10.526 87.0173 10.246C87.5213 9.95667 88.086 9.812 88.7113 9.812C89.5233 9.812 90.1907 10.05 90.7133 10.526C91.2453 10.9927 91.6 11.6553 91.7773 12.514L87.2273 14.054C87.5633 14.558 88.058 14.81 88.7113 14.81C88.954 14.81 89.1827 14.768 89.3973 14.684C89.6213 14.6 89.836 14.488 90.0413 14.348L90.7553 15.51C90.438 15.706 90.0973 15.8647 89.7333 15.986C89.3693 16.098 89.0193 16.154 88.6833 16.154ZM86.9053 12.906C86.9053 12.9807 86.91 13.06 86.9193 13.144L90.0273 12.038C89.9153 11.7767 89.7473 11.548 89.5233 11.352C89.2993 11.1467 88.9867 11.044 88.5853 11.044C88.0907 11.044 87.6847 11.2167 87.3673 11.562C87.0593 11.9073 86.9053 12.3553 86.9053 12.906ZM100.633 16.154C99.9326 16.154 99.3352 16.0187 98.8406 15.748C98.3459 15.4773 97.9679 15.104 97.7066 14.628C97.4452 14.1427 97.3146 13.5967 97.3146 12.99C97.3146 12.402 97.4639 11.87 97.7626 11.394C98.0612 10.9087 98.4626 10.526 98.9666 10.246C99.4706 9.95667 100.035 9.812 100.661 9.812C101.473 9.812 102.14 10.05 102.663 10.526C103.195 10.9927 103.549 11.6553 103.727 12.514L99.1766 14.054C99.5126 14.558 100.007 14.81 100.661 14.81C100.903 14.81 101.132 14.768 101.347 14.684C101.571 14.6 101.785 14.488 101.991 14.348L102.705 15.51C102.387 15.706 102.047 15.8647 101.683 15.986C101.319 16.098 100.969 16.154 100.633 16.154ZM98.8546 12.906C98.8546 12.9807 98.8592 13.06 98.8686 13.144L101.977 12.038C101.865 11.7767 101.697 11.548 101.473 11.352C101.249 11.1467 100.936 11.044 100.535 11.044C100.04 11.044 99.6339 11.2167 99.3166 11.562C99.0086 11.9073 98.8546 12.3553 98.8546 12.906ZM102.383 7.138L100.493 9.014H99.5126L100.647 7.138H102.383ZM112.246 16.154C111.686 16.154 111.182 16.0373 110.734 15.804C110.286 15.5707 109.926 15.2253 109.656 14.768C109.394 14.3107 109.264 13.7367 109.264 13.046C109.264 12.374 109.399 11.8 109.67 11.324C109.95 10.8387 110.314 10.4653 110.762 10.204C111.219 9.94267 111.714 9.812 112.246 9.812C112.796 9.812 113.24 9.91933 113.576 10.134C113.921 10.3393 114.196 10.5867 114.402 10.876L114.514 10.078H115.956V16H114.388V15.132C114.285 15.2533 114.136 15.3933 113.94 15.552C113.744 15.7107 113.501 15.8507 113.212 15.972C112.932 16.0933 112.61 16.154 112.246 16.154ZM112.68 14.866C113.1 14.866 113.459 14.754 113.758 14.53C114.056 14.306 114.266 13.998 114.388 13.606V12.318C114.276 11.954 114.061 11.66 113.744 11.436C113.426 11.212 113.053 11.1 112.624 11.1C112.297 11.1 111.998 11.1793 111.728 11.338C111.466 11.4873 111.252 11.7067 111.084 11.996C110.925 12.276 110.846 12.598 110.846 12.962C110.846 13.3167 110.93 13.6387 111.098 13.928C111.266 14.2173 111.485 14.446 111.756 14.614C112.036 14.782 112.344 14.866 112.68 14.866ZM122.045 5.864H123.949L126.329 12.668L128.009 8.342L127.043 5.864H128.653L131.271 12.472L133.455 5.864H135.205L131.229 16.448L128.821 10.386L126.119 16.476L122.045 5.864ZM136.687 10.078H138.255V16H136.687V10.078ZM136.617 7.964C136.617 7.72133 136.711 7.52067 136.897 7.362C137.093 7.20333 137.303 7.124 137.527 7.124C137.742 7.124 137.943 7.20333 138.129 7.362C138.316 7.52067 138.409 7.72133 138.409 7.964C138.409 8.20667 138.316 8.40733 138.129 8.566C137.943 8.71533 137.742 8.79 137.527 8.79C137.303 8.79 137.093 8.71533 136.897 8.566C136.711 8.40733 136.617 8.20667 136.617 7.964ZM141.82 10.078L141.932 11.142C142.137 10.7407 142.441 10.4233 142.842 10.19C143.243 9.94733 143.719 9.826 144.27 9.826C144.821 9.826 145.278 9.994 145.642 10.33C146.015 10.6567 146.207 11.0813 146.216 11.604V16H144.648V12.164C144.629 11.8653 144.541 11.6273 144.382 11.45C144.233 11.2633 143.985 11.1653 143.64 11.156C143.155 11.156 142.753 11.366 142.436 11.786C142.128 12.1967 141.974 12.724 141.974 13.368V16H140.406V10.078H141.82ZM151.205 16.154C150.505 16.154 149.907 16.0187 149.413 15.748C148.918 15.4773 148.54 15.104 148.279 14.628C148.017 14.1427 147.887 13.5967 147.887 12.99C147.887 12.402 148.036 11.87 148.335 11.394C148.633 10.9087 149.035 10.526 149.539 10.246C150.043 9.95667 150.607 9.812 151.233 9.812C152.045 9.812 152.712 10.05 153.235 10.526C153.767 10.9927 154.121 11.6553 154.299 12.514L149.749 14.054C150.085 14.558 150.579 14.81 151.233 14.81C151.475 14.81 151.704 14.768 151.919 14.684C152.143 14.6 152.357 14.488 152.563 14.348L153.277 15.51C152.959 15.706 152.619 15.8647 152.255 15.986C151.891 16.098 151.541 16.154 151.205 16.154ZM149.427 12.906C149.427 12.9807 149.431 13.06 149.441 13.144L152.549 12.038C152.437 11.7767 152.269 11.548 152.045 11.352C151.821 11.1467 151.508 11.044 151.107 11.044C150.612 11.044 150.206 11.2167 149.889 11.562C149.581 11.9073 149.427 12.3553 149.427 12.906ZM158.264 16.154C157.704 16.154 157.204 16.0233 156.766 15.762C156.327 15.5007 155.982 15.132 155.73 14.656C155.478 14.1707 155.352 13.6013 155.352 12.948C155.352 12.2853 155.487 11.7207 155.758 11.254C156.028 10.7873 156.397 10.4327 156.864 10.19C157.33 9.938 157.862 9.812 158.46 9.812C158.889 9.812 159.295 9.896 159.678 10.064C160.07 10.2227 160.378 10.442 160.602 10.722V5.08H162.156V16H160.588V15.202C160.298 15.482 159.958 15.7107 159.566 15.888C159.183 16.0653 158.749 16.154 158.264 16.154ZM158.768 14.824C159.225 14.824 159.608 14.712 159.916 14.488C160.233 14.264 160.457 13.9513 160.588 13.55V12.29C160.476 11.926 160.252 11.6273 159.916 11.394C159.589 11.1607 159.206 11.044 158.768 11.044C158.432 11.044 158.124 11.128 157.844 11.296C157.573 11.4547 157.354 11.674 157.186 11.954C157.018 12.234 156.934 12.556 156.934 12.92C156.934 13.2747 157.018 13.5967 157.186 13.886C157.354 14.1753 157.573 14.404 157.844 14.572C158.124 14.74 158.432 14.824 158.768 14.824ZM170.791 10.162H172.219V12.038H174.067V13.41H172.219V15.272H170.791V13.41H168.957V12.038H170.791V10.162ZM177.647 13.34V12.514C177.647 12.0567 177.708 11.6833 177.829 11.394C177.951 11.1047 178.105 10.862 178.291 10.666C178.478 10.4607 178.669 10.2647 178.865 10.078C179.145 9.84467 179.388 9.602 179.593 9.35C179.799 9.098 179.901 8.76667 179.901 8.356C179.901 7.964 179.761 7.64667 179.481 7.404C179.211 7.16133 178.917 7.04 178.599 7.04C178.161 7.04 177.806 7.18467 177.535 7.474C177.274 7.754 177.078 8.07133 176.947 8.426L175.645 7.824C175.711 7.63733 175.818 7.418 175.967 7.166C176.117 6.914 176.313 6.66667 176.555 6.424C176.807 6.18133 177.115 5.98067 177.479 5.822C177.843 5.66333 178.268 5.584 178.753 5.584C179.285 5.59333 179.761 5.696 180.181 5.892C180.601 6.07867 180.937 6.368 181.189 6.76C181.441 7.14267 181.567 7.628 181.567 8.216C181.567 8.692 181.502 9.084 181.371 9.392C181.241 9.7 181.068 9.966 180.853 10.19C180.648 10.414 180.438 10.6287 180.223 10.834C180.037 11.002 179.869 11.1747 179.719 11.352C179.57 11.52 179.449 11.7253 179.355 11.968C179.262 12.2013 179.215 12.5047 179.215 12.878V13.34H177.647ZM178.445 16.042C178.165 16.042 177.932 15.9673 177.745 15.818C177.568 15.6593 177.479 15.454 177.479 15.202C177.479 14.9593 177.568 14.754 177.745 14.586C177.932 14.418 178.165 14.334 178.445 14.334C178.716 14.334 178.94 14.418 179.117 14.586C179.295 14.754 179.383 14.9593 179.383 15.202C179.383 15.454 179.295 15.6593 179.117 15.818C178.94 15.9673 178.716 16.042 178.445 16.042Z" fill="black"/>
</svg>
