<svg width="199" height="22" viewBox="0 0 199 22" fill="none" xmlns="http://www.w3.org/2000/svg">
<path d="M9.582 21.078C7.88333 21.078 6.332 20.6707 4.928 19.856C3.54133 19.0413 2.44067 17.932 1.626 16.528C0.828667 15.124 0.43 13.5813 0.43 11.9C0.43 10.2187 0.828667 8.676 1.626 7.272C2.44067 5.868 3.55 4.75867 4.954 3.944C6.358 3.12933 7.918 2.722 9.634 2.722C11.35 2.722 12.9013 3.12067 14.288 3.918C15.692 4.71533 16.7927 5.816 17.59 7.22C18.3873 8.60667 18.786 10.1493 18.786 11.848C18.786 13.5467 18.3787 15.1067 17.564 16.528C16.7493 17.932 15.64 19.0413 14.236 19.856C12.832 20.6707 11.2807 21.078 9.582 21.078ZM9.582 19.388C10.9687 19.388 12.2253 19.0587 13.352 18.4C14.496 17.724 15.3887 16.814 16.03 15.67C16.6887 14.5087 17.018 13.2347 17.018 11.848C17.018 10.444 16.6973 9.17867 16.056 8.052C15.432 6.92533 14.5567 6.04133 13.43 5.4C12.3033 4.74133 11.038 4.412 9.634 4.412C8.23 4.412 6.96467 4.74133 5.838 5.4C4.71133 6.05867 3.82733 6.96 3.186 8.104C2.54467 9.248 2.224 10.5133 2.224 11.9C2.224 13.2867 2.54467 14.552 3.186 15.696C3.82733 16.84 4.70267 17.7413 5.812 18.4C6.93867 19.0587 8.19533 19.388 9.582 19.388ZM9.92 17.152C8.86267 17.152 7.90933 16.9267 7.06 16.476C6.228 16.0253 5.56933 15.4013 5.084 14.604C4.616 13.8067 4.382 12.9053 4.382 11.9C4.382 10.8947 4.616 9.99333 5.084 9.196C5.56933 8.39867 6.228 7.77467 7.06 7.324C7.90933 6.87333 8.86267 6.648 9.92 6.648C10.9427 6.648 11.844 6.87333 12.624 7.324C13.4213 7.75733 14.002 8.35533 14.366 9.118L12.026 10.496C11.558 9.68133 10.8473 9.274 9.894 9.274C9.20067 9.274 8.61133 9.51667 8.126 10.002C7.658 10.47 7.424 11.1027 7.424 11.9C7.424 12.6973 7.658 13.3387 8.126 13.824C8.61133 14.292 9.20067 14.526 9.894 14.526C10.8473 14.526 11.558 14.1187 12.026 13.304L14.366 14.656C14.002 15.436 13.4213 16.0513 12.624 16.502C11.844 16.9353 10.9427 17.152 9.92 17.152ZM58.7053 2.8L49.0853 21H44.5873L43.0013 8.754L36.4233 21H31.8993L29.5853 2.8H33.7453L35.3573 15.592L42.1953 2.8H46.0953L47.6553 15.696L54.5193 2.8H58.7053ZM60.1666 7.012H64.1966L61.4146 21H57.3846L60.1666 7.012ZM62.8706 5.062C62.1773 5.062 61.6053 4.86267 61.1546 4.464C60.7213 4.048 60.5046 3.54533 60.5046 2.956C60.5046 2.26267 60.7473 1.69067 61.2326 1.24C61.7353 0.771999 62.3853 0.537998 63.1826 0.537998C63.8933 0.537998 64.4653 0.737332 64.8986 1.136C65.3493 1.51733 65.5746 1.994 65.5746 2.566C65.5746 3.31133 65.3233 3.918 64.8206 4.386C64.318 4.83667 63.668 5.062 62.8706 5.062ZM76.0995 6.804C77.6595 6.804 78.8989 7.22 79.8175 8.052C80.7362 8.86667 81.1955 10.0367 81.1955 11.562C81.1955 12.134 81.1349 12.6973 81.0135 13.252L79.4535 21H75.3975L76.9055 13.512C76.9749 13.2173 77.0095 12.8967 77.0095 12.55C77.0095 11.822 76.8102 11.2673 76.4115 10.886C76.0129 10.5047 75.4149 10.314 74.6175 10.314C73.5775 10.314 72.7109 10.6173 72.0175 11.224C71.3415 11.8133 70.8822 12.706 70.6395 13.902L69.2355 21H65.1795L67.9615 7.012H71.8095L71.4975 8.52C72.7455 7.376 74.2795 6.804 76.0995 6.804ZM98.4925 12.966C98.4925 13.6073 98.4145 14.318 98.2585 15.098H87.5465C87.6851 17.0047 88.8898 17.958 91.1605 17.958C91.8711 17.958 92.5471 17.8453 93.1885 17.62C93.8471 17.3947 94.4191 17.074 94.9045 16.658L96.5945 19.336C95.8145 19.96 94.9218 20.428 93.9165 20.74C92.9111 21.052 91.8538 21.208 90.7445 21.208C89.3058 21.208 88.0405 20.9567 86.9485 20.454C85.8738 19.934 85.0418 19.1973 84.4525 18.244C83.8805 17.2907 83.5945 16.19 83.5945 14.942C83.5945 13.3993 83.9411 12.0127 84.6345 10.782C85.3451 9.534 86.3245 8.56333 87.5725 7.87C88.8205 7.15933 90.2418 6.804 91.8365 6.804C93.1885 6.804 94.3585 7.05533 95.3465 7.558C96.3518 8.06067 97.1231 8.78 97.6605 9.716C98.2151 10.652 98.4925 11.7353 98.4925 12.966ZM91.6545 9.846C90.7011 9.846 89.8951 10.106 89.2365 10.626C88.5778 11.1287 88.1098 11.8307 87.8325 12.732H94.7745C94.7745 11.8307 94.4885 11.1287 93.9165 10.626C93.3618 10.106 92.6078 9.846 91.6545 9.846ZM117.705 1.708L113.857 21H110.009L110.295 19.596C109.116 20.6707 107.686 21.208 106.005 21.208C104.913 21.208 103.907 20.9567 102.989 20.454C102.07 19.9513 101.333 19.232 100.779 18.296C100.241 17.3427 99.9726 16.2247 99.9726 14.942C99.9726 13.3993 100.311 12.0127 100.987 10.782C101.68 9.534 102.616 8.56333 103.795 7.87C104.973 7.15933 106.273 6.804 107.695 6.804C108.717 6.804 109.61 6.97733 110.373 7.324C111.153 7.67067 111.768 8.182 112.219 8.858L113.649 1.708H117.705ZM107.253 17.854C108.05 17.854 108.761 17.6633 109.385 17.282C110.009 16.8833 110.494 16.3373 110.841 15.644C111.187 14.9507 111.361 14.1533 111.361 13.252C111.361 12.2987 111.075 11.5447 110.503 10.99C109.948 10.4353 109.168 10.158 108.163 10.158C107.365 10.158 106.655 10.3573 106.031 10.756C105.407 11.1373 104.921 11.6747 104.575 12.368C104.228 13.0613 104.055 13.8587 104.055 14.76C104.055 15.7133 104.332 16.4673 104.887 17.022C105.459 17.5767 106.247 17.854 107.253 17.854ZM131.235 13.486H126.737L125.853 17.906H122.473L123.357 13.486H118.859L119.483 10.314H123.981L124.865 5.894H128.245L127.361 10.314H131.859L131.235 13.486ZM146.362 17.568H154.006L153.33 21H139.55L140.096 18.27L148.39 11.77C149.395 10.9553 150.088 10.2707 150.47 9.716C150.868 9.16133 151.068 8.58067 151.068 7.974C151.068 7.36733 150.834 6.882 150.366 6.518C149.915 6.154 149.256 5.972 148.39 5.972C147.662 5.972 146.96 6.13667 146.284 6.466C145.608 6.79533 145.018 7.26333 144.516 7.87L141.682 5.816C142.427 4.79333 143.45 3.98733 144.75 3.398C146.05 2.79133 147.471 2.488 149.014 2.488C150.279 2.488 151.388 2.696 152.342 3.112C153.312 3.528 154.058 4.10867 154.578 4.854C155.115 5.59933 155.384 6.44 155.384 7.376C155.384 8.50267 155.072 9.56 154.448 10.548C153.824 11.536 152.74 12.628 151.198 13.824L146.362 17.568ZM163.155 21.312C161.127 21.312 159.524 20.7053 158.345 19.492C157.166 18.2613 156.577 16.5713 156.577 14.422C156.577 12.238 156.976 10.236 157.773 8.416C158.588 6.596 159.714 5.15733 161.153 4.1C162.592 3.02533 164.23 2.488 166.067 2.488C168.095 2.488 169.698 3.10333 170.877 4.334C172.056 5.54733 172.645 7.22867 172.645 9.378C172.645 11.562 172.238 13.564 171.423 15.384C170.626 17.204 169.508 18.6513 168.069 19.726C166.63 20.7833 164.992 21.312 163.155 21.312ZM163.545 17.75C164.55 17.75 165.417 17.3167 166.145 16.45C166.89 15.5833 167.454 14.5087 167.835 13.226C168.216 11.926 168.407 10.678 168.407 9.482C168.407 8.32067 168.164 7.46267 167.679 6.908C167.211 6.336 166.544 6.05 165.677 6.05C164.672 6.05 163.796 6.48333 163.051 7.35C162.323 8.21667 161.768 9.3 161.387 10.6C161.006 11.8827 160.815 13.122 160.815 14.318C160.815 15.4793 161.049 16.346 161.517 16.918C162.002 17.4727 162.678 17.75 163.545 17.75ZM179.116 17.568H186.76L186.084 21H172.304L172.85 18.27L181.144 11.77C182.149 10.9553 182.842 10.2707 183.224 9.716C183.622 9.16133 183.822 8.58067 183.822 7.974C183.822 7.36733 183.588 6.882 183.12 6.518C182.669 6.154 182.01 5.972 181.144 5.972C180.416 5.972 179.714 6.13667 179.038 6.466C178.362 6.79533 177.772 7.26333 177.27 7.87L174.436 5.816C175.181 4.79333 176.204 3.98733 177.504 3.398C178.804 2.79133 180.225 2.488 181.768 2.488C183.033 2.488 184.142 2.696 185.096 3.112C186.066 3.528 186.812 4.10867 187.332 4.854C187.869 5.59933 188.138 6.44 188.138 7.376C188.138 8.50267 187.826 9.56 187.202 10.548C186.578 11.536 185.494 12.628 183.952 13.824L179.116 17.568ZM198.456 2.8L194.816 21H190.604L193.568 6.18H189.928L190.604 2.8H198.456Z" fill="#E6AAAE"/>
</svg>
