<svg width="140" height="40" viewBox="0 0 140 40" fill="none" xmlns="http://www.w3.org/2000/svg">
<g filter="url(#filter0_dd)">
<rect width="132" height="32" fill="#EC414B"/>
<path d="M20.47 17.89C20.39 17.9567 20.24 18.0467 20.02 18.16C19.8067 18.2733 19.5433 18.3733 19.23 18.46C18.9167 18.5467 18.57 18.5867 18.19 18.58C17.61 18.5667 17.09 18.4633 16.63 18.27C16.1767 18.07 15.79 17.8 15.47 17.46C15.1567 17.12 14.9167 16.73 14.75 16.29C14.5833 15.85 14.5 15.38 14.5 14.88C14.5 14.1333 14.65 13.4733 14.95 12.9C15.25 12.3267 15.6667 11.8767 16.2 11.55C16.74 11.2233 17.3667 11.06 18.08 11.06C18.5733 11.06 19.01 11.1267 19.39 11.26C19.77 11.3933 20.08 11.5367 20.32 11.69L19.75 13.06C19.5833 12.9333 19.36 12.8033 19.08 12.67C18.8067 12.53 18.49 12.46 18.13 12.46C17.7567 12.46 17.4067 12.5633 17.08 12.77C16.76 12.9767 16.5 13.2567 16.3 13.61C16.1067 13.9567 16.01 14.3533 16.01 14.8C16.01 15.2733 16.1 15.69 16.28 16.05C16.46 16.4033 16.7167 16.68 17.05 16.88C17.3833 17.08 17.7733 17.18 18.22 17.18C18.6133 17.18 18.95 17.1167 19.23 16.99C19.51 16.8633 19.7233 16.73 19.87 16.59L20.47 17.89ZM25.1527 11.14C26.0793 11.14 26.7893 11.3667 27.2827 11.82C27.7827 12.2667 28.0327 12.8667 28.0327 13.62C28.0327 14.04 27.9427 14.4533 27.7627 14.86C27.5893 15.2667 27.2927 15.59 26.8727 15.83L28.5827 18.5H26.8927L25.3427 16.16H24.3727V18.5H22.9227V11.14H25.1527ZM25.4027 14.76C25.696 14.76 25.9227 14.7 26.0827 14.58C26.2493 14.4533 26.366 14.3067 26.4327 14.14C26.4993 13.9667 26.5327 13.81 26.5327 13.67C26.5327 13.59 26.5193 13.49 26.4927 13.37C26.4727 13.2433 26.426 13.1167 26.3527 12.99C26.2793 12.8633 26.166 12.7567 26.0127 12.67C25.866 12.5833 25.666 12.54 25.4127 12.54H24.3727V14.76H25.4027ZM30.7781 11.14H32.2281V18.5H30.7781V11.14ZM34.2977 18.5L37.6177 10.85H37.6977L41.0177 18.5H39.3377L38.7677 17.06H36.3277L35.7277 18.5H34.2977ZM36.8377 15.84H38.2877L37.5777 14.05L36.8377 15.84ZM45.3206 11.14C46.2473 11.14 46.9573 11.3667 47.4506 11.82C47.9506 12.2667 48.2006 12.8667 48.2006 13.62C48.2006 14.04 48.1106 14.4533 47.9306 14.86C47.7573 15.2667 47.4606 15.59 47.0406 15.83L48.7506 18.5H47.0606L45.5106 16.16H44.5406V18.5H43.0906V11.14H45.3206ZM45.5706 14.76C45.864 14.76 46.0906 14.7 46.2506 14.58C46.4173 14.4533 46.534 14.3067 46.6006 14.14C46.6673 13.9667 46.7006 13.81 46.7006 13.67C46.7006 13.59 46.6873 13.49 46.6606 13.37C46.6406 13.2433 46.594 13.1167 46.5206 12.99C46.4473 12.8633 46.334 12.7567 46.1806 12.67C46.034 12.5833 45.834 12.54 45.5806 12.54H44.5406V14.76H45.5706ZM60.718 17.89C60.638 17.9567 60.488 18.0467 60.268 18.16C60.0547 18.2733 59.7914 18.3733 59.478 18.46C59.1647 18.5467 58.818 18.5867 58.438 18.58C57.858 18.5667 57.338 18.4633 56.878 18.27C56.4247 18.07 56.038 17.8 55.718 17.46C55.4047 17.12 55.1647 16.73 54.998 16.29C54.8314 15.85 54.748 15.38 54.748 14.88C54.748 14.1333 54.898 13.4733 55.198 12.9C55.498 12.3267 55.9147 11.8767 56.448 11.55C56.988 11.2233 57.6147 11.06 58.328 11.06C58.8214 11.06 59.258 11.1267 59.638 11.26C60.018 11.3933 60.328 11.5367 60.568 11.69L59.998 13.06C59.8314 12.9333 59.608 12.8033 59.328 12.67C59.0547 12.53 58.738 12.46 58.378 12.46C58.0047 12.46 57.6547 12.5633 57.328 12.77C57.008 12.9767 56.748 13.2567 56.548 13.61C56.3547 13.9567 56.258 14.3533 56.258 14.8C56.258 15.2733 56.348 15.69 56.528 16.05C56.708 16.4033 56.9647 16.68 57.298 16.88C57.6314 17.08 58.0214 17.18 58.468 17.18C58.8614 17.18 59.198 17.1167 59.478 16.99C59.758 16.8633 59.9714 16.73 60.118 16.59L60.718 17.89ZM62.7207 14.83C62.7207 14.3233 62.8174 13.8433 63.0107 13.39C63.204 12.9367 63.4707 12.5367 63.8107 12.19C64.1574 11.8367 64.5574 11.56 65.0107 11.36C65.464 11.16 65.9507 11.06 66.4707 11.06C66.984 11.06 67.4674 11.16 67.9207 11.36C68.374 11.56 68.774 11.8367 69.1207 12.19C69.474 12.5367 69.7474 12.9367 69.9407 13.39C70.1407 13.8433 70.2407 14.3233 70.2407 14.83C70.2407 15.35 70.1407 15.8367 69.9407 16.29C69.7474 16.7433 69.474 17.1433 69.1207 17.49C68.774 17.83 68.374 18.0967 67.9207 18.29C67.4674 18.4833 66.984 18.58 66.4707 18.58C65.9507 18.58 65.464 18.4833 65.0107 18.29C64.5574 18.0967 64.1574 17.83 63.8107 17.49C63.4707 17.1433 63.204 16.7433 63.0107 16.29C62.8174 15.8367 62.7207 15.35 62.7207 14.83ZM64.2207 14.83C64.2207 15.2633 64.3207 15.66 64.5207 16.02C64.7274 16.3733 65.004 16.6567 65.3507 16.87C65.6974 17.0767 66.0874 17.18 66.5207 17.18C66.9407 17.18 67.3174 17.0767 67.6507 16.87C67.9907 16.6567 68.2574 16.3733 68.4507 16.02C68.644 15.66 68.7407 15.2633 68.7407 14.83C68.7407 14.3833 68.6407 13.9833 68.4407 13.63C68.2407 13.27 67.9707 12.9867 67.6307 12.78C67.2907 12.5667 66.9074 12.46 66.4807 12.46C66.054 12.46 65.6707 12.5667 65.3307 12.78C64.9907 12.9867 64.7207 13.27 64.5207 13.63C64.3207 13.9833 64.2207 14.3833 64.2207 14.83ZM79.2763 18.8L74.1263 14.15L74.1563 18.5H72.6863V10.85H72.7463L77.8863 15.57L77.8563 11.14H79.3163V18.8H79.2763ZM82.2117 11.14H86.8117V12.54H83.6617V14.21H86.3917V15.61H83.6617V18.5H82.2117V11.14ZM91.4378 11.14C92.3645 11.14 93.0745 11.3667 93.5678 11.82C94.0678 12.2667 94.3178 12.8667 94.3178 13.62C94.3178 14.04 94.2278 14.4533 94.0478 14.86C93.8745 15.2667 93.5778 15.59 93.1578 15.83L94.8678 18.5H93.1778L91.6278 16.16H90.6578V18.5H89.2078V11.14H91.4378ZM91.6878 14.76C91.9811 14.76 92.2078 14.7 92.3678 14.58C92.5345 14.4533 92.6511 14.3067 92.7178 14.14C92.7845 13.9667 92.8178 13.81 92.8178 13.67C92.8178 13.59 92.8045 13.49 92.7778 13.37C92.7578 13.2433 92.7111 13.1167 92.6378 12.99C92.5645 12.8633 92.4511 12.7567 92.2978 12.67C92.1511 12.5833 91.9511 12.54 91.6978 12.54H90.6578V14.76H91.6878ZM96.2333 18.5L99.5533 10.85H99.6333L102.953 18.5H101.273L100.703 17.06H98.2633L97.6633 18.5H96.2333ZM98.7733 15.84H100.223L99.5133 14.05L98.7733 15.84ZM107.256 11.14C108.183 11.14 108.893 11.3667 109.386 11.82C109.886 12.2667 110.136 12.8667 110.136 13.62C110.136 14.04 110.046 14.4533 109.866 14.86C109.693 15.2667 109.396 15.59 108.976 15.83L110.686 18.5H108.996L107.446 16.16H106.476V18.5H105.026V11.14H107.256ZM107.506 14.76C107.8 14.76 108.026 14.7 108.186 14.58C108.353 14.4533 108.47 14.3067 108.536 14.14C108.603 13.9667 108.636 13.81 108.636 13.67C108.636 13.59 108.623 13.49 108.596 13.37C108.576 13.2433 108.53 13.1167 108.456 12.99C108.383 12.8633 108.27 12.7567 108.116 12.67C107.97 12.5833 107.77 12.54 107.516 12.54H106.476V14.76H107.506ZM112.882 11.14H114.332V18.5H112.882V11.14ZM116.401 18.5L119.721 10.85H119.801L123.121 18.5H121.441L120.871 17.06H118.431L117.831 18.5H116.401ZM118.941 15.84H120.391L119.681 14.05L118.941 15.84Z" fill="white"/>
</g>
<defs>
<filter id="filter0_dd" x="0" y="0" width="140" height="40" filterUnits="userSpaceOnUse" color-interpolation-filters="sRGB">
<feFlood flood-opacity="0" result="BackgroundImageFix"/>
<feColorMatrix in="SourceAlpha" type="matrix" values="0 0 0 0 0 0 0 0 0 0 0 0 0 0 0 0 0 0 127 0"/>
<feOffset dx="8" dy="8"/>
<feColorMatrix type="matrix" values="0 0 0 0 0.961818 0 0 0 0 0.680479 0 0 0 0 0.618182 0 0 0 1 0"/>
<feBlend mode="normal" in2="BackgroundImageFix" result="effect1_dropShadow"/>
<feColorMatrix in="SourceAlpha" type="matrix" values="0 0 0 0 0 0 0 0 0 0 0 0 0 0 0 0 0 0 127 0"/>
<feOffset dx="4" dy="4"/>
<feColorMatrix type="matrix" values="0 0 0 0 0.943636 0 0 0 0 0.528325 0 0 0 0 0.436364 0 0 0 1 0"/>
<feBlend mode="normal" in2="effect1_dropShadow" result="effect2_dropShadow"/>
<feBlend mode="normal" in="SourceGraphic" in2="effect2_dropShadow" result="shape"/>
</filter>
</defs>
</svg>
