<svg width="20" height="20" viewBox="0 0 20 20" fill="none" xmlns="http://www.w3.org/2000/svg">
<path d="M18.7508 0.318726H1.08685C0.662048 0.318726 0.318848 0.661926 0.318848 1.08673V18.7507C0.318848 19.1755 0.662048 19.5187 1.08685 19.5187H18.7508C19.1756 19.5187 19.5188 19.1755 19.5188 18.7507V1.08673C19.5188 0.661926 19.1756 0.318726 18.7508 0.318726ZM16.5332 5.92273H14.9996C13.7972 5.92273 13.5644 6.49393 13.5644 7.33393V9.18433H16.4348L16.0604 12.0811H13.5644V19.5187H10.5716V12.0835H8.06845V9.18433H10.5716V7.04833C10.5716 4.56913 12.086 3.21793 14.2988 3.21793C15.3596 3.21793 16.2692 3.29713 16.5356 3.33313V5.92273H16.5332Z" fill="white"/>
</svg>
