<svg width="139" height="40" viewBox="0 0 139 40" fill="none" xmlns="http://www.w3.org/2000/svg">
<path d="M70.472 8.2L61.592 25H57.44L55.976 13.696L49.904 25H45.728L43.592 8.2H47.432L48.92 20.008L55.232 8.2H58.832L60.272 20.104L66.608 8.2H70.472ZM71.8209 12.088H75.5409L72.9729 25H69.2529L71.8209 12.088ZM74.3169 10.288C73.6769 10.288 73.1489 10.104 72.7329 9.736C72.3329 9.352 72.1329 8.888 72.1329 8.344C72.1329 7.704 72.3569 7.176 72.8049 6.76C73.2689 6.328 73.8689 6.112 74.6049 6.112C75.2609 6.112 75.7889 6.296 76.1889 6.664C76.6049 7.016 76.8129 7.456 76.8129 7.984C76.8129 8.672 76.5809 9.232 76.1169 9.664C75.6529 10.08 75.0529 10.288 74.3169 10.288ZM86.5282 11.896C87.9682 11.896 89.1122 12.28 89.9602 13.048C90.8082 13.8 91.2322 14.88 91.2322 16.288C91.2322 16.816 91.1762 17.336 91.0642 17.848L89.6242 25H85.8802L87.2722 18.088C87.3362 17.816 87.3682 17.52 87.3682 17.2C87.3682 16.528 87.1842 16.016 86.8162 15.664C86.4482 15.312 85.8962 15.136 85.1602 15.136C84.2002 15.136 83.4002 15.416 82.7602 15.976C82.1362 16.52 81.7122 17.344 81.4882 18.448L80.1922 25H76.4482L79.0162 12.088H82.5682L82.2802 13.48C83.4322 12.424 84.8482 11.896 86.5282 11.896ZM107.199 17.584C107.199 18.176 107.127 18.832 106.983 19.552H97.0946C97.2226 21.312 98.3346 22.192 100.431 22.192C101.087 22.192 101.711 22.088 102.303 21.88C102.911 21.672 103.439 21.376 103.887 20.992L105.447 23.464C104.727 24.04 103.903 24.472 102.975 24.76C102.047 25.048 101.071 25.192 100.047 25.192C98.7186 25.192 97.5506 24.96 96.5426 24.496C95.5506 24.016 94.7826 23.336 94.2386 22.456C93.7106 21.576 93.4466 20.56 93.4466 19.408C93.4466 17.984 93.7666 16.704 94.4066 15.568C95.0626 14.416 95.9666 13.52 97.1186 12.88C98.2706 12.224 99.5826 11.896 101.055 11.896C102.303 11.896 103.383 12.128 104.295 12.592C105.223 13.056 105.935 13.72 106.431 14.584C106.943 15.448 107.199 16.448 107.199 17.584ZM100.887 14.704C100.007 14.704 99.2626 14.944 98.6546 15.424C98.0466 15.888 97.6146 16.536 97.3586 17.368H103.767C103.767 16.536 103.503 15.888 102.975 15.424C102.463 14.944 101.767 14.704 100.887 14.704ZM124.933 7.192L121.381 25H117.829L118.093 23.704C117.005 24.696 115.685 25.192 114.133 25.192C113.125 25.192 112.197 24.96 111.349 24.496C110.501 24.032 109.821 23.368 109.309 22.504C108.813 21.624 108.565 20.592 108.565 19.408C108.565 17.984 108.877 16.704 109.501 15.568C110.141 14.416 111.005 13.52 112.093 12.88C113.181 12.224 114.381 11.896 115.693 11.896C116.637 11.896 117.461 12.056 118.165 12.376C118.885 12.696 119.453 13.168 119.869 13.792L121.189 7.192H124.933ZM115.285 22.096C116.021 22.096 116.677 21.92 117.253 21.568C117.829 21.2 118.277 20.696 118.597 20.056C118.917 19.416 119.077 18.68 119.077 17.848C119.077 16.968 118.813 16.272 118.285 15.76C117.773 15.248 117.053 14.992 116.125 14.992C115.389 14.992 114.733 15.176 114.157 15.544C113.581 15.896 113.133 16.392 112.813 17.032C112.493 17.672 112.333 18.408 112.333 19.24C112.333 20.12 112.589 20.816 113.101 21.328C113.629 21.84 114.357 22.096 115.285 22.096ZM137.422 18.064H133.27L132.454 22.144H129.334L130.15 18.064H125.998L126.574 15.136H130.726L131.542 11.056H134.662L133.846 15.136H137.998L137.422 18.064Z" fill="white"/>
<g clip-path="url(#clip0)" filter="url(#filter0_d)">
<path d="M30.4146 18.0176C28.4797 20.0821 26.2565 21.3542 23.745 21.8338C21.2335 22.3135 19.0396 21.9068 17.1633 20.6139L12.1501 25.9629L14.73 28.7155C15.0818 29.0909 15.2577 29.5445 15.2577 30.0762C15.2577 30.608 15.0818 31.0616 14.73 31.437C14.3782 31.8123 13.9531 32 13.4547 32C12.9563 32 12.5312 31.8123 12.1794 31.437L4.52771 23.304C4.1759 22.9286 4 22.4751 4 21.9433C4 21.4115 4.1759 20.958 4.52771 20.5826C4.87951 20.2072 5.30461 20.0196 5.803 20.0196C6.30139 20.0196 6.72648 20.2072 7.07829 20.5826L9.65818 23.3353L14.6714 17.9863C13.4792 15.9844 13.1029 13.6435 13.5427 10.9638C13.9824 8.28413 15.1698 5.91202 17.1047 3.84751C19.1374 1.69958 21.4827 0.417074 24.1408 0C25.2939 1.20951 26.4177 2.39818 27.5122 3.56598C28.6067 4.73379 29.7794 5.99022 31.0303 7.33529C32.2811 8.68035 33.2779 9.7491 34.0206 10.5415C33.6297 13.3776 32.4277 15.8697 30.4146 18.0176ZM23.7597 2.12708C21.9029 2.60671 20.2514 3.61812 18.8051 5.16129C17.8865 6.14141 17.1633 7.22581 16.6356 8.41447C16.1079 9.60313 15.805 10.8022 15.7268 12.0117H31.7046C31.8609 11.5529 31.9684 11.1984 32.0271 10.9482L23.7597 2.12708Z" fill="white"/>
</g>
<defs>
<filter id="filter0_d" x="0" y="0" width="38.0206" height="40" filterUnits="userSpaceOnUse" color-interpolation-filters="sRGB">
<feFlood flood-opacity="0" result="BackgroundImageFix"/>
<feColorMatrix in="SourceAlpha" type="matrix" values="0 0 0 0 0 0 0 0 0 0 0 0 0 0 0 0 0 0 127 0"/>
<feOffset dy="4"/>
<feGaussianBlur stdDeviation="2"/>
<feColorMatrix type="matrix" values="0 0 0 0 0 0 0 0 0 0 0 0 0 0 0 0 0 0 0.25 0"/>
<feBlend mode="normal" in2="BackgroundImageFix" result="effect1_dropShadow"/>
<feBlend mode="normal" in="SourceGraphic" in2="effect1_dropShadow" result="shape"/>
</filter>
<clipPath id="clip0">
<rect width="30.0206" height="32" fill="white" transform="translate(4)"/>
</clipPath>
</defs>
</svg>
