<svg width="48" height="8" viewBox="0 0 48 8" fill="none" xmlns="http://www.w3.org/2000/svg">
<path d="M4 7.19073C6.20914 7.19073 8 5.58103 8 3.59537C8 1.6097 6.20914 0 4 0C1.79086 0 0 1.6097 0 3.59537C0 5.58103 1.79086 7.19073 4 7.19073Z" fill="#596980"/>
<path d="M3.9998 6.47156C5.76711 6.47156 7.1998 5.1838 7.1998 3.59528C7.1998 2.00675 5.76711 0.718994 3.9998 0.718994C2.23249 0.718994 0.799805 2.00675 0.799805 3.59528C0.799805 5.1838 2.23249 6.47156 3.9998 6.47156Z" fill="#26A88A"/>
<path d="M24 7.19073C26.2091 7.19073 28 5.58103 28 3.59537C28 1.6097 26.2091 0 24 0C21.7909 0 20 1.6097 20 3.59537C20 5.58103 21.7909 7.19073 24 7.19073Z" fill="#596980"/>
<path d="M24.0003 6.47156C25.7676 6.47156 27.2003 5.1838 27.2003 3.59528C27.2003 2.00675 25.7676 0.718994 24.0003 0.718994C22.233 0.718994 20.8003 2.00675 20.8003 3.59528C20.8003 5.1838 22.233 6.47156 24.0003 6.47156Z" fill="#CCD5E3"/>
<path d="M44 7.19073C46.2091 7.19073 48 5.58103 48 3.59537C48 1.6097 46.2091 0 44 0C41.7909 0 40 1.6097 40 3.59537C40 5.58103 41.7909 7.19073 44 7.19073Z" fill="#596980"/>
<path d="M43.9998 6.47156C45.7671 6.47156 47.1998 5.1838 47.1998 3.59528C47.1998 2.00675 45.7671 0.718994 43.9998 0.718994C42.2325 0.718994 40.7998 2.00675 40.7998 3.59528C40.7998 5.1838 42.2325 6.47156 43.9998 6.47156Z" fill="#CCD5E3"/>
</svg>
