<svg width="80" height="80" viewBox="0 0 80 80" fill="none" xmlns="http://www.w3.org/2000/svg">
<path d="M40.2218 77.6615C19.3972 77.6615 2.5603 60.8246 2.5603 40C2.5603 19.1754 19.3972 2.33844 40.2218 2.33844C61.0465 2.33844 77.8834 19.1754 77.8834 40C77.8834 60.8246 60.8249 77.6615 40.2218 77.6615ZM40.2218 6.76921C21.8341 6.76921 6.99107 21.6123 6.99107 40C6.99107 58.3877 21.8341 73.2308 40.2218 73.2308C58.6095 73.2308 73.4526 58.3877 73.4526 40C73.4526 21.6123 58.388 6.76921 40.2218 6.76921Z" fill="white"/>
<path d="M18.5111 67.2493L14.5234 65.477C15.6311 62.8185 19.1757 61.2678 22.9419 59.4955C26.7081 57.7231 31.3604 55.7293 31.3604 53.2924V49.9693C30.0311 48.8616 27.8157 46.4247 27.3727 42.8801C26.265 41.7724 24.4927 39.7785 24.4927 37.1201C24.4927 35.5693 25.1573 34.2401 25.6004 33.3539C25.1573 31.5816 24.7142 28.2585 24.7142 25.6001C24.7142 16.9601 30.6957 11.2001 40.2219 11.2001C42.8804 11.2001 46.2034 11.8647 47.9758 13.8585C52.185 14.7447 55.7296 19.6185 55.7296 25.6001C55.7296 29.3662 55.065 32.4678 54.6219 34.0185C55.065 34.6831 55.5081 35.7908 55.5081 37.1201C55.5081 40.0001 53.9573 41.9939 52.6281 42.8801C52.185 46.4247 50.1911 48.6401 48.8619 49.7478V53.2924C48.8619 55.2862 52.8496 56.837 56.3942 58.1662C60.6035 59.717 65.0342 61.4893 66.585 65.0339L62.3758 66.5847C61.7111 64.8124 58.1665 63.4831 54.8434 62.3755C49.9696 60.6031 44.4311 58.6093 44.4311 53.5139V47.7539L45.5388 47.0893C45.5388 47.0893 48.1973 45.317 48.1973 41.7724V40.2216L49.5265 39.557C49.7481 39.557 50.8558 38.8924 50.8558 37.1201C50.8558 36.677 50.4127 36.0124 50.1911 35.7908L49.305 34.9047L49.7481 33.797C49.7481 33.797 50.8558 30.2524 50.8558 25.8216C50.8558 21.6124 48.4188 18.5108 46.425 18.5108H45.0958L44.4311 17.4032C44.4311 16.517 42.8804 15.6308 40.2219 15.6308C33.3542 15.6308 29.145 19.397 29.145 25.6001C29.145 28.4801 30.2527 33.3539 30.2527 33.3539L30.4742 34.4616L29.5881 35.5693C29.3665 35.5693 28.9234 36.2339 28.9234 37.1201C28.9234 38.2278 30.2527 39.557 30.9173 40.0001L31.8034 40.6647V41.7724C31.8034 45.0955 34.6834 46.8678 34.6834 47.0893L35.7911 47.7539V53.5139C35.7911 58.8308 30.0311 61.4893 24.7142 63.7047C22.2773 64.5908 18.9542 66.1416 18.5111 67.2493Z" fill="white"/>
</svg>
