<svg width="2160" height="720" viewBox="0 0 2160 720" fill="none" xmlns="http://www.w3.org/2000/svg">
<rect width="2160" height="720" fill="#E5E5E5"/>
<path d="M1248.75 247.5C1247.81 247.266 1246.52 247.09 1244.88 246.973C1243.24 246.855 1240.08 246.855 1235.39 246.973C1230.7 247.09 1226.07 247.617 1221.5 248.555C1216.93 249.492 1211.78 251.426 1206.04 254.355C1200.29 257.285 1195.08 261.094 1190.39 265.781L1145.04 311.484C1142.7 313.594 1139.88 314.648 1136.6 314.648C1133.32 314.648 1130.51 313.535 1128.16 311.309C1125.82 309.082 1124.65 306.328 1124.65 303.047C1124.65 299.766 1125.82 296.953 1128.16 294.609C1134.73 288.281 1142.46 280.664 1151.37 271.758C1148.79 266.602 1147.5 258.516 1147.5 247.5C1147.5 242.344 1148.61 237.598 1150.84 233.262C1153.07 228.926 1155.53 225.527 1158.22 223.066C1160.92 220.605 1163.5 217.559 1165.96 213.926C1168.42 210.293 1169.77 206.484 1170 202.5C1170 201.328 1169.18 199.16 1167.54 195.996C1165.9 192.832 1164.08 189.551 1162.09 186.152C1160.1 182.754 1158.98 180.703 1158.75 180C1168.12 180 1177.97 184.805 1188.28 194.414C1198.59 204.023 1203.75 214.219 1203.75 225C1203.75 226.406 1203.4 228.867 1202.7 232.383C1209.73 230.039 1217.05 228.223 1224.67 226.934C1232.29 225.645 1238.2 225 1242.42 225H1248.75C1252.03 225 1254.73 225.996 1256.84 227.988C1258.95 229.98 1260 232.734 1260 236.25C1260 240 1258.95 242.812 1256.84 244.688C1254.73 246.563 1252.03 247.5 1248.75 247.5ZM1080 337.5C1067.58 337.5 1056.97 333.105 1048.18 324.316C1039.39 315.527 1035 304.922 1035 292.5C1035 280.078 1039.39 269.473 1048.18 260.684C1056.97 251.895 1067.58 247.5 1080 247.5C1092.42 247.5 1103.03 251.895 1111.82 260.684C1120.61 269.473 1125 280.078 1125 292.5C1125 304.922 1120.61 315.527 1111.82 324.316C1103.03 333.105 1092.42 337.5 1080 337.5ZM990 360C977.578 360 966.973 355.605 958.184 346.816C949.395 338.027 945 327.422 945 315C945 302.578 949.395 291.973 958.184 283.184C966.973 274.395 977.578 270 990 270C1002.42 270 1013.03 274.395 1021.82 283.184C1030.61 291.973 1035 302.578 1035 315C1035 327.422 1030.61 338.027 1021.82 346.816C1013.03 355.605 1002.42 360 990 360ZM1012.5 405C1012.5 417.422 1008.11 428.027 999.316 436.816C990.527 445.605 979.922 450 967.5 450C955.078 450 944.473 445.605 935.684 436.816C926.895 428.027 922.5 417.422 922.5 405C922.5 392.578 926.895 381.973 935.684 373.184C944.473 364.395 955.078 360 967.5 360C979.922 360 990.527 364.395 999.316 373.184C1008.11 381.973 1012.5 392.578 1012.5 405ZM990 495C990 507.422 985.605 518.027 976.816 526.816C968.027 535.605 957.422 540 945 540C932.578 540 921.973 535.605 913.184 526.816C904.395 518.027 900 507.422 900 495C900 482.578 904.395 471.973 913.184 463.184C921.973 454.395 932.578 450 945 450C957.422 450 968.027 454.395 976.816 463.184C985.605 471.973 990 482.578 990 495ZM1035 427.5C1047.42 427.5 1058.03 431.895 1066.82 440.684C1075.61 449.473 1080 460.078 1080 472.5C1080 484.922 1075.61 495.527 1066.82 504.316C1058.03 513.105 1047.42 517.5 1035 517.5C1022.58 517.5 1011.97 513.105 1003.18 504.316C994.395 495.527 990 484.922 990 472.5C990 460.078 994.395 449.473 1003.18 440.684C1011.97 431.895 1022.58 427.5 1035 427.5ZM1125 405C1137.42 405 1148.03 409.395 1156.82 418.184C1165.61 426.973 1170 437.578 1170 450C1170 462.422 1165.61 473.027 1156.82 481.816C1148.03 490.605 1137.42 495 1125 495C1112.58 495 1101.97 490.605 1093.18 481.816C1084.39 473.027 1080 462.422 1080 450C1080 437.578 1084.39 426.973 1093.18 418.184C1101.97 409.395 1112.58 405 1125 405ZM1057.5 427.5C1045.08 427.5 1034.47 423.105 1025.68 414.316C1016.89 405.527 1012.5 394.922 1012.5 382.5C1012.5 370.078 1016.89 359.473 1025.68 350.684C1034.47 341.895 1045.08 337.5 1057.5 337.5C1069.92 337.5 1080.53 341.895 1089.32 350.684C1098.11 359.473 1102.5 370.078 1102.5 382.5C1102.5 394.922 1098.11 405.527 1089.32 414.316C1080.53 423.105 1069.92 427.5 1057.5 427.5ZM1102.5 360C1102.5 347.578 1106.89 336.973 1115.68 328.184C1124.47 319.395 1135.08 315 1147.5 315C1159.92 315 1170.53 319.395 1179.32 328.184C1188.11 336.973 1192.5 347.578 1192.5 360C1192.5 372.422 1188.11 383.027 1179.32 391.816C1170.53 400.605 1159.92 405 1147.5 405C1135.08 405 1124.47 400.605 1115.68 391.816C1106.89 383.027 1102.5 372.422 1102.5 360Z" fill="#808080"/>
</svg>
