<svg width="35" height="35" viewBox="0 0 35 35" fill="none" xmlns="http://www.w3.org/2000/svg">
<rect x="2.18772" y="2.18726" width="30.625" height="30.625" fill="#43A047"/>
<path d="M32.3936 0H2.60638C1.91537 0.000788379 1.25288 0.275642 0.764263 0.764263C0.275642 1.25288 0.000788379 1.91537 0 2.60638V32.3936C0.000788379 33.0846 0.275642 33.7471 0.764263 34.2357C1.25288 34.7244 1.91537 34.9992 2.60638 35H30.5678L30.571 35.0002L30.576 35H32.3936C33.0846 34.9992 33.7471 34.7244 34.2357 34.2357C34.7244 33.7471 34.9992 33.0846 35 32.3936V2.60638C34.9992 1.91537 34.7244 1.25288 34.2357 0.764263C33.7471 0.275642 33.0846 0.000788379 32.3936 0ZM11.1702 16.0106C11.1702 14.7587 11.5414 13.5349 12.237 12.494C12.9325 11.4531 13.9211 10.6418 15.0777 10.1627C16.2343 9.68359 17.507 9.55824 18.7349 9.80247C19.9627 10.0467 21.0906 10.6496 21.9758 11.5348C22.8611 12.42 23.4639 13.5479 23.7082 14.7758C23.9524 16.0036 23.827 17.2763 23.348 18.4329C22.8689 19.5896 22.0576 20.5781 21.0166 21.2737C19.9757 21.9692 18.7519 22.3404 17.5 22.3404C15.8218 22.3385 14.2129 21.671 13.0263 20.4843C11.8396 19.2977 11.1721 17.6888 11.1702 16.0106ZM5.91463 32.766C6.67648 30.6231 8.01466 28.7318 9.78194 27.3004C11.9675 25.5365 14.6914 24.5744 17.5 24.5744C20.3086 24.5744 23.0325 25.5365 25.2181 27.3004C26.9853 28.7318 28.3235 30.6231 29.0854 32.766H5.91463ZM32.766 32.3936C32.7659 32.4923 32.7266 32.587 32.6568 32.6568C32.587 32.7266 32.4923 32.7659 32.3936 32.766H31.4315C30.7797 30.5437 29.605 28.5099 28.0056 26.835C26.4062 25.1601 24.4288 23.8928 22.239 23.1393C23.7709 22.1215 24.9345 20.6376 25.5575 18.9072C26.1805 17.1768 26.2299 15.2917 25.6984 13.531C25.1668 11.7704 24.0825 10.2276 22.606 9.131C21.1295 8.03443 19.3392 7.44233 17.5 7.44233C15.6608 7.44233 13.8705 8.03443 12.394 9.131C10.9175 10.2276 9.8332 11.7704 9.30165 13.531C8.77009 15.2917 8.81948 17.1768 9.44251 18.9072C10.0655 20.6376 11.2291 22.1215 12.761 23.1393C10.5712 23.8928 8.59375 25.1601 6.99438 26.835C5.395 28.5099 4.22025 30.5437 3.56851 32.766H2.60638C2.50766 32.7659 2.41301 32.7266 2.34321 32.6568C2.2734 32.587 2.23414 32.4923 2.23404 32.3936V2.60638C2.23414 2.50766 2.2734 2.41301 2.34321 2.34321C2.41301 2.2734 2.50766 2.23414 2.60638 2.23404H32.3936C32.4923 2.23414 32.587 2.2734 32.6568 2.34321C32.7266 2.41301 32.7659 2.50766 32.766 2.60638V32.3936Z" fill="black"/>
</svg>
