<svg width="1440" height="720" viewBox="0 0 1440 720" fill="none" xmlns="http://www.w3.org/2000/svg">
<rect width="1440" height="720" fill="#E5E5E5"/>
<path d="M624.936 304.312C629.998 349.312 671.061 388.125 719.998 388.125C772.873 388.125 816.186 343.125 816.186 294.187V293.062C761.061 285.75 691.873 325.687 624.936 304.312Z" fill="#808080"/>
<path opacity="0.8" d="M843.75 294.75C843.75 230.625 811.688 191.25 811.688 191.25H628.312C628.312 191.25 596.25 231.187 596.25 294.75C596.25 355.5 648.562 412.313 713.812 415.688C713.25 451.125 709.875 487.688 701.438 500.625C689.063 518.625 646.312 509.625 646.312 528.75H793.687C793.687 509.625 750.938 518.625 738.562 500.625C730.125 487.688 726.75 451.125 726.187 415.688C791.438 412.313 843.75 356.062 843.75 294.75ZM720 401.062C664.875 401.062 619.313 357.188 613.688 307.125C613.125 303.75 613.125 299.813 613.125 296.438C613.125 240.75 640.687 207 640.687 207H799.312C799.312 207 826.312 240.75 826.875 295.312V296.438C826.875 350.438 779.062 401.062 720 401.062Z" fill="#808080"/>
</svg>
