<svg width="183" height="179" viewBox="0 0 183 179" fill="none" xmlns="http://www.w3.org/2000/svg">
<path d="M127.361 173.681C126.162 173.811 124.915 173.952 123.896 174.551C122.876 175.149 122.167 176.359 122.583 177.382C123.112 178.68 124.919 179 126.42 179C129.704 178.943 132.967 178.505 136.133 177.698C137.568 177.358 139.095 176.917 139.983 175.821C140.324 175.396 140.543 174.793 140.228 174.349C139.826 173.774 138.916 173.879 138.18 174.021C134.491 174.738 130.664 174.58 127.059 173.56" fill="#F5F5F5"/>
<path d="M68.913 36.9811H5.01809V75.8187H68.913V36.9811Z" fill="#E0E0E0"/>
<path d="M66.6597 38.5707H7.24057V74.0835H66.6597V38.5707Z" fill="#FAFAFA"/>
<path d="M46.639 51.5138H27.257V61.2859H46.639V51.5138Z" fill="#E0E0E0"/>
<path d="M177.719 3.37329H103.267V127.021H177.719V3.37329Z" fill="#EBEBEB"/>
<path d="M173.978 6.95691H106.242V123.336H173.978V6.95691Z" fill="#FAFAFA"/>
<path d="M173.974 8.32808L106.242 87.9852V6.95691H173.974V8.32808Z" fill="#F5F5F5"/>
<path d="M175.448 40.4353H106.242V41.673H175.448V40.4353Z" fill="#EBEBEB"/>
<path d="M175.448 68.1498H106.242V69.3875H175.448V68.1498Z" fill="#EBEBEB"/>
<path d="M175.448 95.8644H106.242V97.1021H175.448V95.8644Z" fill="#EBEBEB"/>
<path d="M138.399 41.0582V126.637H141.821V41.0582H138.399Z" fill="#EBEBEB"/>
<path d="M120.833 6.95691H119.284V41.0541H120.833V6.95691Z" fill="#EBEBEB"/>
<path d="M134.204 6.95691H132.655V41.0541H134.204V6.95691Z" fill="#EBEBEB"/>
<path d="M147.574 6.95691H146.025V41.0541H147.574V6.95691Z" fill="#EBEBEB"/>
<path d="M160.944 6.95691H159.396V41.0541H160.944V6.95691Z" fill="#EBEBEB"/>
<path d="M103.267 1.27405H100.117V127.781H103.267V1.27405Z" fill="#E0E0E0"/>
<path d="M180.865 128.133L177.719 127.021V1.27808H180.865V128.133Z" fill="#E0E0E0"/>
<path d="M180.865 0H100.117V3.37331H180.865V0Z" fill="#E0E0E0"/>
<path d="M182.995 128.55H97.8809V131.693H182.995V128.55Z" fill="#E0E0E0"/>
<path d="M177.719 127.021L183 128.55H97.8809L103.267 127.021H177.719Z" fill="#EBEBEB"/>
<path d="M180.471 161.215C180.471 161.272 140.071 161.32 90.2421 161.32C40.4134 161.32 0 161.272 0 161.215C0 161.159 40.3959 161.11 90.2421 161.11C140.088 161.11 180.471 161.159 180.471 161.215Z" fill="#263238"/>
<path d="M163.697 129.035C161.159 129.326 150.051 128.922 150.051 128.922L145.815 129.44L143.68 119.393C146.489 118.749 151.766 116.751 152.431 116.133C153.077 115.584 153.654 114.969 154.15 114.3C154.756 113.456 155.236 112.541 155.576 111.578C155.795 110.668 157.073 110.454 157.431 111.214C157.79 111.975 157.265 114.49 155.331 116.901C153.398 119.312 160.582 118.114 162.384 117.71C162.697 117.864 162.969 118.08 163.18 118.343C163.391 118.607 163.536 118.91 163.605 119.232C163.673 119.553 163.663 119.885 163.575 120.202C163.487 120.52 163.324 120.815 163.097 121.067L162.634 121.601L163.697 129.035Z" fill="#FFBE9D"/>
<path d="M153.905 126.402C153.861 126.402 153.774 126.135 153.468 125.751C153.054 125.235 152.453 124.873 151.774 124.732L151.394 124.659L151.722 124.457C152.188 124.168 152.597 123.807 152.929 123.389C153.576 122.572 153.94 121.593 153.975 120.582C154.014 119.805 153.835 119.328 153.901 119.316C154.136 119.701 154.25 120.14 154.229 120.582C154.264 121.66 153.905 122.717 153.209 123.583C152.854 124.033 152.409 124.417 151.897 124.711L151.844 124.436C152.214 124.52 152.561 124.67 152.868 124.879C153.174 125.087 153.433 125.349 153.629 125.65C153.914 126.087 153.936 126.402 153.905 126.402Z" fill="#EB996E"/>
<path d="M157.751 111.841L157.147 121.067C156.894 123.466 156.027 125.774 154.618 127.802C154.439 128.049 154.245 128.287 154.036 128.513C152.833 129.788 151.849 132.012 151.849 135.05V161.203C152.142 161.256 167.162 161.292 167.499 161.203V135.224C167.499 135.224 167.84 131.317 165.464 128.683C163.789 126.831 162.581 124.618 162.459 121.112C162.393 119.174 162.074 111.809 162.074 111.809L157.751 111.841Z" fill="#FF725E"/>
<path opacity="0.2" d="M157.751 111.841L157.147 121.067C156.894 123.466 156.027 125.774 154.618 127.802C154.439 128.049 154.245 128.287 154.036 128.513C152.833 129.788 151.849 132.012 151.849 135.05V161.203C152.142 161.256 167.162 161.292 167.499 161.203V135.224C167.499 135.224 167.84 131.317 165.464 128.683C163.789 126.831 162.581 124.618 162.459 121.112C162.393 119.174 162.074 111.809 162.074 111.809L157.751 111.841Z" fill="black"/>
<path d="M167.477 135.843H155.528V151.237H167.477V135.843Z" fill="#EBEBEB"/>
<g opacity="0.3">
<path opacity="0.3" d="M157.703 121.549C157.575 121.716 157.492 121.908 157.46 122.111C157.428 122.313 157.448 122.52 157.519 122.713C157.592 122.907 157.714 123.082 157.876 123.223C158.037 123.363 158.233 123.466 158.447 123.522C158.205 123.723 158.026 123.979 157.927 124.264C157.828 124.55 157.812 124.855 157.882 125.147C157.952 125.44 158.105 125.711 158.325 125.931C158.544 126.151 158.823 126.314 159.133 126.402C158.969 126.738 158.941 127.117 159.053 127.47C159.165 127.823 159.411 128.128 159.746 128.328C160.09 128.513 160.477 128.622 160.875 128.645C161.273 128.669 161.672 128.605 162.039 128.461C162.759 128.167 163.408 127.742 163.946 127.211L164.064 127.09L163.509 125.941L162.515 119.097L157.703 121.549Z" fill="black"/>
</g>
<path d="M162.38 117.864C160.778 118.557 159.337 119.531 158.136 120.731C157.698 121.168 157.261 121.739 157.449 122.309C157.637 122.879 158.403 123.174 159.05 123.065C159.687 122.906 160.271 122.602 160.748 122.179C161.26 121.795 162.498 120.8 162.555 120.909C161.378 121.763 160.273 122.698 159.247 123.704C158.831 124.08 158.394 124.55 158.473 125.083C158.573 125.775 159.785 126.046 160.35 125.589C160.914 125.132 162.292 124.137 162.292 124.137C162.402 124.157 160.402 125.755 159.93 126.564C159.693 126.968 159.553 127.527 159.93 127.814C160.306 128.101 160.936 127.814 161.347 127.51L163.25 126.115C163.669 125.873 163.98 125.5 164.125 125.063C164.213 124.614 163.802 123.421 163.355 123.611C163.857 123.25 164.195 122.727 164.3 122.147C164.3 121.459 163.688 120.861 163.067 120.934" fill="#FFBE9D"/>
<path d="M160.166 145.255C160.272 145.243 160.38 145.26 160.476 145.303C160.754 145.406 160.986 145.593 161.133 145.833C161.252 146.011 161.317 146.215 161.322 146.424C161.326 146.634 161.27 146.84 161.159 147.022C161.019 147.246 160.812 147.428 160.563 147.545C160.313 147.662 160.033 147.709 159.755 147.682C159.48 147.634 159.226 147.513 159.025 147.333C158.825 147.153 158.686 146.923 158.626 146.67C158.576 146.466 158.586 146.253 158.656 146.053C158.727 145.854 158.853 145.676 159.024 145.538C159.242 145.349 159.523 145.235 159.82 145.214C159.927 145.198 160.036 145.211 160.135 145.251C160.135 145.251 160.021 145.251 159.833 145.295C159.568 145.345 159.326 145.467 159.138 145.647C158.998 145.771 158.896 145.927 158.842 146.098C158.787 146.27 158.782 146.452 158.827 146.626C158.874 146.841 158.991 147.038 159.163 147.189C159.335 147.341 159.553 147.44 159.788 147.472C160.022 147.505 160.262 147.47 160.475 147.372C160.687 147.274 160.862 147.118 160.975 146.925C161.072 146.769 161.123 146.593 161.123 146.414C161.123 146.234 161.072 146.058 160.975 145.902C160.85 145.681 160.658 145.499 160.424 145.376C160.271 145.295 160.161 145.275 160.166 145.255Z" fill="#263238"/>
<path d="M159.956 142.86C160.064 142.849 160.173 142.866 160.271 142.909C160.549 143.011 160.78 143.198 160.927 143.439C161.043 143.618 161.104 143.824 161.104 144.033C161.104 144.242 161.043 144.448 160.927 144.628C160.796 144.858 160.591 145.045 160.34 145.163C160.088 145.28 159.804 145.323 159.525 145.284C159.247 145.245 158.988 145.127 158.786 144.947C158.583 144.766 158.446 144.532 158.394 144.276C158.345 144.072 158.357 143.859 158.428 143.661C158.499 143.462 158.626 143.285 158.797 143.147C159.011 142.956 159.291 142.841 159.588 142.82C159.695 142.802 159.805 142.815 159.903 142.856C159.903 142.876 159.79 142.856 159.602 142.901C159.337 142.95 159.094 143.073 158.906 143.253C158.767 143.377 158.665 143.532 158.612 143.704C158.558 143.876 158.554 144.058 158.6 144.231C158.646 144.447 158.763 144.643 158.935 144.795C159.107 144.946 159.325 145.045 159.56 145.078C159.795 145.111 160.035 145.076 160.248 144.978C160.46 144.88 160.635 144.724 160.748 144.531C160.843 144.375 160.894 144.2 160.894 144.021C160.894 143.842 160.843 143.667 160.748 143.511C160.626 143.287 160.432 143.104 160.192 142.986C160.061 142.901 159.952 142.88 159.956 142.86Z" fill="#263238"/>
<path d="M162.27 143.831C162.27 143.831 162.388 143.831 162.581 143.879C162.858 143.981 163.089 144.166 163.237 144.405C163.356 144.584 163.421 144.789 163.426 144.999C163.431 145.208 163.375 145.415 163.263 145.598C163.132 145.829 162.927 146.016 162.676 146.133C162.425 146.251 162.14 146.293 161.862 146.255C161.583 146.216 161.325 146.098 161.122 145.917C160.919 145.737 160.782 145.502 160.73 145.247C160.681 145.042 160.692 144.829 160.762 144.63C160.832 144.431 160.958 144.252 161.128 144.114C161.348 143.927 161.627 143.812 161.925 143.786C162.13 143.786 162.24 143.815 162.24 143.827C162.14 143.845 162.039 143.859 161.938 143.867C161.673 143.921 161.431 144.044 161.242 144.223C161.102 144.347 161 144.503 160.947 144.675C160.893 144.846 160.889 145.028 160.936 145.202C160.982 145.417 161.1 145.614 161.271 145.766C161.443 145.917 161.662 146.016 161.896 146.049C162.131 146.081 162.371 146.046 162.584 145.948C162.796 145.85 162.971 145.694 163.084 145.501C163.18 145.345 163.23 145.169 163.23 144.99C163.23 144.81 163.18 144.634 163.084 144.478C162.96 144.257 162.768 144.074 162.533 143.952C162.443 143.916 162.356 143.875 162.27 143.831Z" fill="#263238"/>
<path d="M162.065 141.42C162.065 141.42 162.183 141.4 162.375 141.469C162.652 141.57 162.884 141.756 163.032 141.995C163.151 142.172 163.216 142.377 163.221 142.586C163.225 142.795 163.169 143.001 163.058 143.184C162.927 143.414 162.722 143.601 162.471 143.719C162.22 143.837 161.936 143.879 161.658 143.841C161.379 143.803 161.121 143.686 160.918 143.506C160.715 143.325 160.577 143.091 160.525 142.836C160.475 142.631 160.486 142.418 160.556 142.219C160.626 142.02 160.753 141.842 160.923 141.703C161.142 141.516 161.422 141.401 161.719 141.376C161.929 141.376 162.038 141.404 162.034 141.416C161.934 141.435 161.834 141.448 161.732 141.457C161.467 141.506 161.225 141.629 161.036 141.809C160.897 141.933 160.795 142.09 160.741 142.262C160.687 142.435 160.684 142.617 160.73 142.791C160.786 143.002 160.906 143.194 161.076 143.344C161.245 143.493 161.458 143.595 161.688 143.637C161.923 143.659 162.159 143.619 162.37 143.521C162.58 143.424 162.757 143.273 162.878 143.087C162.974 142.931 163.025 142.756 163.025 142.577C163.025 142.398 162.974 142.223 162.878 142.067C162.758 141.844 162.565 141.66 162.327 141.542C162.238 141.505 162.15 141.465 162.065 141.42Z" fill="#263238"/>
<path d="M164.414 142.464C164.521 142.453 164.628 142.469 164.725 142.512C165.002 142.615 165.234 142.802 165.381 143.042C165.5 143.22 165.565 143.424 165.57 143.633C165.575 143.843 165.518 144.049 165.407 144.231C165.276 144.462 165.071 144.649 164.82 144.766C164.568 144.884 164.284 144.926 164.005 144.887C163.727 144.849 163.469 144.731 163.266 144.55C163.063 144.37 162.926 144.135 162.874 143.879C162.825 143.676 162.836 143.463 162.906 143.265C162.976 143.066 163.103 142.889 163.272 142.751C163.49 142.561 163.77 142.446 164.069 142.423C164.175 142.407 164.284 142.42 164.384 142.46C164.384 142.48 164.27 142.46 164.082 142.504C163.817 142.554 163.574 142.677 163.386 142.856C163.247 142.98 163.145 143.136 163.091 143.308C163.036 143.479 163.031 143.661 163.075 143.835C163.123 144.05 163.241 144.246 163.413 144.397C163.586 144.548 163.804 144.647 164.039 144.679C164.273 144.712 164.513 144.677 164.726 144.58C164.939 144.482 165.114 144.327 165.228 144.134C165.324 143.979 165.374 143.803 165.374 143.625C165.374 143.446 165.324 143.27 165.228 143.115C165.107 142.891 164.915 142.708 164.677 142.589C164.519 142.504 164.41 142.484 164.414 142.464Z" fill="#263238"/>
<path d="M159.698 140.462C159.698 140.462 159.816 140.441 160.013 140.506C160.29 140.608 160.522 140.795 160.669 141.036C160.788 141.214 160.853 141.418 160.858 141.627C160.863 141.836 160.806 142.043 160.695 142.225C160.565 142.457 160.359 142.645 160.108 142.764C159.856 142.883 159.57 142.926 159.291 142.887C159.011 142.848 158.751 142.73 158.548 142.548C158.345 142.366 158.209 142.13 158.158 141.873C158.109 141.669 158.121 141.457 158.192 141.258C158.262 141.059 158.39 140.882 158.56 140.745C158.777 140.555 159.058 140.439 159.356 140.417C159.463 140.401 159.572 140.414 159.671 140.454C159.671 140.474 159.558 140.454 159.365 140.498C159.101 140.55 158.859 140.672 158.67 140.85C158.531 140.974 158.43 141.13 158.376 141.302C158.322 141.473 158.318 141.655 158.363 141.829C158.41 142.044 158.527 142.241 158.699 142.392C158.871 142.544 159.089 142.643 159.324 142.675C159.559 142.708 159.799 142.673 160.011 142.575C160.224 142.477 160.398 142.321 160.511 142.128C160.608 141.973 160.659 141.797 160.659 141.618C160.659 141.439 160.608 141.264 160.511 141.109C160.389 140.886 160.197 140.703 159.96 140.583C159.807 140.498 159.698 140.478 159.698 140.462Z" fill="#263238"/>
<path d="M162.476 141.485C162.625 141.115 162.642 140.711 162.524 140.332C162.725 140.304 163.001 140.332 163.054 140.498C163.075 140.564 163.075 140.634 163.054 140.7C162.95 140.997 162.785 141.271 162.568 141.509" fill="#263238"/>
<path d="M166.247 142.484C166.176 142.154 166.06 141.833 165.902 141.53C165.811 141.379 165.686 141.249 165.535 141.149C165.383 141.049 165.21 140.982 165.027 140.951C164.814 140.916 164.594 140.95 164.405 141.048C164.312 141.092 164.235 141.161 164.184 141.246C164.133 141.332 164.111 141.429 164.121 141.525C164.152 141.703 164.41 141.732 164.558 141.623C164.623 141.56 164.661 141.479 164.666 141.392C164.671 141.306 164.642 141.221 164.585 141.153C164.53 141.084 164.46 141.026 164.378 140.986C164.296 140.945 164.205 140.922 164.112 140.919C163.937 140.908 163.762 140.935 163.6 141C163.298 141.117 163.053 141.263 162.878 141.339C162.703 141.416 162.607 141.457 162.603 141.445C162.598 141.432 162.677 141.368 162.839 141.267C163.061 141.116 163.295 140.981 163.539 140.862C163.722 140.78 163.923 140.74 164.125 140.745C164.249 140.746 164.37 140.774 164.481 140.826C164.591 140.878 164.686 140.952 164.76 141.044C164.849 141.152 164.892 141.287 164.881 141.423C164.87 141.559 164.805 141.686 164.698 141.78C164.638 141.826 164.568 141.859 164.492 141.878C164.417 141.896 164.338 141.9 164.261 141.889C164.174 141.876 164.093 141.838 164.03 141.781C163.967 141.723 163.924 141.65 163.907 141.57C163.886 141.43 163.913 141.288 163.983 141.162C164.054 141.037 164.165 140.935 164.3 140.87C164.533 140.751 164.804 140.711 165.066 140.757C165.28 140.794 165.481 140.877 165.654 140.998C165.827 141.12 165.967 141.277 166.064 141.457C166.191 141.69 166.267 141.944 166.287 142.205C166.298 142.3 166.284 142.395 166.247 142.484Z" fill="#263238"/>
<path d="M159.851 138.132C159.851 138.132 159.737 138.201 159.615 138.379C159.535 138.504 159.486 138.645 159.471 138.791C159.457 138.936 159.477 139.083 159.531 139.22C159.599 139.429 159.717 139.621 159.875 139.782C160.033 139.944 160.228 140.071 160.446 140.154C160.696 140.246 160.974 140.253 161.229 140.174C161.359 140.141 161.475 140.072 161.562 139.977C161.649 139.881 161.704 139.764 161.719 139.641C161.724 139.582 161.714 139.523 161.692 139.467C161.669 139.412 161.634 139.362 161.588 139.321C161.541 139.284 161.485 139.256 161.426 139.24C161.366 139.224 161.304 139.22 161.242 139.228C161.118 139.238 161 139.284 160.906 139.361C160.812 139.437 160.747 139.54 160.722 139.653C160.678 139.872 160.72 140.098 160.84 140.292C160.952 140.466 161.101 140.619 161.277 140.741C161.52 140.931 161.805 141.069 162.113 141.145C162.17 141.148 162.227 141.14 162.281 141.121C162.334 141.102 162.383 141.073 162.423 141.036C162.423 141.036 162.388 141.206 162.113 141.226C161.958 141.223 161.807 141.183 161.675 141.109C161.501 141.031 161.334 140.941 161.177 140.838C160.973 140.713 160.8 140.551 160.669 140.36C160.515 140.13 160.46 139.854 160.516 139.588C160.543 139.432 160.626 139.29 160.752 139.183C160.881 139.075 161.043 139.007 161.216 138.989C161.31 138.976 161.407 138.983 161.498 139.009C161.589 139.035 161.673 139.08 161.743 139.141C161.813 139.201 161.867 139.275 161.901 139.357C161.936 139.44 161.95 139.528 161.942 139.616C161.929 139.783 161.859 139.942 161.744 140.071C161.629 140.2 161.474 140.292 161.299 140.336C160.993 140.431 160.659 140.418 160.363 140.3C160.12 140.207 159.903 140.064 159.73 139.88C159.557 139.697 159.432 139.479 159.365 139.244C159.31 139.088 159.297 138.922 159.326 138.76C159.354 138.598 159.425 138.445 159.531 138.314C159.706 138.132 159.851 138.132 159.851 138.132Z" fill="#263238"/>
<path d="M165.442 140.935C165.628 140.97 165.811 141.019 165.989 141.081C166.196 141.139 166.412 141.163 166.628 141.153C166.762 141.149 166.894 141.119 167.015 141.065C167.136 141.012 167.244 140.936 167.332 140.842L167.389 140.975L166.667 140.886L166.3 140.846L166.645 140.712C166.802 140.649 166.943 140.556 167.057 140.439C167.172 140.322 167.258 140.183 167.31 140.033C167.31 139.956 167.31 139.924 167.28 139.928C167.249 139.932 167.157 139.968 167.07 140.017L166.51 140.308L166.155 140.49L166.357 140.162L166.422 140.045C166.525 139.822 166.555 139.576 166.51 139.337C166.499 139.238 166.455 139.145 166.383 139.07C166.348 139.038 166.269 139.07 166.177 139.175C165.85 139.483 165.628 139.872 165.539 140.296L165.512 140.429L165.399 140.357C165.184 140.219 164.983 140.09 164.79 139.972L164.913 139.903C164.952 140.239 165.088 140.559 165.307 140.83C165.469 141.02 165.582 141.105 165.569 141.117C165.556 141.129 165.429 141.064 165.241 140.878C164.979 140.611 164.809 140.277 164.755 139.92L164.734 139.762L164.878 139.847L165.499 140.211L165.355 140.268C165.44 139.81 165.671 139.388 166.02 139.054C166.071 139.001 166.13 138.955 166.195 138.917C166.24 138.891 166.292 138.877 166.346 138.877C166.399 138.877 166.451 138.891 166.497 138.917C166.563 138.966 166.617 139.028 166.657 139.097C166.697 139.167 166.721 139.243 166.729 139.321C166.787 139.602 166.752 139.892 166.628 140.154C166.607 140.202 166.582 140.248 166.554 140.292L166.4 140.146L166.96 139.859C167.063 139.788 167.187 139.748 167.315 139.746C167.36 139.752 167.402 139.77 167.436 139.797C167.471 139.824 167.497 139.86 167.512 139.899C167.531 139.962 167.531 140.027 167.512 140.09C167.452 140.272 167.349 140.44 167.208 140.581C167.068 140.721 166.895 140.83 166.702 140.898V140.721L167.42 140.826L167.582 140.85L167.481 140.959C167.376 141.069 167.247 141.157 167.102 141.216C166.957 141.276 166.8 141.305 166.641 141.303C166.409 141.305 166.179 141.267 165.963 141.19C165.775 141.134 165.598 141.048 165.442 140.935Z" fill="#263238"/>
<path d="M158.35 111.841V107.178C158.35 107.178 160.481 106.854 161.413 107.178L161.553 111.833L158.35 111.841Z" fill="#455A64"/>
<path d="M153.516 135.843H151.844V151.237H153.516V135.843Z" fill="#EBEBEB"/>
<path d="M102.256 85.882L117.862 119.858L146.262 118.066L148.143 130.253C148.143 130.253 114.813 140.81 108.39 137.129C104.068 134.649 94.0397 110.765 94.0397 110.765L102.256 85.882Z" fill="#FF725E"/>
<path d="M79.4616 74.1481H65.4304C65.4304 74.1481 40.4526 76.8945 42.6227 99.0395C43.8915 111.983 48.0829 131.47 50.498 144.935C52.2043 154.473 53.5256 161.272 53.5256 161.272L113.159 161.215L106.71 140.263L101.692 89.2997C101.019 85.0853 98.7296 81.235 95.2413 78.4512C91.7531 75.6675 87.2986 74.1359 82.6905 74.136L79.4616 74.1481Z" fill="#FF725E"/>
<path d="M113.155 161.215C113.088 161.085 113.034 160.95 112.993 160.811C112.901 160.536 112.765 160.147 112.599 159.646C112.262 158.619 111.785 157.134 111.186 155.286C110 151.565 108.36 146.335 106.491 140.32V140.292C106.141 138.108 105.787 135.778 105.476 133.371C104.96 129.424 104.579 125.654 104.238 122.228C103.897 118.802 103.582 115.716 103.28 113.131C102.978 110.547 102.702 108.456 102.51 107.012C102.418 106.3 102.348 105.742 102.296 105.345C102.26 105.153 102.245 104.958 102.252 104.763C102.315 104.949 102.361 105.14 102.387 105.333C102.457 105.738 102.558 106.28 102.689 106.987C102.93 108.427 103.262 110.51 103.599 113.099C103.936 115.688 104.295 118.762 104.658 122.192C105.021 125.622 105.415 129.383 105.927 133.323C106.238 135.721 106.588 138.051 106.929 140.231V140.207C108.762 146.221 110.346 151.48 111.444 155.221C111.991 157.086 112.428 158.578 112.73 159.618C112.87 160.123 112.98 160.52 113.054 160.799C113.105 160.934 113.138 161.073 113.155 161.215Z" fill="#263238"/>
<path d="M114.038 124.578C113.929 124.533 114.476 123.211 115.583 121.815C116.69 120.42 117.884 119.534 117.963 119.615C118.042 119.696 117.027 120.699 115.95 122.042C114.874 123.385 114.157 124.631 114.038 124.578Z" fill="#263238"/>
<path d="M117.779 126.03C117.67 126.066 117.127 124.699 117.136 122.924C117.145 121.148 117.683 119.781 117.792 119.817C117.902 119.854 117.591 121.217 117.591 122.924C117.591 124.63 117.911 125.998 117.779 126.03Z" fill="#263238"/>
<path d="M83.2418 97.7411C83.0539 97.7821 82.8616 97.8038 82.6686 97.8058L81.0979 97.8948C79.7854 97.9636 77.9391 98.0445 75.9134 98.1173C73.8877 98.1901 72.0501 98.2467 70.7244 98.2791L69.1494 98.3033C68.9572 98.3197 68.7639 98.3197 68.5718 98.3033C68.7613 98.263 68.9549 98.2413 69.1494 98.2386L70.72 98.1496C72.0326 98.0809 73.8789 98.004 75.9046 97.9272C77.9303 97.8503 79.7635 97.7977 81.0892 97.7694L82.6642 97.7411C82.8563 97.7248 83.0497 97.7248 83.2418 97.7411Z" fill="#FAFAFA"/>
<path d="M51.8149 121.953C51.8149 122.014 50.6598 122.123 49.2423 122.325C47.8247 122.527 46.6784 122.73 46.6653 122.681C47.4834 122.395 48.3376 122.206 49.2073 122.119C50.0655 121.963 50.9416 121.907 51.8149 121.953Z" fill="#FAFAFA"/>
<path d="M102.803 119.429C101.51 119.554 100.21 119.611 98.9092 119.599C97.61 119.655 96.3084 119.641 95.0109 119.558C96.3043 119.433 97.6044 119.376 98.9048 119.389C100.204 119.332 101.506 119.346 102.803 119.429Z" fill="#FAFAFA"/>
<path d="M110.429 105.903C109.344 106.393 108.228 106.822 107.086 107.186C105.971 107.611 104.828 107.973 103.665 108.27C104.748 107.776 105.865 107.347 107.008 106.987C108.122 106.558 109.264 106.196 110.429 105.903Z" fill="#FAFAFA"/>
<path d="M117.403 119.906C117.267 120.014 117.121 120.11 116.966 120.193C116.668 120.371 116.231 120.598 115.679 120.877C114.237 121.581 112.73 122.167 111.177 122.628C109.624 123.091 108.03 123.425 106.413 123.627C105.791 123.7 105.288 123.745 104.938 123.761C104.758 123.781 104.576 123.781 104.396 123.761C104.57 123.714 104.749 123.684 104.93 123.672C105.275 123.631 105.778 123.563 106.391 123.47C107.988 123.225 109.564 122.875 111.107 122.422C112.646 121.962 114.146 121.4 115.596 120.739C116.156 120.485 116.602 120.27 116.909 120.121C117.064 120.032 117.23 119.96 117.403 119.906Z" fill="#FAFAFA"/>
<path d="M123.082 136.283C122.966 136.09 122.867 135.888 122.785 135.681C122.693 135.487 122.588 135.244 122.478 134.957C122.369 134.67 122.238 134.35 122.124 133.982C121.834 133.129 121.594 132.262 121.406 131.385C120.955 129.232 120.808 127.033 120.969 124.845C121.033 123.954 121.152 123.066 121.323 122.187C121.389 121.811 121.476 121.476 121.546 121.176C121.616 120.877 121.682 120.63 121.748 120.424C121.797 120.208 121.869 119.997 121.962 119.793C121.938 120.013 121.896 120.23 121.835 120.444C121.783 120.65 121.726 120.905 121.669 121.201C121.612 121.496 121.533 121.836 121.481 122.212C121.354 122.96 121.249 123.858 121.179 124.857C121.116 125.943 121.116 127.031 121.179 128.117C121.26 129.202 121.406 130.283 121.616 131.353C121.822 132.34 122.054 133.217 122.281 133.946C122.386 134.314 122.509 134.637 122.605 134.924C122.701 135.212 122.793 135.458 122.872 135.656C122.96 135.86 123.031 136.069 123.082 136.283Z" fill="#FAFAFA"/>
<path d="M137.542 132.801C137.413 132.666 137.298 132.52 137.201 132.364C137.096 132.218 136.973 132.04 136.842 131.822C136.711 131.604 136.553 131.365 136.404 131.086C136.046 130.432 135.736 129.756 135.477 129.064C135.16 128.218 134.911 127.351 134.733 126.471C134.566 125.589 134.468 124.697 134.44 123.801C134.42 123.071 134.454 122.34 134.541 121.613C134.567 121.302 134.624 121.027 134.667 120.78C134.698 120.57 134.74 120.362 134.794 120.157C134.829 119.979 134.88 119.805 134.947 119.635C134.991 119.635 134.812 120.396 134.702 121.625C134.639 122.346 134.621 123.07 134.65 123.793C134.687 124.678 134.789 125.559 134.956 126.43C135.134 127.3 135.374 128.158 135.674 128.999C135.922 129.688 136.214 130.364 136.549 131.021C137.126 132.138 137.581 132.781 137.542 132.801Z" fill="#FAFAFA"/>
<path d="M57.6515 137.46C57.2687 137.602 56.8715 137.708 56.4658 137.776C55.498 137.983 54.5197 138.145 53.5344 138.261C52.3794 138.403 51.3468 138.472 50.5681 138.492C50.157 138.524 49.7434 138.516 49.3343 138.468C49.7386 138.397 50.1481 138.355 50.5593 138.342C51.3118 138.286 52.3575 138.193 53.5038 138.055C54.6501 137.918 55.6914 137.752 56.4352 137.63C56.8348 137.543 57.2416 137.486 57.6515 137.46Z" fill="#FAFAFA"/>
<path d="M105.284 136.332C105.284 136.389 101.753 136.385 97.4086 136.332C93.064 136.279 89.5333 136.166 89.5333 136.11C89.5333 136.053 93.064 136.057 97.4086 136.11C101.753 136.162 105.284 136.275 105.284 136.332Z" fill="#FAFAFA"/>
<path d="M109.694 149.918H109.545H109.108L107.428 149.951C106.697 149.951 105.8 149.983 104.763 150.011C103.726 150.04 102.545 150.068 101.241 150.117C96.0215 150.286 88.8113 150.663 80.8529 151.075C72.8944 151.488 65.6754 151.795 60.4471 151.908C57.822 151.961 55.7219 151.989 54.2606 151.981H52.5762H52.1386H51.9899H52.1386H52.5762L54.2606 151.953C55.7219 151.953 57.8351 151.884 60.4427 151.811C65.6667 151.662 72.8769 151.334 80.8397 150.917C88.8025 150.501 96.0084 150.153 101.237 150.019C102.549 149.983 103.722 149.955 104.763 149.943C105.804 149.93 106.693 149.914 107.423 149.922H109.108H109.545C109.594 149.916 109.644 149.914 109.694 149.918Z" fill="#FAFAFA"/>
<path d="M65.2904 79.289C64.78 79.427 64.2614 79.5378 63.7372 79.6207C62.7747 79.8108 61.449 80.0899 59.9965 80.4539C58.5439 80.8179 57.2532 81.1941 56.3169 81.4812C55.8176 81.6541 55.3077 81.8 54.79 81.9181C54.9099 81.8443 55.0393 81.7846 55.175 81.7401C55.4288 81.639 55.8007 81.5015 56.2644 81.3356C57.1876 81.0121 58.4827 80.6116 59.9396 80.2436C61.3965 79.8755 62.7309 79.6247 63.7066 79.471C64.1922 79.3942 64.5816 79.3375 64.8616 79.3092C65.0028 79.2837 65.1472 79.2769 65.2904 79.289Z" fill="#FAFAFA"/>
<path d="M92.9152 79.3012C92.8889 79.3619 91.8389 79.0262 90.4913 78.8725C89.1438 78.7188 88.0325 78.8037 88.0238 78.739C89.6777 78.4498 91.3882 78.6464 92.9152 79.3012Z" fill="#FAFAFA"/>
<path d="M45.0859 101.066C45.0859 101.066 56.6976 135.22 64.0566 141.428C71.4157 147.637 83.8411 144.559 86.1775 140.263C88.5138 135.968 104.719 90.9176 104.719 90.9176L86.9956 85.1134L74.3076 120.828L65.3211 88.9074C65.3211 88.9074 58.5921 77.9462 49.5136 83.2003C40.4351 88.4544 45.0859 101.066 45.0859 101.066Z" fill="#FF725E"/>
<path d="M46.5166 105.123C46.5367 105.166 46.5542 105.211 46.5691 105.256C46.5998 105.353 46.6479 105.487 46.7091 105.661C46.8316 106.029 47.011 106.563 47.2429 107.279L49.3167 113.459C50.2224 116.137 51.3381 119.409 52.7075 123.187C53.39 125.071 54.1426 127.086 54.987 129.201C55.8224 131.442 56.8524 133.617 58.0671 135.705C59.4172 137.999 61.1742 140.068 63.2648 141.825C65.5146 143.743 68.3081 145.031 71.3194 145.538C72.903 145.776 74.5179 145.776 76.1015 145.538C77.7381 145.307 79.3191 144.816 80.7742 144.086C82.2691 143.322 83.6526 142.386 84.8912 141.299C85.5283 140.75 86.1247 140.162 86.6763 139.539C87.2409 138.916 87.7445 138.247 88.1813 137.541C88.6297 136.832 88.9809 136.074 89.227 135.284L90.0539 132.857L91.7427 127.951C92.8744 124.643 94.0338 121.272 95.221 117.839C97.5879 110.963 100.034 103.849 102.545 96.5559L104.514 90.8286L104.654 91.0915L88.2557 85.4046L88.5488 85.2711C87.4638 88.4462 86.1688 91.4798 84.9 94.4527L81.1067 103.161C78.6435 108.824 76.294 114.256 74.4914 119.469L74.2814 120.068L74.1196 119.457C72.0939 111.845 70.3744 104.856 68.5456 98.7361C68.0906 97.2071 67.6253 95.7349 67.1499 94.3192C66.6774 92.9035 66.183 91.5526 65.6186 90.2745C64.4986 87.7546 63.0154 85.5745 61.1209 84.1426C59.4408 82.8523 57.3799 82.0589 55.2057 81.8654C53.6043 81.7002 51.9833 81.8378 50.4412 82.2699C49.4868 82.5385 48.5747 82.922 47.7286 83.4105C47.4442 83.5764 47.2385 83.722 47.0942 83.815C46.9498 83.908 46.8754 83.9444 46.8754 83.9444L47.0767 83.7907C47.2167 83.6977 47.4135 83.544 47.6979 83.3863C48.5375 82.8709 49.4484 82.4627 50.4062 82.1728C51.9589 81.714 53.5968 81.5544 55.2188 81.7037C57.4353 81.8847 59.5411 82.6797 61.2609 83.9849C63.2035 85.4329 64.7217 87.6252 65.8636 90.1774C66.4411 91.4474 66.9443 92.8065 67.4256 94.2221C67.9068 95.6378 68.3837 97.1101 68.8431 98.643C70.6982 104.763 72.4482 111.756 74.4871 119.356H74.1196C75.9309 114.122 78.2541 108.69 80.7129 103.011C81.9438 100.172 83.2038 97.2692 84.4931 94.303C85.7575 91.3301 87.0438 88.2966 88.1157 85.1457L88.1901 84.9394L88.4088 85.0123L104.794 90.7032L104.999 90.772L104.934 90.9621C104.278 92.8496 103.62 94.7587 102.961 96.6894C100.449 103.97 97.9948 111.097 95.6279 117.973L92.1277 128.085C91.559 129.738 90.9946 131.373 90.4345 132.991L89.6033 135.418L89.3933 136.016L89.1395 136.615C88.9553 137.003 88.7478 137.381 88.5182 137.748C88.0702 138.472 87.5518 139.157 86.9694 139.794C86.4069 140.43 85.7973 141.029 85.145 141.586C83.8797 142.693 82.4651 143.645 80.9361 144.417C79.4384 145.169 77.8094 145.672 76.1234 145.902C74.4991 146.145 72.8431 146.145 71.2188 145.902C68.1411 145.375 65.2885 144.051 62.9935 142.084C60.877 140.3 59.1019 138.198 57.7433 135.867C56.5299 133.754 55.5056 131.553 54.6807 129.286C53.845 127.162 53.1056 125.144 52.4319 123.251C51.0843 119.465 49.9905 116.185 49.1111 113.499C48.2317 110.814 47.5754 108.723 47.1379 107.303C46.9235 106.595 46.7573 106.053 46.6479 105.685C46.5954 105.507 46.556 105.372 46.5298 105.28C46.5172 105.229 46.5128 105.176 46.5166 105.123Z" fill="#263238"/>
<path d="M67.0318 93.5022C66.9563 93.5119 66.8797 93.5119 66.8043 93.5022L66.1524 93.4739C65.588 93.4456 64.7698 93.4132 63.7592 93.397C58.4927 93.2986 53.2388 93.9076 48.1617 95.205C47.186 95.4517 46.4116 95.6661 45.8647 95.8279L45.2435 96.0018C45.1706 96.0236 45.096 96.0399 45.0203 96.0504C45.0842 96.0122 45.1534 95.9823 45.226 95.9614L45.8385 95.747C46.3679 95.565 47.151 95.3425 48.1179 95.0594C53.1894 93.6743 58.4701 93.0582 63.7548 93.2352C64.7698 93.2716 65.588 93.3242 66.148 93.3808L66.7999 93.4496C66.8796 93.4564 66.9577 93.4742 67.0318 93.5022Z" fill="#FAFAFA"/>
<path d="M70.4269 104.763C70.4269 104.819 65.4261 105.814 59.2309 106.983C53.0357 108.152 48.0042 109.058 48.0042 109.01C48.0042 108.961 53.005 107.958 59.2003 106.785C65.3955 105.612 70.4138 104.706 70.4269 104.763Z" fill="#FAFAFA"/>
<path d="M95.6148 114.964C95.406 114.872 95.2056 114.765 95.0154 114.644C94.6391 114.422 94.0878 114.114 93.4009 113.742C91.614 112.776 89.7608 111.918 87.8532 111.174C85.9414 110.436 83.9802 109.814 81.9818 109.309C81.2117 109.115 80.5905 108.969 80.1573 108.872C79.9298 108.832 79.706 108.775 79.4879 108.702C79.7195 108.714 79.9494 108.745 80.1748 108.795C80.6123 108.864 81.2467 108.99 82.0211 109.163C84.0424 109.626 86.0216 110.233 87.9407 110.98C89.8659 111.724 91.7264 112.605 93.5059 113.613C94.1841 114.017 94.7222 114.333 95.0854 114.575C95.2733 114.691 95.4503 114.821 95.6148 114.964Z" fill="#FAFAFA"/>
<path d="M99.6793 102.842C99.5206 102.693 99.3743 102.533 99.2418 102.364C98.8567 101.929 98.4417 101.517 97.9992 101.131C96.5158 99.8812 94.8089 98.8794 92.9547 98.1699C91.0957 97.4646 89.1792 96.8966 87.2232 96.4711L85.4469 96.0666C85.2265 96.026 85.01 95.9692 84.7994 95.8967C85.0237 95.9055 85.2465 95.9353 85.4644 95.9857C85.9019 96.0585 86.5057 96.1718 87.2626 96.3255C89.2413 96.7005 91.1789 97.242 93.0509 97.9434C94.9315 98.6576 96.6501 99.6921 98.1173 100.993C98.5572 101.391 98.9598 101.823 99.3205 102.283C99.4197 102.407 99.5117 102.535 99.5962 102.668C99.6352 102.72 99.6633 102.779 99.6793 102.842Z" fill="#FAFAFA"/>
<path d="M74.0452 117.856C73.9758 117.885 73.902 117.904 73.8264 117.912L73.1964 118.029L70.8776 118.434C68.9175 118.798 66.2268 119.348 63.291 120.092C60.3553 120.837 57.7346 121.633 55.8532 122.244L53.6263 122.976L53.0181 123.174C52.9491 123.2 52.8772 123.219 52.8038 123.231C52.8636 123.19 52.93 123.157 53.0006 123.134L53.5957 122.899C54.1076 122.701 54.8601 122.426 55.7832 122.09C57.6558 121.443 60.2765 120.626 63.221 119.878C66.1655 119.13 68.8694 118.6 70.8382 118.26C71.8182 118.094 72.6189 117.977 73.1745 117.908L73.8089 117.831C73.8883 117.833 73.9674 117.841 74.0452 117.856Z" fill="#FAFAFA"/>
<path d="M73.4545 146.056C73.3909 145.982 73.3366 145.902 73.2926 145.817L72.8551 145.109L72.5576 144.591C72.4526 144.401 72.3607 144.187 72.2469 143.96C72.0369 143.499 71.7657 142.99 71.5556 142.391C71.4463 142.096 71.3281 141.784 71.2056 141.461C71.0831 141.137 71 140.789 70.8862 140.433C70.6544 139.725 70.5056 138.949 70.3262 138.132C69.6598 134.567 69.8088 130.913 70.7637 127.405C71.0088 126.596 71.2013 125.84 71.5119 125.152C71.6519 124.804 71.7657 124.465 71.9144 124.149C72.0632 123.834 72.2032 123.534 72.3519 123.247C72.5964 122.729 72.8695 122.223 73.1701 121.73C73.297 121.512 73.4107 121.306 73.5288 121.12L73.8701 120.63L74.3426 119.951C74.3956 119.871 74.4556 119.795 74.522 119.724C74.4867 119.813 74.4396 119.897 74.382 119.975L73.9445 120.671L73.6251 121.172C73.5113 121.358 73.4063 121.577 73.2838 121.787C73.0476 122.232 72.7413 122.725 72.4963 123.308L72.085 124.21C71.945 124.521 71.8357 124.865 71.7 125.209C71.4156 125.897 71.2144 126.657 70.9781 127.45C70.0493 130.935 69.9004 134.559 70.5406 138.1C70.7112 138.908 70.8512 139.685 71.0744 140.389C71.1794 140.741 71.2625 141.089 71.3763 141.412C71.49 141.736 71.6081 142.043 71.7132 142.342C71.91 142.941 72.1725 143.451 72.3694 143.912C72.4744 144.142 72.5619 144.357 72.6582 144.551L72.9382 145.073C73.0957 145.372 73.2182 145.611 73.3188 145.797C73.3717 145.879 73.4171 145.966 73.4545 146.056Z" fill="#FAFAFA"/>
<path d="M92.2371 127.15C92.169 127.16 92.0996 127.16 92.0315 127.15L91.4408 127.118C91.1287 127.102 90.8176 127.071 90.5089 127.025C90.1458 126.973 89.7302 126.936 89.2795 126.835C88.8289 126.734 88.3345 126.653 87.8138 126.507C87.2932 126.362 86.7419 126.2 86.1688 126.01C83.6808 125.146 81.394 123.852 79.431 122.196C78.9935 121.791 78.556 121.443 78.2103 121.063C78.031 120.873 77.8472 120.699 77.6853 120.521L77.2478 119.999C76.9503 119.672 76.7228 119.344 76.5128 119.069C76.3028 118.794 76.1365 118.543 76.0096 118.337L75.7209 117.86C75.6828 117.805 75.652 117.747 75.629 117.686C75.629 117.686 75.6815 117.734 75.7603 117.839L76.0884 118.293C76.2514 118.537 76.4281 118.773 76.6178 119C76.8365 119.271 77.0553 119.587 77.3747 119.906L77.8341 120.416C77.996 120.59 78.1797 120.76 78.3635 120.942C78.7179 121.314 79.151 121.666 79.5885 122.054C80.5705 122.856 81.6227 123.581 82.7343 124.222C83.857 124.852 85.0352 125.393 86.2563 125.84C86.825 126.034 87.3588 126.22 87.8795 126.35C88.4001 126.479 88.8814 126.608 89.3276 126.702C89.7739 126.795 90.2027 126.859 90.5396 126.92C90.8765 126.981 91.209 127.021 91.4627 127.049L92.049 127.118C92.1131 127.121 92.1764 127.131 92.2371 127.15Z" fill="#FAFAFA"/>
<g opacity="0.4">
<path opacity="0.4" d="M68.5194 99.2094C68.4443 99.2312 68.3661 99.2421 68.2875 99.2417L67.6224 99.2822C67.0449 99.3105 66.2093 99.3671 65.1811 99.4521C59.8098 99.8893 54.5187 100.945 49.4305 102.595C48.4548 102.91 47.6804 103.177 47.1335 103.371L46.5079 103.586C46.4374 103.617 46.3621 103.637 46.2848 103.646C46.3488 103.605 46.4178 103.571 46.4904 103.545L47.0985 103.295C47.6279 103.08 48.4111 102.789 49.378 102.453C54.4546 100.721 59.7704 99.6601 65.168 99.3024C66.2005 99.2377 67.0405 99.2053 67.6181 99.2013H68.2875L68.5194 99.2094Z" fill="black"/>
</g>
<g opacity="0.4">
<path opacity="0.4" d="M71.547 112.314C71.4798 112.34 71.4091 112.356 71.337 112.363L70.7376 112.46L68.5237 112.796C66.6599 113.087 64.0917 113.532 61.2828 114.13C58.474 114.729 55.9495 115.372 54.1294 115.886L51.9812 116.476L51.3993 116.634C51.3317 116.657 51.261 116.67 51.1893 116.675C51.1893 116.675 51.255 116.638 51.3818 116.594L51.955 116.399C52.4538 116.23 53.18 115.995 54.0813 115.74C55.8883 115.21 58.4084 114.547 61.226 113.944C64.0436 113.342 66.6205 112.925 68.4975 112.67C69.4338 112.541 70.195 112.448 70.7201 112.395L71.3282 112.339C71.3996 112.321 71.4732 112.313 71.547 112.314Z" fill="black"/>
</g>
<g opacity="0.2">
<path opacity="0.2" d="M49.8504 115.376C51.4255 123.138 54.3481 133.557 57.6295 140.858C58.9683 143.827 60.609 146.286 63.4222 148.175C66.7604 150.416 70.4225 150.917 74.5439 150.958C77.4004 150.941 80.2434 150.592 83.0054 149.918C85.8712 149.283 88.2556 146.658 90.0363 144.498C92.202 141.885 93.1252 136.575 93.5146 133.307C94.5121 124.845 94.6346 126.317 95.6365 117.856C94.0002 122.095 93.2127 124.246 91.7776 129.124C90.3426 134.002 89.59 136.283 86.1993 140.264C84.4567 142.252 82.2082 143.809 79.6551 144.797C77.1019 145.786 74.3237 146.173 71.5687 145.926C65.006 145.263 60.1189 140.264 57.5288 134.645C54.9387 129.027 52.6724 121.298 49.9817 115.72" fill="black"/>
</g>
<g opacity="0.4">
<path opacity="0.4" d="M73.1659 120.258C73.112 120.31 73.0518 120.356 72.9865 120.396L72.4571 120.76C71.9889 121.071 71.3283 121.532 70.5233 122.123C69.7182 122.713 68.7732 123.445 67.7844 124.291C66.7956 125.136 65.7368 126.115 64.6824 127.187C63.628 128.259 62.6961 129.335 61.8736 130.334C61.051 131.333 60.3685 132.267 59.8172 133.064C59.266 133.861 58.8285 134.52 58.5397 134.981L58.2028 135.503C58.1197 135.624 58.0759 135.685 58.0672 135.681C58.0902 135.612 58.121 135.545 58.1591 135.483L58.4653 134.941C58.7278 134.467 59.1391 133.796 59.6772 132.987C60.2154 132.178 60.9023 131.232 61.7073 130.216C62.5123 129.201 63.4574 128.125 64.5118 127.045C65.5662 125.965 66.6381 124.999 67.6444 124.149C68.6507 123.3 69.6045 122.58 70.4226 122.006C71.2408 121.431 71.9233 120.982 72.4046 120.695L72.9602 120.359C73.0229 120.316 73.0922 120.282 73.1659 120.258Z" fill="black"/>
</g>
<g opacity="0.4">
<path opacity="0.4" d="M86.5931 140.102C86.5132 140.069 86.4382 140.027 86.37 139.976L85.7619 139.572C85.495 139.398 85.1756 139.167 84.8212 138.904C84.4668 138.641 84.0468 138.33 83.6311 137.958L82.9617 137.384C82.7299 137.181 82.5242 136.951 82.2661 136.728C81.7805 136.279 81.3123 135.758 80.8092 135.22C78.6775 132.829 76.9999 130.121 75.8477 127.211C75.5983 126.54 75.349 125.901 75.1783 125.29C75.0865 124.982 74.9858 124.691 74.9158 124.404C74.8458 124.117 74.7802 123.842 74.7189 123.595C74.5789 123.073 74.5133 122.588 74.4389 122.167C74.3694 121.807 74.3197 121.444 74.2902 121.079C74.2639 120.8 74.242 120.57 74.2245 120.392C74.212 120.311 74.212 120.229 74.2245 120.149C74.2474 120.227 74.2649 120.307 74.277 120.388C74.3033 120.566 74.3383 120.792 74.382 121.071C74.4258 121.35 74.4739 121.73 74.5702 122.147C74.6664 122.564 74.7321 123.045 74.8808 123.563C74.9464 123.826 75.0165 124.097 75.0908 124.372C75.1652 124.647 75.2702 124.946 75.3621 125.249C75.5415 125.856 75.7996 126.487 76.049 127.154C76.6415 128.588 77.3478 129.979 78.1622 131.316C78.9997 132.641 79.9399 133.908 80.9754 135.106C81.4742 135.644 81.9292 136.166 82.4105 136.615C82.6424 136.842 82.848 137.072 83.0886 137.274L83.7449 137.857C84.1518 138.237 84.5631 138.54 84.9087 138.819C85.2543 139.099 85.5606 139.333 85.8187 139.515L86.405 139.944C86.4733 139.99 86.5363 140.043 86.5931 140.102Z" fill="black"/>
</g>
<g opacity="0.4">
<path opacity="0.4" d="M93.5934 119.688C93.3526 119.716 93.1094 119.723 92.8671 119.708C92.5824 119.713 92.2976 119.704 92.014 119.68C91.6815 119.656 91.3008 119.639 90.8852 119.583C90.4695 119.526 90.0101 119.478 89.5289 119.381C89.0476 119.283 88.5313 119.174 87.9932 119.049C86.8312 118.748 85.6972 118.361 84.6024 117.892C83.5148 117.411 82.4702 116.851 81.4786 116.218C81.0411 115.914 80.6035 115.635 80.2229 115.336C79.8423 115.036 79.4966 114.765 79.1904 114.499C78.8841 114.232 78.6216 113.981 78.3853 113.758C78.1491 113.536 77.9478 113.354 77.8166 113.168C77.6526 113.005 77.5061 112.827 77.379 112.638C77.5614 112.786 77.7324 112.945 77.8909 113.115C78.0484 113.273 78.2453 113.467 78.486 113.677C78.7266 113.888 78.9847 114.143 79.3041 114.389C79.6235 114.636 79.9604 114.927 80.3498 115.198C80.7392 115.469 81.1592 115.765 81.6055 116.06C82.5953 116.676 83.632 117.224 84.7074 117.702C85.7918 118.165 86.912 118.553 88.0588 118.863C88.5882 118.992 89.0914 119.126 89.577 119.211C90.0626 119.296 90.5045 119.376 90.9158 119.433C91.3271 119.49 91.7033 119.526 92.0315 119.563C92.3596 119.599 92.644 119.615 92.8803 119.627C93.1191 119.633 93.3574 119.653 93.5934 119.688Z" fill="black"/>
</g>
<g opacity="0.4">
<path opacity="0.4" d="M98.498 107.902C98.4717 107.954 94.696 106.611 90.0627 104.896C85.4294 103.181 81.693 101.754 81.693 101.697C81.693 101.64 85.495 102.987 90.1327 104.702C94.7703 106.417 98.5199 107.845 98.498 107.902Z" fill="black"/>
</g>
<g opacity="0.4">
<path opacity="0.4" d="M102.471 96.5317C102.259 96.4579 102.054 96.3686 101.858 96.2648L100.222 95.4761C98.8392 94.8127 96.9228 93.9148 94.7746 92.9764C92.6264 92.038 90.6532 91.2412 89.2225 90.679L87.525 89.9995C87.3122 89.9269 87.106 89.839 86.9081 89.7366C87.1305 89.7788 87.3475 89.8425 87.5556 89.9267C87.9669 90.0602 88.5575 90.2664 89.2838 90.5334C90.732 91.0592 92.7183 91.8398 94.8709 92.7782C97.0235 93.7166 98.9354 94.6388 100.296 95.3385C100.979 95.6864 101.53 95.9776 101.902 96.1839C102.102 96.2843 102.292 96.4007 102.471 96.5317Z" fill="black"/>
</g>
<g opacity="0.4">
<path opacity="0.4" d="M110.871 156.2C110.871 156.256 97.916 156.802 81.9291 157.413C65.9423 158.024 52.9787 158.481 52.9787 158.42C52.9787 158.36 65.9292 157.818 81.9204 157.207C97.9116 156.596 110.871 156.139 110.871 156.2Z" fill="black"/>
</g>
<g opacity="0.4">
<path opacity="0.4" d="M114.791 114.021C114.791 114.078 112.332 114.721 109.265 115.457C106.198 116.193 103.696 116.739 103.683 116.671C103.669 116.602 106.137 115.971 109.208 115.235C112.28 114.498 114.774 113.965 114.791 114.021Z" fill="black"/>
</g>
<g opacity="0.4">
<path opacity="0.4" d="M113.085 137.857C113.085 137.857 113.063 137.796 113.041 137.675C113.019 137.554 112.988 137.351 112.953 137.141C112.918 136.931 112.87 136.627 112.848 136.296C112.827 135.964 112.774 135.584 112.765 135.167C112.724 134.185 112.747 133.202 112.835 132.223C113.042 129.818 113.632 127.454 114.585 125.209C114.972 124.294 115.421 123.402 115.929 122.539C116.134 122.167 116.366 121.848 116.537 121.561C116.689 121.312 116.855 121.072 117.035 120.841L117.368 120.396C117.405 120.343 117.447 120.294 117.495 120.25C117.495 120.25 117.473 120.315 117.407 120.42L117.11 120.885C116.974 121.083 116.817 121.326 116.646 121.617C116.475 121.908 116.265 122.232 116.069 122.608C115.588 123.478 115.157 124.37 114.778 125.282C113.855 127.517 113.267 129.857 113.028 132.239C112.934 133.21 112.896 134.184 112.914 135.159C112.914 135.564 112.945 135.968 112.962 136.283C112.98 136.599 113.002 136.902 113.028 137.133C113.054 137.363 113.058 137.537 113.072 137.671C113.087 137.732 113.092 137.795 113.085 137.857Z" fill="black"/>
</g>
<g opacity="0.4">
<path opacity="0.4" d="M130.087 133.772C129.972 133.608 129.873 133.437 129.789 133.258C129.538 132.784 129.313 132.298 129.115 131.802C128.82 131.067 128.573 130.316 128.376 129.553C128.142 128.62 127.974 127.675 127.873 126.722C127.785 125.763 127.766 124.799 127.816 123.838C127.861 123.055 127.958 122.276 128.105 121.504C128.208 120.973 128.342 120.448 128.507 119.931C128.553 119.741 128.618 119.556 128.7 119.376C128.686 119.57 128.649 119.761 128.59 119.947C128.503 120.311 128.393 120.841 128.288 121.5C128.162 122.269 128.082 123.044 128.048 123.822C127.962 125.724 128.149 127.628 128.603 129.484C128.79 130.243 129.019 130.992 129.29 131.729C129.522 132.356 129.728 132.862 129.89 133.201C129.98 133.383 130.046 133.575 130.087 133.772Z" fill="black"/>
</g>
<g opacity="0.4">
<path opacity="0.4" d="M142.07 131.256C141.956 131.132 141.857 130.996 141.777 130.851C141.527 130.461 141.305 130.055 141.112 129.638C140.815 129.028 140.565 128.4 140.364 127.757C139.864 126.183 139.645 124.543 139.716 122.903C139.744 122.236 139.823 121.571 139.953 120.913C140.033 120.469 140.142 120.03 140.281 119.599C140.322 119.437 140.382 119.28 140.46 119.13C140.5 119.13 140.29 119.817 140.11 120.934C140.007 121.589 139.946 122.249 139.926 122.911C139.91 123.722 139.952 124.533 140.053 125.338C140.166 126.141 140.337 126.935 140.565 127.717C140.755 128.354 140.985 128.981 141.256 129.593C141.711 130.637 142.096 131.256 142.07 131.256Z" fill="black"/>
</g>
<path d="M63.1073 46.9474C63.2714 47.3125 63.3161 47.714 63.236 48.1024C63.1559 48.4907 62.9544 48.8488 62.6565 49.1324C62.3586 49.416 61.9772 49.6127 61.5597 49.6981C61.1422 49.7835 60.7067 49.7539 60.3072 49.6129C58.7977 49.075 58.4171 47.2629 58.5352 45.7745C58.6534 44.286 59.0253 42.6721 58.2115 41.3819C57.5902 40.3909 56.4177 39.8408 55.4726 39.1047C54.6386 38.4698 53.976 37.6641 53.537 36.7515C53.0981 35.8388 52.895 34.8443 52.9438 33.8465C53.0163 32.8488 53.3862 31.8891 54.0125 31.0738C54.6388 30.2586 55.497 29.6195 56.492 29.2274C58.5396 28.4832 61.1997 28.8229 62.6173 27.2819C63.6411 26.1534 63.5273 24.4506 64.2755 23.1684C65.4305 21.146 68.2831 20.5757 70.7594 20.6566C73.2358 20.7375 75.7909 21.2229 78.1229 20.4503C80.0654 19.8032 81.5617 18.3632 83.3468 17.3966C85.2945 16.3401 87.5507 15.873 89.7998 16.0607C92.0488 16.2483 94.1782 17.0813 95.8898 18.443C97.6015 19.8047 98.8098 21.6271 99.3457 23.6551C99.8816 25.6831 99.7183 27.8153 98.8786 29.7532C98.2792 31.1365 97.2029 35.064 92.6221 35.4442" fill="#263238"/>
<path d="M60.6309 31.193L60.9897 34.2225L66.0386 79.6206C66.6249 84.8788 71.9932 88.6242 78.0922 88.0013C84.2524 87.3704 88.842 82.5409 88.3432 77.2059C87.8182 71.608 87.3807 65.7067 87.3807 65.7067C87.3807 65.7067 95.0635 63.8664 95.7722 54.3248C96.1222 49.5844 95.1291 41.9358 94.0965 35.6988C93.8766 34.369 93.3679 33.094 92.6011 31.9506C91.8343 30.8073 90.8252 29.8191 89.6346 29.0456C88.444 28.2721 87.0964 27.7293 85.6729 27.4498C84.2495 27.1703 82.7796 27.1599 81.3517 27.4192L60.6309 31.193Z" fill="#FFBE9D"/>
<path d="M84.9262 50.4257C84.9262 50.3529 85.775 50.1426 87.1707 49.8554C87.5251 49.7947 87.8576 49.7017 87.897 49.4509C87.8943 49.1063 87.7783 48.7706 87.5644 48.4883L86.2519 46.0614C84.4318 42.5911 83.0799 39.7233 83.233 39.6546C83.3862 39.5858 84.9831 42.3484 86.8032 45.8228C87.2407 46.6803 87.6782 47.4933 88.0632 48.278C88.3269 48.6597 88.4368 49.115 88.3739 49.5642C88.3346 49.6856 88.2651 49.7968 88.1709 49.8889C88.0766 49.9809 87.9603 50.0512 87.8313 50.0941C87.6384 50.161 87.437 50.2045 87.2319 50.2235C85.8231 50.4217 84.9393 50.4985 84.9262 50.4257Z" fill="#263238"/>
<path d="M87.3807 65.7067C82.597 66.1706 77.7679 65.3962 73.4327 63.47C73.4327 63.47 77.4534 69.6382 87.5513 67.9192L87.3807 65.7067Z" fill="#EB996E"/>
<path d="M78.2321 37.1226C78.1271 37.4866 76.7095 37.4341 75.082 37.7536C73.4544 38.0731 72.1594 38.5989 71.91 38.2996C71.7962 38.1581 71.9975 37.8062 72.5006 37.4179C73.1767 36.9406 73.9613 36.6118 74.795 36.4562C75.6288 36.3007 76.49 36.3225 77.3133 36.5199C77.9433 36.6979 78.2758 36.9487 78.2321 37.1226Z" fill="#263238"/>
<path d="M91.7996 36.1235C91.5808 36.439 90.5877 36.2125 89.4195 36.2933C88.2513 36.3742 87.2932 36.6695 87.035 36.3823C86.9213 36.2408 87.035 35.9293 87.4507 35.6179C87.9968 35.2354 88.6535 35.0116 89.3374 34.9749C90.0214 34.9381 90.7017 35.0901 91.2921 35.4116C91.7558 35.6785 91.8958 35.9698 91.7996 36.1235Z" fill="#263238"/>
<path d="M94.0309 31.5004C94.0309 31.5004 89.0782 34.4449 81.8154 32.0505C77.0509 30.4811 71.6782 30.0564 70.6325 31.0231C69.5868 31.9898 69.9062 36.2813 65.6186 38.0407C65.6186 38.0407 66.9967 46.1747 63.431 46.2799C59.8652 46.385 58.8196 29.9189 58.8196 29.9189L68.5193 28.6286L77.7071 25.9348L86.7156 26.0966L93.799 27.0633L94.0309 31.5004Z" fill="#263238"/>
<path d="M58.3602 27.6013C58.2946 27.48 59.104 27.12 60.1103 27.3708C61.1165 27.6215 61.6372 28.2889 61.5191 28.3658C61.4009 28.4426 60.8234 28.0422 59.9746 27.8481C59.1259 27.6539 58.3996 27.7388 58.3602 27.6013Z" fill="#263238"/>
<path d="M61.0246 24.592C61.1909 24.592 61.2259 25.5546 61.519 26.6467C61.8122 27.7388 62.3941 28.5073 62.2847 28.6044C62.1753 28.7014 61.3221 27.9976 61.0028 26.7721C60.6834 25.5465 60.8978 24.5839 61.0246 24.592Z" fill="#263238"/>
<path d="M63.3172 42.8863C63.1641 42.8337 57.2533 41.5111 57.7214 47.0039C58.1896 52.4966 64.0567 50.9273 64.0567 50.7695C64.0567 50.6118 63.3172 42.8863 63.3172 42.8863Z" fill="#FFBE9D"/>
<path d="M62.0616 48.82C62.0354 48.82 61.9654 48.8968 61.7947 48.9818C61.5583 49.0983 61.2818 49.1244 61.0247 49.0546C60.3772 48.8847 59.7734 48.003 59.6597 47.0322C59.6023 46.5625 59.6607 46.0868 59.8303 45.6408C59.8722 45.4656 59.9593 45.3024 60.0843 45.165C60.2092 45.0277 60.3683 44.9203 60.5478 44.8521C60.6633 44.8134 60.7899 44.8136 60.9052 44.8529C61.0205 44.8921 61.1171 44.9678 61.1778 45.0665C61.2741 45.2161 61.2435 45.3294 61.2785 45.3334C61.3135 45.3375 61.3966 45.2323 61.331 45.0099C61.2831 44.8766 61.1893 44.7616 61.0641 44.6822C60.8913 44.5808 60.6824 44.546 60.4822 44.5852C60.242 44.6478 60.0231 44.7662 59.8462 44.929C59.6693 45.0918 59.5404 45.2937 59.4715 45.5154C59.2602 46.0098 59.1821 46.5442 59.244 47.0727C59.3797 48.1769 60.0797 49.1678 60.9591 49.3337C61.1219 49.3641 61.29 49.3606 61.4512 49.3235C61.6123 49.2864 61.7626 49.2167 61.891 49.1193C62.0616 48.9535 62.0835 48.8281 62.0616 48.82Z" fill="#EB996E"/>
<path d="M87.4681 16.009H87.5994C87.7284 16.0165 87.8569 16.03 87.9844 16.0495C88.4731 16.1291 88.9436 16.2851 89.3757 16.5106C90.0631 16.8688 90.6481 17.3735 91.082 17.9829C91.6793 18.7916 91.9389 19.7732 91.8127 20.7454C91.6299 21.9249 90.9604 22.9932 89.9445 23.7264C89.3772 24.1272 88.719 24.4037 88.0194 24.5353C87.2623 24.6561 86.4833 24.5587 85.7881 24.2563C85.4118 24.1121 85.0803 23.8835 84.8236 23.5911C84.5669 23.2987 84.3932 22.9518 84.318 22.5817C84.2619 22.1889 84.3319 21.7894 84.5193 21.433C84.7137 21.0808 84.9883 20.7717 85.3243 20.527C86.0071 20.0388 86.8095 19.7137 87.6606 19.5805C88.5262 19.4328 89.4104 19.4014 90.2857 19.4875C92.0262 19.6343 93.6525 20.3516 94.8709 21.5099C95.4396 22.0421 95.8874 22.6742 96.1879 23.3688C96.4885 24.0634 96.6357 24.8066 96.621 25.5546C96.5262 26.9097 95.9528 28.1985 94.989 29.2232C94.1709 30.1165 93.1449 30.8273 91.9877 31.3022C90.3117 31.9583 88.5094 32.294 86.6893 32.2891C86.0506 32.2891 85.5562 32.2891 85.2193 32.2648L84.8386 32.2365C84.795 32.2409 84.751 32.2409 84.7074 32.2365C84.7074 32.2365 84.7511 32.2365 84.8386 32.2365H85.193C85.5299 32.2365 86.0243 32.2365 86.6631 32.2123C88.4592 32.177 90.2306 31.8184 91.8783 31.1566C92.9986 30.6818 93.9898 29.9811 94.779 29.1059C95.7008 28.1162 96.2464 26.8744 96.3322 25.5708C96.345 24.8557 96.2034 24.1453 95.9156 23.4814C95.6279 22.8174 95.1999 22.2132 94.6565 21.704C93.4793 20.5976 91.9142 19.915 90.242 19.7787C88.5532 19.6372 86.7418 19.8313 85.5037 20.7576C85.1861 20.9446 84.9317 21.2102 84.7693 21.5242C84.6069 21.8382 84.543 22.188 84.585 22.5339C84.6269 22.8798 84.7729 23.2079 85.0065 23.4809C85.24 23.7539 85.5518 23.9609 85.9062 24.0783C86.5496 24.3628 87.2725 24.456 87.9756 24.3452C88.6398 24.2251 89.2646 23.9634 89.8001 23.5808C90.7787 22.8897 91.4295 21.8748 91.6158 20.7495C91.7486 19.8185 91.5124 18.8745 90.9507 18.0921C90.5386 17.4938 89.9813 16.9925 89.3232 16.6279C88.7536 16.3132 88.1238 16.1031 87.4681 16.009Z" fill="white"/>
<path d="M79.4747 51.9789C79.4135 51.9344 79.606 51.627 79.9122 51.2953C80.2185 50.9637 80.5029 50.7291 80.5641 50.7776C80.6254 50.8261 80.4329 51.1295 80.1266 51.4652C79.8204 51.8009 79.5316 52.0315 79.4747 51.9789Z" fill="#263238"/>
<path d="M80.7479 52.2499C80.6867 52.2094 80.8398 51.9061 81.0979 51.5744C81.3561 51.2428 81.6142 51.0082 81.6755 51.0486C81.7367 51.089 81.588 51.3965 81.3298 51.7281C81.0717 52.0598 80.8179 52.2944 80.7479 52.2499Z" fill="#263238"/>
<path d="M81.903 52.7878C81.8286 52.7676 81.903 52.3833 82.113 51.9505C82.323 51.5178 82.6205 51.2346 82.6861 51.2751C82.7517 51.3155 82.5811 51.6553 82.3711 52.084C82.1611 52.5128 81.9817 52.8202 81.903 52.7878Z" fill="#263238"/>
<path d="M83.3468 52.7313C83.268 52.7313 83.2811 52.3753 83.373 51.9709C83.4649 51.5664 83.6049 51.2469 83.6793 51.263C83.7536 51.2792 83.7449 51.619 83.653 52.0235C83.5611 52.4279 83.443 52.7475 83.3468 52.7313Z" fill="#263238"/>
<path d="M84.5281 53.2207C84.4494 53.2207 84.4581 52.8162 84.55 52.3551C84.6419 51.894 84.7731 51.5219 84.8519 51.5462C84.9306 51.5704 84.9219 51.9506 84.83 52.4077C84.7381 52.8648 84.6069 53.2328 84.5281 53.2207Z" fill="#263238"/>
<path d="M85.9499 53.2166C85.8712 53.2166 85.8143 52.9011 85.8274 52.5128C85.8405 52.1245 85.9105 51.8171 85.9893 51.8171C86.068 51.8171 86.1249 52.1367 86.1118 52.5209C86.0987 52.9052 86.0287 53.2166 85.9499 53.2166Z" fill="#263238"/>
<path d="M87.1444 53.6534C87.0656 53.6534 86.9956 53.2166 86.9125 52.6827C86.818 52.3614 86.7927 52.0261 86.8381 51.6958C86.9125 51.6755 87.1094 52.1002 87.1969 52.6463C87.2844 53.1923 87.2231 53.6534 87.1444 53.6534Z" fill="#263238"/>
<path d="M88.2557 53.2369C88.177 53.2369 88.0545 52.9375 87.9888 52.5452C87.9232 52.1529 87.9232 51.8212 87.9888 51.8091C88.0545 51.7969 88.1857 52.1084 88.2557 52.5007C88.3257 52.893 88.3476 53.2247 88.2557 53.2369Z" fill="#263238"/>
<path d="M89.5201 53.0832C89.4413 53.0832 89.3319 52.885 89.2707 52.6059C89.2094 52.3268 89.2269 52.0963 89.3057 52.0801C89.3844 52.0639 89.4938 52.2783 89.5507 52.5574C89.6076 52.8364 89.5944 53.067 89.5201 53.0832Z" fill="#263238"/>
<path d="M87.9144 59.3525C87.8881 59.3889 87.6387 59.2433 87.2012 59.1018C86.6384 58.9152 86.0371 58.8496 85.4427 58.9098C84.8484 58.9701 84.2767 59.1547 83.7711 59.4496C83.3773 59.6761 83.1673 59.8541 83.1367 59.8339C83.1061 59.8136 83.2723 59.575 83.6573 59.2959C84.1668 58.9336 84.7743 58.7079 85.4134 58.6437C86.0524 58.5795 86.6982 58.6792 87.28 58.9319C87.7175 59.126 87.9319 59.3283 87.9144 59.3525Z" fill="#EB996E"/>
<path d="M79.5054 41.0137C79.5317 41.0137 79.6104 41.0986 79.6717 41.3009C79.7485 41.5918 79.7485 41.8956 79.6717 42.1866C79.5678 42.6307 79.3189 43.0345 78.9585 43.3434C78.5013 43.7147 77.9133 43.919 77.3047 43.9178C76.2669 43.9326 75.2401 43.7206 74.3077 43.2989C73.599 42.9754 73.2402 42.668 73.2708 42.6235C73.6715 42.7246 74.0611 42.86 74.4346 43.028C75.3456 43.3475 76.3129 43.5079 77.2872 43.5012C77.7937 43.5042 78.2861 43.3473 78.6829 43.0563C78.9985 42.8059 79.2332 42.4797 79.361 42.1138C79.4553 41.7536 79.5038 41.3843 79.5054 41.0137Z" fill="#263238"/>
<path d="M93.0683 39.6627C93.1121 39.6425 93.3571 40.0348 93.2652 40.7265C93.2103 41.1325 93.0397 41.5178 92.7708 41.8428C92.6073 42.0434 92.4001 42.2101 92.1627 42.3323C91.9087 42.4602 91.6284 42.5374 91.3401 42.5588C90.385 42.604 89.436 42.3948 88.6056 41.9561C87.98 41.6204 87.6825 41.313 87.7306 41.2725C88.0885 41.3751 88.4345 41.5106 88.7632 41.677C89.5613 42.0075 90.4313 42.1625 91.3051 42.13C91.527 42.1171 91.7437 42.0628 91.9422 41.9704C92.1408 41.8779 92.3169 41.7492 92.4602 41.5921C92.7012 41.3208 92.8731 41.0028 92.9633 40.6618C93.1208 40.0753 93.0027 39.6789 93.0683 39.6627Z" fill="#263238"/>
<path d="M85.7618 54.7173C85.7618 54.7658 85.5299 54.9316 85.053 55.057C84.4226 55.2036 83.7628 55.2036 83.1323 55.057C82.5026 54.9218 81.9192 54.6438 81.4348 54.2481C81.0716 53.9366 80.9316 53.6818 80.9973 53.6494C81.0629 53.6171 81.9029 54.3735 83.2636 54.6606C84.6243 54.9478 85.7181 54.6 85.7618 54.7173Z" fill="#263238"/>
<path d="M86.9432 56.3715C86.9432 56.3715 87.0001 56.2987 87.127 56.1571L87.6914 55.5221C87.8227 55.3846 87.9495 55.2187 88.1289 55.061L88.7021 54.5513C88.9164 54.3734 89.1396 54.1469 89.3846 53.9729C89.6296 53.799 89.9227 53.5685 90.2202 53.3743C91.7011 52.3892 93.3521 51.6438 95.1029 51.1699C95.6104 51.0081 96.153 50.9192 96.7086 50.7978C97.2643 50.6765 97.8462 50.6037 98.4587 50.5592C99.7338 50.4295 101.021 50.4295 102.296 50.5592H102.331L102.353 50.5915C103.118 51.9426 103.804 53.3306 104.409 54.7495C105.07 56.2299 105.721 57.7952 106.378 59.4333C107.124 61.1415 107.317 63.0132 106.933 64.8209C106.682 65.7781 106.223 66.6779 105.582 67.4651C104.942 68.2524 104.135 68.9107 103.21 69.3996L103.263 69.2742C105.402 74.1279 107.752 79.4305 110.202 84.9759L110.079 84.9112C111.666 84.6888 113.266 84.5537 114.87 84.5067C115.362 84.4972 115.854 84.512 116.344 84.5512C116.854 84.5696 117.349 84.7089 117.784 84.9556C117.841 85.0002 117.891 85.0519 117.933 85.1093C117.976 85.1805 117.989 85.2645 117.968 85.3439C117.925 85.4674 117.852 85.5798 117.753 85.6716C117.578 85.8353 117.386 85.983 117.18 86.1124C116.782 86.3652 116.367 86.5949 115.937 86.8C114.264 87.6013 112.538 88.3064 110.77 88.9114C109.895 89.2107 109.02 89.4938 108.145 89.7203C107.708 89.8417 107.27 89.959 106.833 90.0439C106.608 90.0907 106.38 90.1231 106.15 90.141C106.024 90.1509 105.897 90.1414 105.774 90.1127C105.733 90.1003 105.695 90.0798 105.663 90.0526C105.631 90.0253 105.607 89.992 105.59 89.955C105.562 89.8975 105.546 89.8358 105.542 89.7729C105.584 89.3426 105.734 88.9272 105.98 88.5595C106.19 88.1914 106.417 87.8436 106.662 87.5038C107.148 86.8243 107.664 86.1731 108.198 85.5462V85.6473C105.573 80.0049 103.136 74.8478 101.036 70.3703L101.132 70.4188C99.4656 70.712 97.7423 70.533 96.188 69.9052C95.8279 69.7567 95.4773 69.5892 95.1379 69.4036C94.8229 69.1973 94.4904 69.0234 94.206 68.7969L93.7685 68.4774L93.3616 68.1336C93.0904 67.9111 92.8585 67.6603 92.6091 67.4257C91.7361 66.5328 90.9663 65.5582 90.3121 64.5176C89.7641 63.6386 89.2747 62.7295 88.8464 61.7955C88.2496 60.5017 87.744 59.1736 87.3326 57.8195C87.1926 57.3543 87.1008 57.0105 87.0395 56.7557C86.9783 56.5009 86.9607 56.3876 86.9607 56.3876L87.0658 56.7517C87.1314 56.9903 87.2364 57.3463 87.3851 57.8074C87.8138 59.1531 88.3325 60.4729 88.9383 61.7591C89.3718 62.6865 89.8656 63.5888 90.4171 64.4609C91.0612 65.5003 91.8223 66.4737 92.6878 67.3651C92.9329 67.5916 93.1647 67.8424 93.436 68.0608L93.8385 68.3965L94.276 68.712C94.5604 68.9344 94.8885 69.1164 95.2036 69.3065C95.5358 69.4892 95.8807 69.6513 96.2361 69.7919C97.7595 70.4052 99.4486 70.5759 101.079 70.2813H101.149L101.176 70.342C103.289 74.8155 105.721 79.9685 108.377 85.6068L108.403 85.6594L108.364 85.708C107.835 86.3268 107.323 86.974 106.846 87.6494C106.605 87.9852 106.378 88.333 106.172 88.6889C105.949 89.0247 105.809 89.4017 105.761 89.7932C105.761 89.8781 105.8 89.9509 105.844 89.955C105.941 89.972 106.04 89.972 106.137 89.955C106.355 89.9392 106.571 89.9094 106.785 89.866C107.222 89.781 107.66 89.6678 108.097 89.5464C108.972 89.3037 109.847 89.0206 110.696 88.7375C112.449 88.1257 114.16 87.4152 115.819 86.6099C116.237 86.4046 116.643 86.1791 117.036 85.9345C117.228 85.8172 117.407 85.6816 117.569 85.53C117.641 85.4653 117.697 85.3865 117.731 85.2994C117.731 85.2631 117.731 85.2347 117.731 85.2145C117.702 85.1801 117.67 85.1476 117.635 85.1174C117.234 84.9078 116.783 84.7912 116.322 84.7777C115.841 84.7385 115.358 84.7236 114.874 84.7332C113.28 84.7804 111.691 84.9154 110.114 85.1377H110.027L109.992 85.0649C107.546 79.5155 105.179 74.2047 103.066 69.3551L103.031 69.2782L103.114 69.2337C104.012 68.7578 104.797 68.118 105.42 67.3532C106.042 66.5883 106.49 65.7144 106.736 64.7845C107.116 63.0098 106.927 61.1712 106.194 59.494C105.542 57.8559 104.881 56.2906 104.243 54.8102C103.647 53.3968 102.969 52.0142 102.213 50.6684L102.269 50.7007C101.006 50.5734 99.731 50.5734 98.4674 50.7007C97.868 50.7412 97.2949 50.8464 96.7174 50.9272C96.1398 51.0081 95.6236 51.1335 95.1204 51.2913C93.3819 51.7553 91.7391 52.4839 90.2596 53.4471L89.424 54.0336C89.1571 54.2156 88.9515 54.4381 88.7371 54.6039C88.5227 54.7698 88.3389 54.9518 88.1595 55.1014C87.9802 55.2511 87.8577 55.421 87.722 55.5504L87.1401 56.1692L86.9432 56.3715Z" fill="#263238"/>
<path d="M92.9677 66.4187C94.0615 67.3651 95.3916 68.4006 96.8179 68.8455C98.4206 69.33 100.164 69.2228 101.683 68.5462C103.038 67.9225 104.15 66.9264 104.868 65.6947C105.408 64.7548 105.708 63.7128 105.743 62.649C105.713 61.658 104.868 60.6266 103.954 60.1129C103.039 59.5992 101.911 59.6073 100.891 59.7772C100.016 59.9228 99.1017 60.1614 98.2661 59.8905C97.4304 59.6195 96.9185 58.9804 96.3191 58.4303C95.3376 57.5295 94.1376 56.8584 92.819 56.4726C92.1532 56.2326 91.419 56.2084 90.7364 56.4039C90.3722 56.5579 90.0544 56.7922 89.8111 57.0863C89.5677 57.3804 89.4062 57.7252 89.3407 58.0905C89.2188 58.8225 89.2848 59.5707 89.5332 60.2747C90.2158 62.5236 91.5721 64.5176 93.0334 66.4308" fill="#FF725E"/>
<path opacity="0.2" d="M92.9677 66.4187C94.0615 67.3651 95.3916 68.4006 96.8179 68.8455C98.4206 69.33 100.164 69.2228 101.683 68.5462C103.038 67.9225 104.15 66.9264 104.868 65.6947C105.408 64.7548 105.708 63.7128 105.743 62.649C105.713 61.658 104.868 60.6266 103.954 60.1129C103.039 59.5992 101.911 59.6073 100.891 59.7772C100.016 59.9228 99.1017 60.1614 98.2661 59.8905C97.4304 59.6195 96.9185 58.9804 96.3191 58.4303C95.3376 57.5295 94.1376 56.8584 92.819 56.4726C92.1532 56.2326 91.419 56.2084 90.7364 56.4039C90.3722 56.5579 90.0544 56.7922 89.8111 57.0863C89.5677 57.3804 89.4062 57.7252 89.3407 58.0905C89.2188 58.8225 89.2848 59.5707 89.5332 60.2747C90.2158 62.5236 91.5721 64.5176 93.0334 66.4308" fill="black"/>
<path d="M102.256 50.4541C102.115 50.6172 101.959 50.77 101.793 50.9112C101.644 51.0527 101.451 51.2267 101.219 51.4127C100.988 51.5988 100.729 51.8172 100.419 52.0396C99.7081 52.5689 98.9613 53.0553 98.183 53.4957C96.2702 54.5715 94.1916 55.3721 92.0184 55.87C91.1326 56.0707 90.2339 56.2193 89.3277 56.3149C88.9427 56.3635 88.5883 56.3756 88.282 56.3958C88.0187 56.4167 87.7544 56.4248 87.4901 56.4201C87.266 56.439 87.0405 56.439 86.8163 56.4201C87.0372 56.3824 87.2612 56.3621 87.4857 56.3594C87.7001 56.3594 87.967 56.3311 88.2733 56.2988C88.5795 56.2664 88.9252 56.2462 89.3058 56.1855C90.2018 56.0706 91.0899 55.9086 91.9659 55.7001C93.0366 55.4398 94.0875 55.1142 95.1117 54.7253C96.1301 54.3266 97.1195 53.8673 98.0736 53.3501C98.8511 52.9222 99.6006 52.4522 100.318 51.9426C100.633 51.7363 100.896 51.5381 101.136 51.3439C101.377 51.1498 101.574 51.0042 101.736 50.8707C101.893 50.7154 102.067 50.5758 102.256 50.4541Z" fill="#263238"/>
<path d="M91.839 82.3145L99.058 71.9033C99.058 71.9033 110.705 68.0608 111.383 69.2338C112.061 70.4068 110.696 71.7982 110.696 71.7982C110.696 71.7982 113.242 72.4656 112.884 74.3342C112.525 76.2029 112.118 76.482 112.118 76.482C112.118 76.482 114.065 76.9269 113.627 77.7399C113.248 78.3759 112.809 78.9795 112.315 79.5439C112.315 79.5439 113.719 80.284 113.422 81.186C113.124 82.088 110.267 84.7697 110.267 84.7697L102.317 87.3987L102.383 89.6436L91.2483 86.0033L91.839 82.3145Z" fill="#FFBE9D"/>
<g opacity="0.2">
<path opacity="0.2" d="M101.757 53.702C103.184 55.7244 103.678 57.5364 104.234 59.9067C104.671 61.7511 104.794 63.737 103.98 65.4641C103.166 67.1912 101.189 68.5543 99.1673 68.2752C98.5413 68.2115 97.9645 67.9312 97.5529 67.4905C97.3509 67.268 97.2278 66.9934 97.2004 66.7039C97.173 66.4145 97.2426 66.1243 97.3997 65.8727C97.8373 65.2295 98.8173 65.1689 99.5873 64.8776C100.979 64.3437 101.775 62.9038 101.823 61.5124C101.871 60.121 101.246 58.7822 100.462 57.5931C100.017 57.0017 99.6529 56.3618 99.3773 55.688C99.2469 55.3504 99.2114 54.9877 99.2741 54.634C99.3369 54.2802 99.4958 53.947 99.7361 53.6656C100.265 53.1358 101.342 53.0994 101.757 53.7101" fill="white"/>
</g>
<path d="M18.2836 123.753C20.5149 123.842 22.5975 124.966 24.0544 126.544C25.4635 128.156 26.4557 130.044 26.9551 132.065C28.0358 135.932 27.3051 140.478 26.0801 144.308C21.5781 142.779 18.8304 138.302 17.5923 135.952C15.6366 132.235 14.5297 124.42 18.2836 123.753Z" fill="#455A64"/>
<path d="M32.5379 149.053C31.1291 147.148 31.1203 144.519 32.2666 142.468C32.8721 141.457 33.6892 140.568 34.6702 139.852C35.6512 139.136 36.7765 138.608 37.9806 138.298C39.0875 137.994 40.3694 137.873 41.3232 138.472C41.7508 138.778 42.0821 139.184 42.2828 139.649C42.4836 140.113 42.5465 140.619 42.4651 141.113C42.2889 142.099 41.8363 143.025 41.1526 143.799C38.93 146.533 36.2393 148.798 32.551 149.057" fill="#455A64"/>
<path d="M32.096 159.023C32.0348 159.023 31.7898 158.052 31.5447 156.43C31.4123 155.473 31.402 154.506 31.5141 153.546C31.6155 152.374 31.7997 151.21 32.0654 150.06C32.5631 147.95 33.6149 145.986 35.128 144.341C35.5981 143.856 36.1199 143.417 36.6856 143.03C36.8846 142.876 37.1112 142.756 37.355 142.674C37.4075 142.739 36.4799 143.301 35.3905 144.547C33.9998 146.2 33.0266 148.119 32.5423 150.165C32.2819 151.295 32.0877 152.437 31.9604 153.587C31.8289 154.526 31.8055 155.475 31.8904 156.418C32.0391 158.008 32.1704 159.015 32.096 159.023Z" fill="#263238"/>
<path d="M19.6837 129.638C19.9396 130.023 20.1564 130.429 20.3312 130.851C20.7206 131.632 21.2675 132.769 21.9281 134.176C23.2407 137.008 25.0257 140.903 26.8764 145.267C28.7271 149.631 30.2759 153.627 31.3347 156.54C31.8641 157.996 32.2754 159.177 32.5423 160.002C32.7097 160.42 32.8342 160.852 32.9142 161.292C32.6969 160.902 32.514 160.496 32.3673 160.079C32.0173 159.197 31.5622 158.056 31.011 156.665C29.8734 153.781 28.2721 149.813 26.4258 145.449C24.5795 141.085 22.8775 137.238 21.6131 134.318C21.0225 132.947 20.5324 131.81 20.1606 130.94C19.9592 130.521 19.7996 130.085 19.6837 129.638Z" fill="#263238"/>
<path d="M28.0358 152.264C26.3968 150.353 24.2893 148.83 21.8876 147.821C19.4858 146.811 16.8587 146.345 14.2234 146.46C12.9109 146.533 11.3227 146.929 10.8895 148.098C10.4564 149.267 11.4277 150.481 12.4558 151.273C14.6355 152.899 17.2872 153.892 20.0763 154.126C22.8655 154.36 25.6671 153.824 28.1277 152.588" fill="#455A64"/>
<path d="M16.8223 149.178C17.0718 149.134 17.3273 149.127 17.5792 149.158C18.0692 149.158 18.7736 149.231 19.6399 149.324C21.921 149.558 24.1364 150.176 26.1764 151.148C27.2897 151.719 28.2958 152.452 29.1559 153.32C29.854 154.034 30.4428 154.833 30.9059 155.694C31.2126 156.269 31.4601 156.869 31.6453 157.486C31.7401 157.705 31.792 157.938 31.7985 158.174C31.7066 158.202 31.4135 157.239 30.5997 155.84C30.1178 155.03 29.53 154.277 28.8496 153.599C28.006 152.781 27.0323 152.087 25.962 151.54C23.6738 150.375 21.2937 149.922 19.6093 149.635C17.9248 149.348 16.8135 149.251 16.8223 149.178Z" fill="#263238"/>
<path d="M125.536 139.289C125.536 139.289 122.622 153.968 132.283 155.853L132.589 171.255C132.589 171.255 127.378 173.164 127.593 173.973C127.807 174.782 139.76 175.033 139.441 173.819C139.121 172.606 134.374 171.336 134.374 171.336L134.444 155.642C134.444 155.642 140.596 155.238 140.88 148.24C141.164 141.243 140.828 139.374 140.828 139.374C140.828 139.374 133.188 135.123 125.536 139.289Z" fill="white"/>
<path d="M125.537 139.289C125.537 139.289 125.611 139.244 125.777 139.163L126.504 138.803C126.665 138.726 126.84 138.625 127.046 138.548L127.729 138.298C127.978 138.217 128.236 138.1 128.534 138.023L129.474 137.784C131.116 137.43 132.811 137.332 134.488 137.497C134.983 137.525 135.481 137.626 136.002 137.699C136.523 137.772 137.052 137.905 137.586 138.063C138.726 138.368 139.826 138.787 140.867 139.313H140.902V139.345C141.041 140.753 141.098 142.167 141.073 143.58C141.073 145.061 141.029 146.614 140.968 148.228C140.953 149.933 140.402 151.598 139.384 153.021C138.803 153.758 138.065 154.378 137.216 154.843C136.367 155.308 135.424 155.607 134.445 155.722L134.545 155.625C134.545 160.479 134.506 165.778 134.484 171.319L134.401 171.218C135.684 171.562 136.931 172.016 138.124 172.573C138.527 172.765 138.898 173.008 139.227 173.297C139.309 173.375 139.381 173.462 139.441 173.556C139.474 173.604 139.501 173.655 139.52 173.709C139.55 173.774 139.559 173.846 139.546 173.916C139.525 173.978 139.49 174.035 139.443 174.084C139.396 174.133 139.339 174.172 139.275 174.199C139.172 174.25 139.066 174.294 138.955 174.328C138.105 174.531 137.234 174.647 136.356 174.676C134.655 174.767 132.948 174.767 131.246 174.676C130.411 174.628 129.579 174.571 128.757 174.45C128.551 174.417 128.346 174.381 128.144 174.332C128.04 174.31 127.938 174.282 127.838 174.247C127.721 174.212 127.614 174.151 127.527 174.069C127.487 174.014 127.465 173.948 127.465 173.881C127.465 173.814 127.487 173.749 127.527 173.693C127.586 173.604 127.656 173.523 127.737 173.451C127.892 173.319 128.057 173.199 128.232 173.091C128.913 172.689 129.623 172.332 130.358 172.023C131.08 171.711 131.806 171.42 132.546 171.153L132.48 171.246C132.371 165.559 132.274 160.358 132.191 155.84L132.257 155.917C130.719 155.625 129.314 154.909 128.227 153.862C127.975 153.619 127.738 153.363 127.519 153.093C127.326 152.814 127.107 152.555 126.95 152.284L126.7 151.88C126.626 151.738 126.556 151.593 126.486 151.455C126.333 151.176 126.232 150.885 126.11 150.606C125.715 149.55 125.439 148.458 125.287 147.35C125.158 146.42 125.088 145.484 125.077 144.547C125.059 143.245 125.133 141.944 125.3 140.652C125.362 140.207 125.419 139.871 125.458 139.645C125.476 139.53 125.501 139.417 125.532 139.305C125.532 139.305 125.532 139.418 125.484 139.649C125.436 139.879 125.405 140.215 125.353 140.656C125.207 141.947 125.147 143.245 125.174 144.543C125.194 145.478 125.273 146.411 125.41 147.338C125.563 148.441 125.843 149.526 126.245 150.573C126.368 150.849 126.469 151.136 126.617 151.411C126.687 151.548 126.762 151.69 126.832 151.815L127.081 152.22C127.254 152.498 127.442 152.768 127.646 153.029C127.859 153.293 128.092 153.545 128.341 153.781C129.406 154.798 130.779 155.495 132.279 155.779H132.344V155.844C132.441 160.362 132.55 165.551 132.673 171.25V171.319L132.603 171.343C131.885 171.61 131.163 171.901 130.45 172.213C129.723 172.517 129.022 172.87 128.35 173.269C128.188 173.369 128.034 173.482 127.891 173.604C127.822 173.661 127.763 173.726 127.716 173.798C127.697 173.82 127.685 173.845 127.679 173.871C127.673 173.898 127.673 173.926 127.681 173.952C127.828 174.048 127.997 174.113 128.175 174.142C128.367 174.187 128.569 174.223 128.77 174.255C129.575 174.373 130.406 174.433 131.238 174.478C132.931 174.565 134.628 174.565 136.321 174.478C137.178 174.449 138.029 174.334 138.859 174.134C139.043 174.077 139.297 173.98 139.297 173.875C139.291 173.801 139.264 173.73 139.218 173.669C139.165 173.589 139.103 173.515 139.034 173.446C138.721 173.176 138.369 172.948 137.988 172.767C136.811 172.215 135.581 171.767 134.313 171.428L134.23 171.404V171.327C134.256 165.786 134.283 160.479 134.305 155.633V155.544H134.405C135.354 155.432 136.267 155.142 137.091 154.693C137.914 154.244 138.631 153.644 139.196 152.932C140.193 151.539 140.734 149.91 140.754 148.24C140.819 146.622 140.867 145.077 140.872 143.6C140.918 142.195 140.88 140.788 140.758 139.386L140.797 139.438C139.769 138.915 138.682 138.496 137.555 138.188C137.026 138.031 136.496 137.93 135.985 137.82C135.473 137.711 134.974 137.638 134.484 137.61C132.821 137.437 131.138 137.523 129.505 137.865L128.564 138.091C128.271 138.16 128.013 138.277 127.759 138.354L127.077 138.593C126.871 138.67 126.696 138.767 126.534 138.836L125.799 139.175L125.537 139.289Z" fill="#263238"/>
<path d="M140.871 139.216C140.689 139.311 140.499 139.392 140.303 139.459C140.119 139.531 139.891 139.616 139.62 139.701C139.349 139.786 139.043 139.895 138.693 139.98C137.883 140.202 137.059 140.373 136.225 140.494C134.179 140.795 132.095 140.801 130.047 140.514C129.213 140.395 128.387 140.228 127.575 140.013C127.225 139.928 126.919 139.823 126.648 139.738C126.377 139.653 126.149 139.576 125.961 139.503C125.763 139.439 125.573 139.358 125.392 139.26C125.597 139.297 125.798 139.351 125.992 139.422C126.178 139.487 126.41 139.556 126.687 139.628C126.963 139.701 127.269 139.794 127.615 139.867C128.424 140.061 129.245 140.212 130.074 140.32C131.089 140.444 132.112 140.509 133.136 140.514C134.161 140.504 135.184 140.434 136.199 140.304C137.027 140.189 137.848 140.033 138.658 139.835C139.003 139.758 139.31 139.665 139.581 139.588C139.852 139.511 140.088 139.442 140.276 139.382C140.468 139.309 140.668 139.253 140.871 139.216Z" fill="#263238"/>
<path d="M126.097 145.598C126.425 147.41 126.783 149.239 127.707 150.877C128.63 152.515 130.214 153.91 132.165 154.242C134.444 154.647 136.816 153.433 138.085 151.645C139.353 149.858 140.158 147.382 139.835 145.267C139.832 145.161 139.791 145.06 139.717 144.979C139.644 144.898 139.544 144.843 139.432 144.822C138.97 144.657 138.472 144.597 137.979 144.644C137.583 144.781 137.202 144.955 136.842 145.162C135.171 145.971 133.158 145.639 131.312 145.307C129.465 144.976 128.043 144.434 126.114 145.598" fill="#FF725E"/>
<path opacity="0.2" d="M126.097 145.598C126.425 147.41 126.783 149.239 127.707 150.877C128.63 152.515 130.214 153.91 132.165 154.242C134.444 154.647 136.816 153.433 138.085 151.645C139.353 149.858 140.158 147.382 139.835 145.267C139.832 145.161 139.791 145.06 139.717 144.979C139.644 144.898 139.544 144.843 139.432 144.822C138.97 144.657 138.472 144.597 137.979 144.644C137.583 144.781 137.202 144.955 136.842 145.162C135.171 145.971 133.158 145.639 131.312 145.307C129.465 144.976 128.043 144.434 126.114 145.598" fill="black"/>
<g opacity="0.2">
<path opacity="0.2" d="M139.213 141.833C139.651 144.041 139.393 145.74 138.955 147.948C138.618 149.663 137.975 151.407 136.619 152.62C135.263 153.834 133.053 154.351 131.434 153.453C130.919 153.191 130.531 152.757 130.349 152.24C130.263 151.985 130.264 151.711 130.351 151.456C130.438 151.201 130.606 150.976 130.835 150.812C131.469 150.408 132.318 150.675 133.084 150.675C134.479 150.675 135.709 149.704 136.282 148.527C136.779 147.316 136.895 145.998 136.614 144.729C136.459 144.079 136.391 143.413 136.413 142.747C136.431 142.414 136.541 142.092 136.73 141.809C136.92 141.526 137.184 141.292 137.498 141.129C138.155 140.854 139.091 141.174 139.213 141.829" fill="white"/>
</g>
</svg>
