<svg width="118" height="37" viewBox="0 0 118 37" fill="none" xmlns="http://www.w3.org/2000/svg">
<g filter="url(#filter0_dd)">
<rect width="86" height="28.7631" transform="translate(12)" fill="#EC414B"/>
<path d="M26.97 19.89C26.89 19.9567 26.74 20.0467 26.52 20.16C26.3067 20.2733 26.0433 20.3733 25.73 20.46C25.4167 20.5467 25.07 20.5867 24.69 20.58C24.11 20.5667 23.59 20.4633 23.13 20.27C22.6767 20.07 22.29 19.8 21.97 19.46C21.6567 19.12 21.4167 18.73 21.25 18.29C21.0833 17.85 21 17.38 21 16.88C21 16.1333 21.15 15.4733 21.45 14.9C21.75 14.3267 22.1667 13.8767 22.7 13.55C23.24 13.2233 23.8667 13.06 24.58 13.06C25.0733 13.06 25.51 13.1267 25.89 13.26C26.27 13.3933 26.58 13.5367 26.82 13.69L26.25 15.06C26.0833 14.9333 25.86 14.8033 25.58 14.67C25.3067 14.53 24.99 14.46 24.63 14.46C24.2567 14.46 23.9067 14.5633 23.58 14.77C23.26 14.9767 23 15.2567 22.8 15.61C22.6067 15.9567 22.51 16.3533 22.51 16.8C22.51 17.2733 22.6 17.69 22.78 18.05C22.96 18.4033 23.2167 18.68 23.55 18.88C23.8833 19.08 24.2733 19.18 24.72 19.18C25.1133 19.18 25.45 19.1167 25.73 18.99C26.01 18.8633 26.2233 18.73 26.37 18.59L26.97 19.89ZM28.5927 20.5L31.9127 12.85H31.9927L35.3127 20.5H33.6327L33.0627 19.06H30.6227L30.0227 20.5H28.5927ZM31.1327 17.84H32.5827L31.8727 16.05L31.1327 17.84ZM37.3855 20.5V13.14H39.5855C40.3255 13.14 40.9555 13.25 41.4755 13.47C41.9955 13.69 42.4122 13.9833 42.7255 14.35C43.0455 14.7167 43.2789 15.1267 43.4255 15.58C43.5722 16.0333 43.6455 16.49 43.6455 16.95C43.6455 17.4967 43.5455 17.99 43.3455 18.43C43.1522 18.8633 42.8855 19.2367 42.5455 19.55C42.2055 19.8567 41.8122 20.0933 41.3655 20.26C40.9189 20.42 40.4455 20.5 39.9455 20.5H37.3855ZM38.8355 19.1H39.6955C40.4289 19.1 41.0189 18.91 41.4655 18.53C41.9189 18.15 42.1455 17.59 42.1455 16.85C42.1455 16.37 42.0655 15.98 41.9055 15.68C41.7522 15.3733 41.5589 15.1367 41.3255 14.97C41.0989 14.8033 40.8655 14.69 40.6255 14.63C40.3855 14.5633 40.1822 14.53 40.0155 14.53H38.8355V19.1ZM44.7723 20.5L48.0923 12.85H48.1723L51.4923 20.5H49.8123L49.2423 19.06H46.8023L46.2023 20.5H44.7723ZM47.3123 17.84H48.7623L48.0523 16.05L47.3123 17.84ZM57.4952 14.92C57.2152 14.7667 56.9286 14.64 56.6352 14.54C56.3486 14.44 56.0786 14.39 55.8252 14.39C55.5119 14.39 55.2652 14.4533 55.0852 14.58C54.9052 14.7067 54.8152 14.8967 54.8152 15.15C54.8152 15.3233 54.8819 15.48 55.0152 15.62C55.1552 15.7533 55.3319 15.8733 55.5452 15.98C55.7652 16.0867 55.9919 16.1833 56.2252 16.27C56.5119 16.3767 56.7886 16.5133 57.0552 16.68C57.3219 16.84 57.5419 17.0633 57.7152 17.35C57.8886 17.63 57.9752 18.0033 57.9752 18.47C57.9752 18.8433 57.8786 19.19 57.6852 19.51C57.4919 19.83 57.2086 20.09 56.8352 20.29C56.4619 20.4833 56.0019 20.58 55.4552 20.58C55.0352 20.58 54.6052 20.5167 54.1652 20.39C53.7319 20.2633 53.3219 20.0633 52.9352 19.79L53.5752 18.66C53.8286 18.8467 54.1186 19 54.4452 19.12C54.7719 19.24 55.0652 19.3 55.3252 19.3C55.4986 19.3 55.6719 19.2767 55.8452 19.23C56.0252 19.1767 56.1719 19.09 56.2852 18.97C56.4052 18.85 56.4652 18.6833 56.4652 18.47C56.4652 18.25 56.3586 18.06 56.1452 17.9C55.9386 17.7333 55.6886 17.5933 55.3952 17.48C55.1686 17.3933 54.9352 17.2933 54.6952 17.18C54.4552 17.0667 54.2286 16.93 54.0152 16.77C53.8086 16.6033 53.6386 16.4 53.5052 16.16C53.3786 15.9133 53.3152 15.6133 53.3152 15.26C53.3152 14.8333 53.4086 14.4633 53.5952 14.15C53.7886 13.8367 54.0586 13.59 54.4052 13.41C54.7519 13.2233 55.1519 13.12 55.6052 13.1C56.1986 13.1 56.6786 13.17 57.0452 13.31C57.4186 13.45 57.7519 13.6167 58.0452 13.81L57.4952 14.92ZM59.8953 13.14H64.8553V14.54H63.0653V20.5H61.6153V14.54H59.8953V13.14ZM69.4847 13.14C70.4114 13.14 71.1214 13.3667 71.6147 13.82C72.1147 14.2667 72.3647 14.8667 72.3647 15.62C72.3647 16.04 72.2747 16.4533 72.0947 16.86C71.9214 17.2667 71.6247 17.59 71.2047 17.83L72.9147 20.5H71.2247L69.6747 18.16H68.7047V20.5H67.2547V13.14H69.4847ZM69.7347 16.76C70.028 16.76 70.2547 16.7 70.4147 16.58C70.5814 16.4533 70.698 16.3067 70.7647 16.14C70.8314 15.9667 70.8647 15.81 70.8647 15.67C70.8647 15.59 70.8514 15.49 70.8247 15.37C70.8047 15.2433 70.758 15.1167 70.6847 14.99C70.6114 14.8633 70.498 14.7567 70.3447 14.67C70.198 14.5833 69.998 14.54 69.7447 14.54H68.7047V16.76H69.7347ZM74.2802 20.5L77.6002 12.85H77.6802L81.0002 20.5H79.3202L78.7502 19.06H76.3102L75.7102 20.5H74.2802ZM76.8202 17.84H78.2702L77.5602 16.05L76.8202 17.84ZM85.303 13.14C86.2297 13.14 86.9397 13.3667 87.433 13.82C87.933 14.2667 88.183 14.8667 88.183 15.62C88.183 16.04 88.093 16.4533 87.913 16.86C87.7397 17.2667 87.443 17.59 87.023 17.83L88.733 20.5H87.043L85.493 18.16H84.523V20.5H83.073V13.14H85.303ZM85.553 16.76C85.8464 16.76 86.073 16.7 86.233 16.58C86.3997 16.4533 86.5164 16.3067 86.583 16.14C86.6497 15.9667 86.683 15.81 86.683 15.67C86.683 15.59 86.6697 15.49 86.643 15.37C86.623 15.2433 86.5764 15.1167 86.503 14.99C86.4297 14.8633 86.3164 14.7567 86.163 14.67C86.0164 14.5833 85.8164 14.54 85.563 14.54H84.523V16.76H85.553Z" fill="white"/>
</g>
<defs>
<filter id="filter0_dd" x="0.5" y="0" width="117" height="36.7631" filterUnits="userSpaceOnUse" color-interpolation-filters="sRGB">
<feFlood flood-opacity="0" result="BackgroundImageFix"/>
<feColorMatrix in="SourceAlpha" type="matrix" values="0 0 0 0 0 0 0 0 0 0 0 0 0 0 0 0 0 0 127 0"/>
<feOffset dx="8" dy="8"/>
<feColorMatrix type="matrix" values="0 0 0 0 0.961818 0 0 0 0 0.680479 0 0 0 0 0.618182 0 0 0 1 0"/>
<feBlend mode="normal" in2="BackgroundImageFix" result="effect1_dropShadow"/>
<feColorMatrix in="SourceAlpha" type="matrix" values="0 0 0 0 0 0 0 0 0 0 0 0 0 0 0 0 0 0 127 0"/>
<feOffset dx="4" dy="4"/>
<feColorMatrix type="matrix" values="0 0 0 0 0.943636 0 0 0 0 0.528325 0 0 0 0 0.436364 0 0 0 1 0"/>
<feBlend mode="normal" in2="effect1_dropShadow" result="effect2_dropShadow"/>
<feBlend mode="normal" in="SourceGraphic" in2="effect2_dropShadow" result="shape"/>
</filter>
</defs>
</svg>
