<svg width="36" height="9" viewBox="0 0 36 9" fill="none" xmlns="http://www.w3.org/2000/svg">
<path d="M30.9274 8.89308L30.9107 8.87661L30.8884 8.86929C30.8509 8.85696 30.8181 8.84719 30.7905 8.84041C30.7679 8.83482 30.7433 8.82983 30.7207 8.82877C30.227 8.7586 29.7568 8.6076 29.3096 8.37553C28.8603 8.14231 28.471 7.85132 28.141 7.50269C27.8103 7.15322 27.5385 6.75708 27.3256 6.31384C27.114 5.87348 26.9966 5.41037 26.9731 4.92375L26.9732 4.92374L26.9729 4.91997C26.8781 3.82212 27.1207 2.85755 27.698 2.02109C28.2756 1.18411 29.0828 0.613818 30.1245 0.310294L30.1246 0.31035L30.1278 0.309285C30.1972 0.286461 30.2792 0.263325 30.374 0.23995L30.3501 0.142857L30.374 0.23995C30.4697 0.21637 30.5714 0.192756 30.6794 0.169111C30.7826 0.146475 30.8715 0.123488 30.9453 0.1H31.9566L32.0805 0.161119L32.0944 0.167973L32.1097 0.170297C33.0322 0.310239 33.8287 0.688605 34.5018 1.30585C35.1743 1.9224 35.6045 2.68339 35.7934 3.59179L35.7934 3.59181L35.7944 3.596L35.9 4.01248V5.01883C35.8788 5.07817 35.8628 5.10196 35.8574 5.10737L35.8338 5.13054L35.8288 5.16316C35.6869 6.07227 35.3095 6.84494 34.6964 7.48436C34.0826 8.12459 33.3274 8.5497 32.428 8.75976L32.4279 8.75938L32.4195 8.76214L32.0972 8.86809C32.004 8.89089 31.9425 8.9 31.9074 8.9H30.9354C30.9337 8.89879 30.931 8.89665 30.9274 8.89308ZM5.07264 0.106918L5.09222 0.126225L5.11892 0.132807L5.26379 0.168522L5.26365 0.169075L5.27425 0.170516C5.95985 0.263769 6.5791 0.49659 7.13339 0.868738C7.68866 1.24154 8.13714 1.71293 8.47965 2.2836C8.82123 2.85275 9.00331 3.46133 9.02683 4.11076L9.02678 4.11076L9.02698 4.11374C9.09801 5.18776 8.84382 6.14757 8.26542 6.9973C7.68987 7.84284 6.88676 8.41761 5.85118 8.72192C5.82564 8.72339 5.79399 8.728 5.75932 8.73411C5.71494 8.74192 5.65896 8.75344 5.59181 8.76849C5.45984 8.79807 5.28165 8.84196 5.05767 8.9H4.09344C4.09315 8.89993 4.0886 8.89939 4.07851 8.89607C4.06625 8.89204 4.04963 8.8852 4.02813 8.8746C3.98256 8.85213 3.9324 8.83174 3.88604 8.82891C2.97449 8.66443 2.22153 8.32035 1.62298 7.79956C1.02289 7.27742 0.573069 6.57335 0.275949 5.68264L0.275821 5.68226C0.252208 5.61241 0.228498 5.53644 0.204702 5.45431C0.182147 5.37647 0.165019 5.29233 0.153532 5.20171C0.14246 5.11436 0.1257 5.03798 0.1 4.97798V4.04183L0.106432 4.03549L0.123345 4.01881L0.130951 3.99631C0.143466 3.95929 0.153401 3.92684 0.160314 3.89957C0.165918 3.87747 0.171008 3.85329 0.172181 3.83083C0.2672 3.22662 0.467718 2.67577 0.773379 2.17727C1.08003 1.67717 1.47488 1.25871 1.95862 0.921305C2.44233 0.58392 2.99165 0.344842 3.6077 0.20465L3.60771 0.204666L3.60945 0.204236C3.70224 0.18136 3.86599 0.146673 4.10233 0.1H5.06461C5.06633 0.101214 5.06903 0.103355 5.07264 0.106918ZM18.5609 0.128739L18.5607 0.129216L18.5705 0.131967L18.6972 0.167681L18.697 0.168326L18.7085 0.170164C19.7247 0.333302 20.5923 0.792859 21.3139 1.55108C22.0349 2.30871 22.4164 3.17321 22.4635 4.14747C22.5108 5.26933 22.2267 6.25269 21.6131 7.10216C21.0003 7.95055 20.1769 8.50236 19.1388 8.75912C18.9919 8.78347 18.7768 8.83067 18.4949 8.9H17.4988C17.4971 8.89879 17.4944 8.89665 17.4907 8.89308L17.4712 8.87377L17.4445 8.86719L17.2996 8.83148L17.2997 8.83094L17.2893 8.8295C16.2744 8.68987 15.4079 8.23682 14.6866 7.46733C13.9651 6.69752 13.5836 5.82674 13.5365 4.85232L13.5365 4.85181C13.5128 4.40825 13.5483 3.98315 13.6427 3.57615C13.7374 3.16754 13.8794 2.7827 14.0685 2.42137C14.2576 2.06008 14.4878 1.73413 14.7592 1.44322C15.0297 1.15333 15.3414 0.909716 15.6947 0.712295C16.0478 0.514947 16.437 0.35762 16.8625 0.240666C17.0093 0.216263 17.224 0.169133 17.5051 0.1H18.488L18.5609 0.128739Z" fill="white" stroke="black" stroke-width="0.2"/>
</svg>
