<svg width="112" height="112" viewBox="0 0 112 112" fill="none" xmlns="http://www.w3.org/2000/svg">
<path d="M108.5 40.25H68.425L56 3.5L43.575 40.25H3.5L35.875 63L23.45 99.75L56 77L88.375 99.75L75.95 63L108.5 40.25Z" fill="#FFCE31"/>
<path d="M80.8501 35.525L87.8501 15.575L69.4751 28.175L72.1001 35.525H80.8501Z" fill="#FFDF85"/>
<path d="M48.825 87.5L56 108.5L63.175 87.5L56 82.6L48.825 87.5Z" fill="#FFDF85"/>
<path d="M88.725 60.025L82.075 64.575L84.875 72.975H107.45L88.725 60.025Z" fill="#FFDF85"/>
<path d="M42.5251 28.175L24.1501 15.575L31.1501 35.525H39.9001L42.5251 28.175Z" fill="#FFDF85"/>
<path d="M23.275 60.025L4.55004 72.975H27.125L29.925 64.575L23.275 60.025Z" fill="#FFDF85"/>
</svg>
