<svg width="22" height="18" viewBox="0 0 22 18" fill="none" xmlns="http://www.w3.org/2000/svg">
<path d="M7.2766 13.5001H4.5V10.7235C4.5 10.6182 4.41383 10.532 4.30851 10.532H3.15957C3.05426 10.532 2.96809 10.6182 2.96809 10.7235V13.5001H0.191489C0.0861702 13.5001 0 13.5862 0 13.6916V14.8405C0 14.9458 0.0861702 15.032 0.191489 15.032H2.96809V17.8086C2.96809 17.9139 3.05426 18.0001 3.15957 18.0001H4.30851C4.41383 18.0001 4.5 17.9139 4.5 17.8086V15.032H7.2766C7.38191 15.032 7.46808 14.9458 7.46808 14.8405V13.6916C7.46808 13.5862 7.38191 13.5001 7.2766 13.5001Z" fill="#287A5C"/>
<path d="M20.2979 3.40612L17.234 5.17021V1.53191C17.234 0.686968 16.5471 0 15.7021 0H1.53191C0.686968 0 0 0.686968 0 1.53191V9.95745H1.7234V1.7234H15.5106V15.1277H9.19149V16.8511H15.7021C16.5471 16.8511 17.234 16.1641 17.234 15.3191V11.6809L20.2979 13.4449C20.8077 13.7394 21.4468 13.3707 21.4468 12.7843V4.06915C21.4468 3.48032 20.8077 3.1117 20.2979 3.40612ZM19.7234 11.1303L17.234 9.69894V7.15452L19.7234 5.72074V11.1303Z" fill="#287A5C"/>
<path d="M6.12767 4.78729C6.23298 4.78729 6.31915 4.70112 6.31915 4.5958V3.44686C6.31915 3.34154 6.23298 3.25537 6.12767 3.25537H3.44681C3.3415 3.25537 3.25533 3.34154 3.25533 3.44686V4.5958C3.25533 4.70112 3.3415 4.78729 3.44681 4.78729H6.12767Z" fill="#287A5C"/>
</svg>
