<svg width="17" height="17" viewBox="0 0 17 17" fill="none" xmlns="http://www.w3.org/2000/svg">
<path d="M16.2188 0.318726H0.981348C0.614902 0.318726 0.318848 0.61478 0.318848 0.981226V16.2187C0.318848 16.5852 0.614902 16.8812 0.981348 16.8812H16.2188C16.5853 16.8812 16.8813 16.5852 16.8813 16.2187V0.981226C16.8813 0.61478 16.5853 0.318726 16.2188 0.318726ZM14.3059 5.15291H12.983C11.9457 5.15291 11.7449 5.64564 11.7449 6.37025V7.96646H14.221L13.898 10.4653H11.7449V16.8812H9.16322V10.4674H7.00389V7.96646H9.16322V6.12388C9.16322 3.98525 10.4696 2.81966 12.3784 2.81966C13.2935 2.81966 14.0781 2.88798 14.308 2.91904V5.15291H14.3059Z" fill="white"/>
</svg>
