<svg width="19" height="20" viewBox="0 0 19 20" fill="none" xmlns="http://www.w3.org/2000/svg">
<path d="M4.21274 7.812C4.58705 6.67956 5.30943 5.69425 6.27684 4.99664C7.24424 4.29903 8.40725 3.92475 9.59994 3.9272C10.9519 3.9272 12.1743 4.4072 13.1343 5.1928L15.9279 2.4C14.2255 0.916 12.0439 0 9.59994 0C5.81594 0 2.55834 2.1584 0.991943 5.32L4.21274 7.812Z" fill="#EA4335"/>
<path d="M12.8319 14.4104C11.9599 14.9728 10.8527 15.2728 9.5999 15.2728C8.41196 15.2753 7.25334 14.904 6.28809 14.2115C5.32284 13.5191 4.59986 12.5405 4.2215 11.4144L0.989502 13.868C1.7825 15.4731 3.00972 16.8235 4.53176 17.7661C6.0538 18.7086 7.80967 19.2054 9.5999 19.2C11.9463 19.2 14.1879 18.3656 15.8671 16.8L12.8327 14.4104H12.8319Z" fill="#34A853"/>
<path d="M15.8673 16.8C17.6233 15.1616 18.7633 12.7232 18.7633 9.60003C18.7633 9.03203 18.6761 8.42163 18.5457 7.85443H9.6001V11.564H14.7489C14.4953 12.8112 13.8129 13.7768 12.8329 14.4104L15.8673 16.8Z" fill="#4A90E2"/>
<path d="M4.22169 11.4144C4.02598 10.8295 3.92655 10.2168 3.92729 9.60001C3.92729 8.97441 4.02729 8.37361 4.21289 7.81201L0.992093 5.32001C0.333196 6.65016 -0.00646396 8.11562 9.31636e-05 9.60001C9.31636e-05 11.136 0.356093 12.584 0.989693 13.868L4.22169 11.4144Z" fill="#FBBC05"/>
</svg>
