<svg width="160" height="55" viewBox="0 0 160 55" fill="none" xmlns="http://www.w3.org/2000/svg">
<rect x="130" y="25" width="28" height="28" fill="#F0B6B9"/>
<path d="M157.617 23H130.383C129.751 23.0007 129.145 23.252 128.699 23.6988C128.252 24.1455 128.001 24.7512 128 25.383V52.617C128.001 53.2488 128.252 53.8545 128.699 54.3012C129.145 54.748 129.751 54.9993 130.383 55H155.948L155.951 55.0002L155.955 55H157.617C158.249 54.9993 158.855 54.748 159.301 54.3012C159.748 53.8545 159.999 53.2488 160 52.617V25.383C159.999 24.7512 159.748 24.1455 159.301 23.6988C158.855 23.252 158.249 23.0007 157.617 23ZM138.213 37.6383C138.213 36.4937 138.552 35.3748 139.188 34.4231C139.824 33.4714 140.728 32.7296 141.785 32.2916C142.843 31.8536 144.006 31.739 145.129 31.9623C146.252 32.1856 147.283 32.7367 148.092 33.5461C148.902 34.3555 149.453 35.3867 149.676 36.5093C149.899 37.6319 149.785 38.7955 149.347 39.853C148.909 40.9105 148.167 41.8143 147.215 42.4502C146.264 43.0861 145.145 43.4255 144 43.4255C142.466 43.4238 140.995 42.8135 139.91 41.7285C138.825 40.6436 138.215 39.1726 138.213 37.6383ZM133.408 52.9574C134.104 50.9982 135.328 49.2691 136.943 47.9603C138.942 46.3476 141.432 45.468 144 45.468C146.568 45.468 149.058 46.3476 151.057 47.9603C152.672 49.2691 153.896 50.9982 154.592 52.9574H133.408ZM157.957 52.617C157.957 52.7073 157.921 52.7938 157.858 52.8576C157.794 52.9215 157.707 52.9574 157.617 52.9574H156.737C156.141 50.9256 155.067 49.0662 153.605 47.5349C152.143 46.0035 150.335 44.8449 148.333 44.1559C149.733 43.2254 150.797 41.8687 151.367 40.2866C151.936 38.7045 151.982 36.981 151.496 35.3712C151.01 33.7615 150.018 32.3509 148.668 31.3483C147.318 30.3458 145.682 29.8044 144 29.8044C142.318 29.8044 140.682 30.3458 139.332 31.3483C137.982 32.3509 136.99 33.7615 136.504 35.3712C136.018 36.981 136.064 38.7045 136.633 40.2866C137.203 41.8687 138.267 43.2254 139.667 44.1559C137.665 44.8449 135.857 46.0035 134.395 47.5349C132.933 49.0662 131.859 50.9256 131.263 52.9574H130.383C130.293 52.9574 130.206 52.9215 130.142 52.8576C130.079 52.7938 130.043 52.7073 130.043 52.617V25.383C130.043 25.2927 130.079 25.2062 130.142 25.1424C130.206 25.0785 130.293 25.0426 130.383 25.0426H157.617C157.707 25.0426 157.794 25.0785 157.858 25.1424C157.921 25.2062 157.957 25.2927 157.957 25.383V52.617Z" fill="black"/>
<rect x="107" y="25" width="28" height="28" fill="#C4C4C4"/>
<path d="M134.617 23H107.383C106.751 23.0007 106.145 23.252 105.699 23.6988C105.252 24.1455 105.001 24.7512 105 25.383V52.617C105.001 53.2488 105.252 53.8545 105.699 54.3012C106.145 54.748 106.751 54.9993 107.383 55H132.948L132.951 55.0002L132.955 55H134.617C135.249 54.9993 135.855 54.748 136.301 54.3012C136.748 53.8545 136.999 53.2488 137 52.617V25.383C136.999 24.7512 136.748 24.1455 136.301 23.6988C135.855 23.252 135.249 23.0007 134.617 23ZM115.213 37.6383C115.213 36.4937 115.552 35.3748 116.188 34.4231C116.824 33.4714 117.728 32.7296 118.785 32.2916C119.843 31.8536 121.006 31.739 122.129 31.9623C123.252 32.1856 124.283 32.7367 125.092 33.5461C125.902 34.3555 126.453 35.3867 126.676 36.5093C126.899 37.6319 126.785 38.7955 126.347 39.853C125.909 40.9105 125.167 41.8143 124.215 42.4502C123.264 43.0861 122.145 43.4255 121 43.4255C119.466 43.4238 117.995 42.8135 116.91 41.7285C115.825 40.6436 115.215 39.1726 115.213 37.6383ZM110.408 52.9574C111.104 50.9982 112.328 49.2691 113.943 47.9603C115.942 46.3476 118.432 45.468 121 45.468C123.568 45.468 126.058 46.3476 128.057 47.9603C129.672 49.2691 130.896 50.9982 131.592 52.9574H110.408ZM134.957 52.617C134.957 52.7073 134.921 52.7938 134.858 52.8576C134.794 52.9215 134.707 52.9574 134.617 52.9574H133.737C133.141 50.9256 132.067 49.0662 130.605 47.5349C129.143 46.0035 127.335 44.8449 125.333 44.1559C126.733 43.2254 127.797 41.8687 128.367 40.2866C128.936 38.7045 128.982 36.981 128.496 35.3712C128.01 33.7615 127.018 32.3509 125.668 31.3483C124.318 30.3458 122.682 29.8044 121 29.8044C119.318 29.8044 117.682 30.3458 116.332 31.3483C114.982 32.3509 113.99 33.7615 113.504 35.3712C113.018 36.981 113.064 38.7045 113.633 40.2866C114.203 41.8687 115.267 43.2254 116.667 44.1559C114.665 44.8449 112.857 46.0035 111.395 47.5349C109.933 49.0662 108.859 50.9256 108.263 52.9574H107.383C107.293 52.9574 107.206 52.9215 107.142 52.8576C107.079 52.7938 107.043 52.7073 107.043 52.617V25.383C107.043 25.2927 107.079 25.2062 107.142 25.1424C107.206 25.0785 107.293 25.0426 107.383 25.0426H134.617C134.707 25.0426 134.794 25.0785 134.858 25.1424C134.921 25.2062 134.957 25.2927 134.957 25.383V52.617Z" fill="black"/>
<rect x="86" y="25" width="28" height="28" fill="#C4C4C4"/>
<path d="M113.617 23H86.383C85.7512 23.0007 85.1455 23.252 84.6988 23.6988C84.252 24.1455 84.0007 24.7512 84 25.383V52.617C84.0007 53.2488 84.252 53.8545 84.6988 54.3012C85.1455 54.748 85.7512 54.9993 86.383 55H111.948L111.951 55.0002L111.955 55H113.617C114.249 54.9993 114.855 54.748 115.301 54.3012C115.748 53.8545 115.999 53.2488 116 52.617V25.383C115.999 24.7512 115.748 24.1455 115.301 23.6988C114.855 23.252 114.249 23.0007 113.617 23ZM94.2128 37.6383C94.2128 36.4937 94.5522 35.3748 95.1881 34.4231C95.824 33.4714 96.7278 32.7296 97.7853 32.2916C98.8428 31.8536 100.006 31.739 101.129 31.9623C102.252 32.1856 103.283 32.7367 104.092 33.5461C104.902 34.3555 105.453 35.3867 105.676 36.5093C105.899 37.6319 105.785 38.7955 105.347 39.853C104.909 40.9105 104.167 41.8143 103.215 42.4502C102.264 43.0861 101.145 43.4255 100 43.4255C98.4657 43.4238 96.9947 42.8135 95.9097 41.7285C94.8248 40.6436 94.2145 39.1726 94.2128 37.6383ZM89.4077 52.9574C90.1042 50.9982 91.3277 49.2691 92.9435 47.9603C94.9417 46.3476 97.4321 45.468 100 45.468C102.568 45.468 105.058 46.3476 107.057 47.9603C108.672 49.2691 109.896 50.9982 110.592 52.9574H89.4077ZM113.957 52.617C113.957 52.7073 113.921 52.7938 113.858 52.8576C113.794 52.9215 113.707 52.9574 113.617 52.9574H112.737C112.141 50.9256 111.067 49.0662 109.605 47.5349C108.143 46.0035 106.335 44.8449 104.333 44.1559C105.733 43.2254 106.797 41.8687 107.367 40.2866C107.936 38.7045 107.982 36.981 107.496 35.3712C107.01 33.7615 106.018 32.3509 104.668 31.3483C103.318 30.3458 101.682 29.8044 100 29.8044C98.3185 29.8044 96.6816 30.3458 95.3316 31.3483C93.9817 32.3509 92.9904 33.7615 92.5044 35.3712C92.0184 36.981 92.0635 38.7045 92.6332 40.2866C93.2028 41.8687 94.2666 43.2254 95.6672 44.1559C93.6651 44.8449 91.8571 46.0035 90.3949 47.5349C88.9326 49.0662 87.8585 50.9256 87.2626 52.9574H86.383C86.2927 52.9574 86.2062 52.9215 86.1424 52.8576C86.0785 52.7938 86.0426 52.7073 86.0426 52.617V25.383C86.0426 25.2927 86.0785 25.2062 86.1424 25.1424C86.2062 25.0785 86.2927 25.0426 86.383 25.0426H113.617C113.707 25.0426 113.794 25.0785 113.858 25.1424C113.921 25.2062 113.957 25.2927 113.957 25.383V52.617Z" fill="black"/>
<rect x="130" y="2" width="28" height="28" fill="#C4C4C4"/>
<path d="M157.617 0H130.383C129.751 0.000720804 129.145 0.252015 128.699 0.698754C128.252 1.14549 128.001 1.75119 128 2.38298V29.617C128.001 30.2488 128.252 30.8545 128.699 31.3012C129.145 31.748 129.751 31.9993 130.383 32H155.948L155.951 32.0002L155.955 32H157.617C158.249 31.9993 158.855 31.748 159.301 31.3012C159.748 30.8545 159.999 30.2488 160 29.617V2.38298C159.999 1.75119 159.748 1.14549 159.301 0.698754C158.855 0.252015 158.249 0.000720804 157.617 0ZM138.213 14.6383C138.213 13.4937 138.552 12.3748 139.188 11.4231C139.824 10.4714 140.728 9.72961 141.785 9.29159C142.843 8.85357 144.006 8.73896 145.129 8.96226C146.252 9.18556 147.283 9.73675 148.092 10.5461C148.902 11.3555 149.453 12.3867 149.676 13.5093C149.899 14.6319 149.785 15.7955 149.347 16.853C148.909 17.9105 148.167 18.8143 147.215 19.4502C146.264 20.0861 145.145 20.4255 144 20.4255C142.466 20.4238 140.995 19.8135 139.91 18.7285C138.825 17.6436 138.215 16.1726 138.213 14.6383ZM133.408 29.9574C134.104 27.9982 135.328 26.2691 136.943 24.9603C138.942 23.3476 141.432 22.468 144 22.468C146.568 22.468 149.058 23.3476 151.057 24.9603C152.672 26.2691 153.896 27.9982 154.592 29.9574H133.408ZM157.957 29.617C157.957 29.7073 157.921 29.7938 157.858 29.8576C157.794 29.9215 157.707 29.9574 157.617 29.9574H156.737C156.141 27.9256 155.067 26.0662 153.605 24.5349C152.143 23.0035 150.335 21.8449 148.333 21.1559C149.733 20.2254 150.797 18.8687 151.367 17.2866C151.936 15.7045 151.982 13.981 151.496 12.3712C151.01 10.7615 150.018 9.35093 148.668 8.34835C147.318 7.34576 145.682 6.80442 144 6.80442C142.318 6.80442 140.682 7.34576 139.332 8.34835C137.982 9.35093 136.99 10.7615 136.504 12.3712C136.018 13.981 136.064 15.7045 136.633 17.2866C137.203 18.8687 138.267 20.2254 139.667 21.1559C137.665 21.8449 135.857 23.0035 134.395 24.5349C132.933 26.0662 131.859 27.9256 131.263 29.9574H130.383C130.293 29.9574 130.206 29.9215 130.142 29.8576C130.079 29.7938 130.043 29.7073 130.043 29.617V2.38298C130.043 2.29272 130.079 2.20618 130.142 2.14236C130.206 2.07854 130.293 2.04264 130.383 2.04255H157.617C157.707 2.04264 157.794 2.07854 157.858 2.14236C157.921 2.20618 157.957 2.29272 157.957 2.38298V29.617Z" fill="black"/>
<rect x="107" y="2" width="28" height="28" fill="#73B535"/>
<path d="M134.617 0H107.383C106.751 0.000720804 106.145 0.252015 105.699 0.698754C105.252 1.14549 105.001 1.75119 105 2.38298V29.617C105.001 30.2488 105.252 30.8545 105.699 31.3012C106.145 31.748 106.751 31.9993 107.383 32H132.948L132.951 32.0002L132.955 32H134.617C135.249 31.9993 135.855 31.748 136.301 31.3012C136.748 30.8545 136.999 30.2488 137 29.617V2.38298C136.999 1.75119 136.748 1.14549 136.301 0.698754C135.855 0.252015 135.249 0.000720804 134.617 0ZM115.213 14.6383C115.213 13.4937 115.552 12.3748 116.188 11.4231C116.824 10.4714 117.728 9.72961 118.785 9.29159C119.843 8.85357 121.006 8.73896 122.129 8.96226C123.252 9.18556 124.283 9.73675 125.092 10.5461C125.902 11.3555 126.453 12.3867 126.676 13.5093C126.899 14.6319 126.785 15.7955 126.347 16.853C125.909 17.9105 125.167 18.8143 124.215 19.4502C123.264 20.0861 122.145 20.4255 121 20.4255C119.466 20.4238 117.995 19.8135 116.91 18.7285C115.825 17.6436 115.215 16.1726 115.213 14.6383ZM110.408 29.9574C111.104 27.9982 112.328 26.2691 113.943 24.9603C115.942 23.3476 118.432 22.468 121 22.468C123.568 22.468 126.058 23.3476 128.057 24.9603C129.672 26.2691 130.896 27.9982 131.592 29.9574H110.408ZM134.957 29.617C134.957 29.7073 134.921 29.7938 134.858 29.8576C134.794 29.9215 134.707 29.9574 134.617 29.9574H133.737C133.141 27.9256 132.067 26.0662 130.605 24.5349C129.143 23.0035 127.335 21.8449 125.333 21.1559C126.733 20.2254 127.797 18.8687 128.367 17.2866C128.936 15.7045 128.982 13.981 128.496 12.3712C128.01 10.7615 127.018 9.35093 125.668 8.34835C124.318 7.34576 122.682 6.80442 121 6.80442C119.318 6.80442 117.682 7.34576 116.332 8.34835C114.982 9.35093 113.99 10.7615 113.504 12.3712C113.018 13.981 113.064 15.7045 113.633 17.2866C114.203 18.8687 115.267 20.2254 116.667 21.1559C114.665 21.8449 112.857 23.0035 111.395 24.5349C109.933 26.0662 108.859 27.9256 108.263 29.9574H107.383C107.293 29.9574 107.206 29.9215 107.142 29.8576C107.079 29.7938 107.043 29.7073 107.043 29.617V2.38298C107.043 2.29272 107.079 2.20618 107.142 2.14236C107.206 2.07854 107.293 2.04264 107.383 2.04255H134.617C134.707 2.04264 134.794 2.07854 134.858 2.14236C134.921 2.20618 134.957 2.29272 134.957 2.38298V29.617Z" fill="black"/>
<rect x="86" y="2" width="28" height="28" fill="#612B2E"/>
<path d="M113.617 0H86.383C85.7512 0.000720804 85.1455 0.252015 84.6988 0.698754C84.252 1.14549 84.0007 1.75119 84 2.38298V29.617C84.0007 30.2488 84.252 30.8545 84.6988 31.3012C85.1455 31.748 85.7512 31.9993 86.383 32H111.948L111.951 32.0002L111.955 32H113.617C114.249 31.9993 114.855 31.748 115.301 31.3012C115.748 30.8545 115.999 30.2488 116 29.617V2.38298C115.999 1.75119 115.748 1.14549 115.301 0.698754C114.855 0.252015 114.249 0.000720804 113.617 0ZM94.2128 14.6383C94.2128 13.4937 94.5522 12.3748 95.1881 11.4231C95.824 10.4714 96.7278 9.72961 97.7853 9.29159C98.8428 8.85357 100.006 8.73896 101.129 8.96226C102.252 9.18556 103.283 9.73675 104.092 10.5461C104.902 11.3555 105.453 12.3867 105.676 13.5093C105.899 14.6319 105.785 15.7955 105.347 16.853C104.909 17.9105 104.167 18.8143 103.215 19.4502C102.264 20.0861 101.145 20.4255 100 20.4255C98.4657 20.4238 96.9947 19.8135 95.9097 18.7285C94.8248 17.6436 94.2145 16.1726 94.2128 14.6383ZM89.4077 29.9574C90.1042 27.9982 91.3277 26.2691 92.9435 24.9603C94.9417 23.3476 97.4321 22.468 100 22.468C102.568 22.468 105.058 23.3476 107.057 24.9603C108.672 26.2691 109.896 27.9982 110.592 29.9574H89.4077ZM113.957 29.617C113.957 29.7073 113.921 29.7938 113.858 29.8576C113.794 29.9215 113.707 29.9574 113.617 29.9574H112.737C112.141 27.9256 111.067 26.0662 109.605 24.5349C108.143 23.0035 106.335 21.8449 104.333 21.1559C105.733 20.2254 106.797 18.8687 107.367 17.2866C107.936 15.7045 107.982 13.981 107.496 12.3712C107.01 10.7615 106.018 9.35093 104.668 8.34835C103.318 7.34576 101.682 6.80442 100 6.80442C98.3185 6.80442 96.6816 7.34576 95.3316 8.34835C93.9817 9.35093 92.9904 10.7615 92.5044 12.3712C92.0184 13.981 92.0635 15.7045 92.6332 17.2866C93.2028 18.8687 94.2666 20.2254 95.6672 21.1559C93.6651 21.8449 91.8571 23.0035 90.3949 24.5349C88.9326 26.0662 87.8585 27.9256 87.2626 29.9574H86.383C86.2927 29.9574 86.2062 29.9215 86.1424 29.8576C86.0785 29.7938 86.0426 29.7073 86.0426 29.617V2.38298C86.0426 2.29272 86.0785 2.20618 86.1424 2.14236C86.2062 2.07854 86.2927 2.04264 86.383 2.04255H113.617C113.707 2.04264 113.794 2.07854 113.858 2.14236C113.921 2.20618 113.957 2.29272 113.957 2.38298V29.617Z" fill="black"/>
<rect x="65" y="25" width="28" height="28" fill="#97D1BB"/>
<path d="M92.617 23H65.383C64.7512 23.0007 64.1455 23.252 63.6988 23.6988C63.252 24.1455 63.0007 24.7512 63 25.383V52.617C63.0007 53.2488 63.252 53.8545 63.6988 54.3012C64.1455 54.748 64.7512 54.9993 65.383 55H90.9477L90.9506 55.0002L90.9552 55H92.617C93.2488 54.9993 93.8545 54.748 94.3012 54.3012C94.748 53.8545 94.9993 53.2488 95 52.617V25.383C94.9993 24.7512 94.748 24.1455 94.3012 23.6988C93.8545 23.252 93.2488 23.0007 92.617 23ZM73.2128 37.6383C73.2128 36.4937 73.5522 35.3748 74.1881 34.4231C74.824 33.4714 75.7278 32.7296 76.7853 32.2916C77.8428 31.8536 79.0064 31.739 80.129 31.9623C81.2516 32.1856 82.2828 32.7367 83.0922 33.5461C83.9016 34.3555 84.4527 35.3867 84.676 36.5093C84.8993 37.6319 84.7847 38.7955 84.3467 39.853C83.9087 40.9105 83.1669 41.8143 82.2152 42.4502C81.2635 43.0861 80.1446 43.4255 79 43.4255C77.4657 43.4238 75.9947 42.8135 74.9097 41.7285C73.8248 40.6436 73.2145 39.1726 73.2128 37.6383ZM68.4077 52.9574C69.1042 50.9982 70.3277 49.2691 71.9435 47.9603C73.9417 46.3476 76.4321 45.468 79 45.468C81.5679 45.468 84.0583 46.3476 86.0565 47.9603C87.6723 49.2691 88.8958 50.9982 89.5923 52.9574H68.4077ZM92.9574 52.617C92.9574 52.7073 92.9215 52.7938 92.8576 52.8576C92.7938 52.9215 92.7073 52.9574 92.617 52.9574H91.7374C91.1415 50.9256 90.0674 49.0662 88.6051 47.5349C87.1429 46.0035 85.3349 44.8449 83.3328 44.1559C84.7334 43.2254 85.7972 41.8687 86.3668 40.2866C86.9365 38.7045 86.9816 36.981 86.4956 35.3712C86.0096 33.7615 85.0183 32.3509 83.6684 31.3483C82.3184 30.3458 80.6815 29.8044 79 29.8044C77.3185 29.8044 75.6816 30.3458 74.3316 31.3483C72.9817 32.3509 71.9904 33.7615 71.5044 35.3712C71.0184 36.981 71.0635 38.7045 71.6332 40.2866C72.2028 41.8687 73.2666 43.2254 74.6672 44.1559C72.6651 44.8449 70.8571 46.0035 69.3949 47.5349C67.9326 49.0662 66.8585 50.9256 66.2626 52.9574H65.383C65.2927 52.9574 65.2062 52.9215 65.1424 52.8576C65.0785 52.7938 65.0426 52.7073 65.0426 52.617V25.383C65.0426 25.2927 65.0785 25.2062 65.1424 25.1424C65.2062 25.0785 65.2927 25.0426 65.383 25.0426H92.617C92.7073 25.0426 92.7938 25.0785 92.8576 25.1424C92.9215 25.2062 92.9574 25.2927 92.9574 25.383V52.617Z" fill="black"/>
<rect x="44" y="25" width="28" height="28" fill="#A419B5"/>
<path d="M71.617 23H44.383C43.7512 23.0007 43.1455 23.252 42.6988 23.6988C42.252 24.1455 42.0007 24.7512 42 25.383V52.617C42.0007 53.2488 42.252 53.8545 42.6988 54.3012C43.1455 54.748 43.7512 54.9993 44.383 55H69.9477L69.9506 55.0002L69.9552 55H71.617C72.2488 54.9993 72.8545 54.748 73.3012 54.3012C73.748 53.8545 73.9993 53.2488 74 52.617V25.383C73.9993 24.7512 73.748 24.1455 73.3012 23.6988C72.8545 23.252 72.2488 23.0007 71.617 23ZM52.2128 37.6383C52.2128 36.4937 52.5522 35.3748 53.1881 34.4231C53.824 33.4714 54.7278 32.7296 55.7853 32.2916C56.8428 31.8536 58.0064 31.739 59.129 31.9623C60.2516 32.1856 61.2828 32.7367 62.0922 33.5461C62.9016 34.3555 63.4527 35.3867 63.676 36.5093C63.8993 37.6319 63.7847 38.7955 63.3467 39.853C62.9087 40.9105 62.1669 41.8143 61.2152 42.4502C60.2635 43.0861 59.1446 43.4255 58 43.4255C56.4657 43.4238 54.9947 42.8135 53.9097 41.7285C52.8248 40.6436 52.2145 39.1726 52.2128 37.6383ZM47.4077 52.9574C48.1042 50.9982 49.3277 49.2691 50.9435 47.9603C52.9417 46.3476 55.4321 45.468 58 45.468C60.5679 45.468 63.0583 46.3476 65.0565 47.9603C66.6723 49.2691 67.8958 50.9982 68.5923 52.9574H47.4077ZM71.9574 52.617C71.9574 52.7073 71.9215 52.7938 71.8576 52.8576C71.7938 52.9215 71.7073 52.9574 71.617 52.9574H70.7374C70.1415 50.9256 69.0674 49.0662 67.6051 47.5349C66.1429 46.0035 64.3349 44.8449 62.3328 44.1559C63.7334 43.2254 64.7972 41.8687 65.3668 40.2866C65.9365 38.7045 65.9816 36.981 65.4956 35.3712C65.0096 33.7615 64.0183 32.3509 62.6684 31.3483C61.3184 30.3458 59.6815 29.8044 58 29.8044C56.3185 29.8044 54.6816 30.3458 53.3316 31.3483C51.9817 32.3509 50.9904 33.7615 50.5044 35.3712C50.0184 36.981 50.0635 38.7045 50.6332 40.2866C51.2028 41.8687 52.2666 43.2254 53.6672 44.1559C51.6651 44.8449 49.8571 46.0035 48.3949 47.5349C46.9326 49.0662 45.8585 50.9256 45.2626 52.9574H44.383C44.2927 52.9574 44.2062 52.9215 44.1424 52.8576C44.0785 52.7938 44.0426 52.7073 44.0426 52.617V25.383C44.0426 25.2927 44.0785 25.2062 44.1424 25.1424C44.2062 25.0785 44.2927 25.0426 44.383 25.0426H71.617C71.7073 25.0426 71.7938 25.0785 71.8576 25.1424C71.9215 25.2062 71.9574 25.2927 71.9574 25.383V52.617Z" fill="black"/>
<rect x="65" y="2" width="28" height="28" fill="#C4C4C4"/>
<path d="M92.617 0H65.383C64.7512 0.000720804 64.1455 0.252015 63.6988 0.698754C63.252 1.14549 63.0007 1.75119 63 2.38298V29.617C63.0007 30.2488 63.252 30.8545 63.6988 31.3012C64.1455 31.748 64.7512 31.9993 65.383 32H90.9477L90.9506 32.0002L90.9552 32H92.617C93.2488 31.9993 93.8545 31.748 94.3012 31.3012C94.748 30.8545 94.9993 30.2488 95 29.617V2.38298C94.9993 1.75119 94.748 1.14549 94.3012 0.698754C93.8545 0.252015 93.2488 0.000720804 92.617 0ZM73.2128 14.6383C73.2128 13.4937 73.5522 12.3748 74.1881 11.4231C74.824 10.4714 75.7278 9.72961 76.7853 9.29159C77.8428 8.85357 79.0064 8.73896 80.129 8.96226C81.2516 9.18556 82.2828 9.73675 83.0922 10.5461C83.9016 11.3555 84.4527 12.3867 84.676 13.5093C84.8993 14.6319 84.7847 15.7955 84.3467 16.853C83.9087 17.9105 83.1669 18.8143 82.2152 19.4502C81.2635 20.0861 80.1446 20.4255 79 20.4255C77.4657 20.4238 75.9947 19.8135 74.9097 18.7285C73.8248 17.6436 73.2145 16.1726 73.2128 14.6383ZM68.4077 29.9574C69.1042 27.9982 70.3277 26.2691 71.9435 24.9603C73.9417 23.3476 76.4321 22.468 79 22.468C81.5679 22.468 84.0583 23.3476 86.0565 24.9603C87.6723 26.2691 88.8958 27.9982 89.5923 29.9574H68.4077ZM92.9574 29.617C92.9574 29.7073 92.9215 29.7938 92.8576 29.8576C92.7938 29.9215 92.7073 29.9574 92.617 29.9574H91.7374C91.1415 27.9256 90.0674 26.0662 88.6051 24.5349C87.1429 23.0035 85.3349 21.8449 83.3328 21.1559C84.7334 20.2254 85.7972 18.8687 86.3668 17.2866C86.9365 15.7045 86.9816 13.981 86.4956 12.3712C86.0096 10.7615 85.0183 9.35093 83.6684 8.34835C82.3184 7.34576 80.6815 6.80442 79 6.80442C77.3185 6.80442 75.6816 7.34576 74.3316 8.34835C72.9817 9.35093 71.9904 10.7615 71.5044 12.3712C71.0184 13.981 71.0635 15.7045 71.6332 17.2866C72.2028 18.8687 73.2666 20.2254 74.6672 21.1559C72.6651 21.8449 70.8571 23.0035 69.3949 24.5349C67.9326 26.0662 66.8585 27.9256 66.2626 29.9574H65.383C65.2927 29.9574 65.2062 29.9215 65.1424 29.8576C65.0785 29.7938 65.0426 29.7073 65.0426 29.617V2.38298C65.0426 2.29272 65.0785 2.20618 65.1424 2.14236C65.2062 2.07854 65.2927 2.04264 65.383 2.04255H92.617C92.7073 2.04264 92.7938 2.07854 92.8576 2.14236C92.9215 2.20618 92.9574 2.29272 92.9574 2.38298V29.617Z" fill="black"/>
<rect x="44" y="2" width="28" height="28" fill="#F59580"/>
<path d="M71.617 0H44.383C43.7512 0.000720804 43.1455 0.252015 42.6988 0.698754C42.252 1.14549 42.0007 1.75119 42 2.38298V29.617C42.0007 30.2488 42.252 30.8545 42.6988 31.3012C43.1455 31.748 43.7512 31.9993 44.383 32H69.9477L69.9506 32.0002L69.9552 32H71.617C72.2488 31.9993 72.8545 31.748 73.3012 31.3012C73.748 30.8545 73.9993 30.2488 74 29.617V2.38298C73.9993 1.75119 73.748 1.14549 73.3012 0.698754C72.8545 0.252015 72.2488 0.000720804 71.617 0ZM52.2128 14.6383C52.2128 13.4937 52.5522 12.3748 53.1881 11.4231C53.824 10.4714 54.7278 9.72961 55.7853 9.29159C56.8428 8.85357 58.0064 8.73896 59.129 8.96226C60.2516 9.18556 61.2828 9.73675 62.0922 10.5461C62.9016 11.3555 63.4527 12.3867 63.676 13.5093C63.8993 14.6319 63.7847 15.7955 63.3467 16.853C62.9087 17.9105 62.1669 18.8143 61.2152 19.4502C60.2635 20.0861 59.1446 20.4255 58 20.4255C56.4657 20.4238 54.9947 19.8135 53.9097 18.7285C52.8248 17.6436 52.2145 16.1726 52.2128 14.6383ZM47.4077 29.9574C48.1042 27.9982 49.3277 26.2691 50.9435 24.9603C52.9417 23.3476 55.4321 22.468 58 22.468C60.5679 22.468 63.0583 23.3476 65.0565 24.9603C66.6723 26.2691 67.8958 27.9982 68.5923 29.9574H47.4077ZM71.9574 29.617C71.9574 29.7073 71.9215 29.7938 71.8576 29.8576C71.7938 29.9215 71.7073 29.9574 71.617 29.9574H70.7374C70.1415 27.9256 69.0674 26.0662 67.6051 24.5349C66.1429 23.0035 64.3349 21.8449 62.3328 21.1559C63.7334 20.2254 64.7972 18.8687 65.3668 17.2866C65.9365 15.7045 65.9816 13.981 65.4956 12.3712C65.0096 10.7615 64.0183 9.35093 62.6684 8.34835C61.3184 7.34576 59.6815 6.80442 58 6.80442C56.3185 6.80442 54.6816 7.34576 53.3316 8.34835C51.9817 9.35093 50.9904 10.7615 50.5044 12.3712C50.0184 13.981 50.0635 15.7045 50.6332 17.2866C51.2028 18.8687 52.2666 20.2254 53.6672 21.1559C51.6651 21.8449 49.8571 23.0035 48.3949 24.5349C46.9326 26.0662 45.8585 27.9256 45.2626 29.9574H44.383C44.2927 29.9574 44.2062 29.9215 44.1424 29.8576C44.0785 29.7938 44.0426 29.7073 44.0426 29.617V2.38298C44.0426 2.29272 44.0785 2.20618 44.1424 2.14236C44.2062 2.07854 44.2927 2.04264 44.383 2.04255H71.617C71.7073 2.04264 71.7938 2.07854 71.8576 2.14236C71.9215 2.20618 71.9574 2.29272 71.9574 2.38298V29.617Z" fill="black"/>
<rect x="23" y="25" width="28" height="28" fill="#43A047"/>
<path d="M50.617 23H23.383C22.7512 23.0007 22.1455 23.252 21.6988 23.6988C21.252 24.1455 21.0007 24.7512 21 25.383V52.617C21.0007 53.2488 21.252 53.8545 21.6988 54.3012C22.1455 54.748 22.7512 54.9993 23.383 55H48.9477L48.9506 55.0002L48.9552 55H50.617C51.2488 54.9993 51.8545 54.748 52.3012 54.3012C52.748 53.8545 52.9993 53.2488 53 52.617V25.383C52.9993 24.7512 52.748 24.1455 52.3012 23.6988C51.8545 23.252 51.2488 23.0007 50.617 23ZM31.2128 37.6383C31.2128 36.4937 31.5522 35.3748 32.1881 34.4231C32.824 33.4714 33.7278 32.7296 34.7853 32.2916C35.8428 31.8536 37.0064 31.739 38.129 31.9623C39.2516 32.1856 40.2828 32.7367 41.0922 33.5461C41.9016 34.3555 42.4527 35.3867 42.676 36.5093C42.8993 37.6319 42.7847 38.7955 42.3467 39.853C41.9087 40.9105 41.1669 41.8143 40.2152 42.4502C39.2635 43.0861 38.1446 43.4255 37 43.4255C35.4657 43.4238 33.9947 42.8135 32.9097 41.7285C31.8248 40.6436 31.2145 39.1726 31.2128 37.6383ZM26.4077 52.9574C27.1042 50.9982 28.3277 49.2691 29.9435 47.9603C31.9417 46.3476 34.4321 45.468 37 45.468C39.5679 45.468 42.0583 46.3476 44.0565 47.9603C45.6723 49.2691 46.8958 50.9982 47.5923 52.9574H26.4077ZM50.9574 52.617C50.9574 52.7073 50.9215 52.7938 50.8576 52.8576C50.7938 52.9215 50.7073 52.9574 50.617 52.9574H49.7374C49.1415 50.9256 48.0674 49.0662 46.6051 47.5349C45.1429 46.0035 43.3349 44.8449 41.3328 44.1559C42.7334 43.2254 43.7972 41.8687 44.3668 40.2866C44.9365 38.7045 44.9816 36.981 44.4956 35.3712C44.0096 33.7615 43.0183 32.3509 41.6684 31.3483C40.3184 30.3458 38.6815 29.8044 37 29.8044C35.3185 29.8044 33.6816 30.3458 32.3316 31.3483C30.9817 32.3509 29.9904 33.7615 29.5044 35.3712C29.0184 36.981 29.0635 38.7045 29.6332 40.2866C30.2028 41.8687 31.2666 43.2254 32.6672 44.1559C30.6651 44.8449 28.8571 46.0035 27.3949 47.5349C25.9326 49.0662 24.8585 50.9256 24.2626 52.9574H23.383C23.2927 52.9574 23.2062 52.9215 23.1424 52.8576C23.0785 52.7938 23.0426 52.7073 23.0426 52.617V25.383C23.0426 25.2927 23.0785 25.2062 23.1424 25.1424C23.2062 25.0785 23.2927 25.0426 23.383 25.0426H50.617C50.7073 25.0426 50.7938 25.0785 50.8576 25.1424C50.9215 25.2062 50.9574 25.2927 50.9574 25.383V52.617Z" fill="black"/>
<rect x="23" y="2" width="28" height="28" fill="#F2D9A0"/>
<path d="M50.617 0H23.383C22.7512 0.000720804 22.1455 0.252015 21.6988 0.698754C21.252 1.14549 21.0007 1.75119 21 2.38298V29.617C21.0007 30.2488 21.252 30.8545 21.6988 31.3012C22.1455 31.748 22.7512 31.9993 23.383 32H48.9477L48.9506 32.0002L48.9552 32H50.617C51.2488 31.9993 51.8545 31.748 52.3012 31.3012C52.748 30.8545 52.9993 30.2488 53 29.617V2.38298C52.9993 1.75119 52.748 1.14549 52.3012 0.698754C51.8545 0.252015 51.2488 0.000720804 50.617 0ZM31.2128 14.6383C31.2128 13.4937 31.5522 12.3748 32.1881 11.4231C32.824 10.4714 33.7278 9.72961 34.7853 9.29159C35.8428 8.85357 37.0064 8.73896 38.129 8.96226C39.2516 9.18556 40.2828 9.73675 41.0922 10.5461C41.9016 11.3555 42.4527 12.3867 42.676 13.5093C42.8993 14.6319 42.7847 15.7955 42.3467 16.853C41.9087 17.9105 41.1669 18.8143 40.2152 19.4502C39.2635 20.0861 38.1446 20.4255 37 20.4255C35.4657 20.4238 33.9947 19.8135 32.9097 18.7285C31.8248 17.6436 31.2145 16.1726 31.2128 14.6383ZM26.4077 29.9574C27.1042 27.9982 28.3277 26.2691 29.9435 24.9603C31.9417 23.3476 34.4321 22.468 37 22.468C39.5679 22.468 42.0583 23.3476 44.0565 24.9603C45.6723 26.2691 46.8958 27.9982 47.5923 29.9574H26.4077ZM50.9574 29.617C50.9574 29.7073 50.9215 29.7938 50.8576 29.8576C50.7938 29.9215 50.7073 29.9574 50.617 29.9574H49.7374C49.1415 27.9256 48.0674 26.0662 46.6051 24.5349C45.1429 23.0035 43.3349 21.8449 41.3328 21.1559C42.7334 20.2254 43.7972 18.8687 44.3668 17.2866C44.9365 15.7045 44.9816 13.981 44.4956 12.3712C44.0096 10.7615 43.0183 9.35093 41.6684 8.34835C40.3184 7.34576 38.6815 6.80442 37 6.80442C35.3185 6.80442 33.6816 7.34576 32.3316 8.34835C30.9817 9.35093 29.9904 10.7615 29.5044 12.3712C29.0184 13.981 29.0635 15.7045 29.6332 17.2866C30.2028 18.8687 31.2666 20.2254 32.6672 21.1559C30.6651 21.8449 28.8571 23.0035 27.3949 24.5349C25.9326 26.0662 24.8585 27.9256 24.2626 29.9574H23.383C23.2927 29.9574 23.2062 29.9215 23.1424 29.8576C23.0785 29.7938 23.0426 29.7073 23.0426 29.617V2.38298C23.0426 2.29272 23.0785 2.20618 23.1424 2.14236C23.2062 2.07854 23.2927 2.04264 23.383 2.04255H50.617C50.7073 2.04264 50.7938 2.07854 50.8576 2.14236C50.9215 2.20618 50.9574 2.29272 50.9574 2.38298V29.617Z" fill="black"/>
<rect x="2" y="25" width="28" height="28" fill="#B42340"/>
<path d="M29.617 23H2.38298C1.75119 23.0007 1.14549 23.252 0.698754 23.6988C0.252015 24.1455 0.000720804 24.7512 0 25.383V52.617C0.000720804 53.2488 0.252015 53.8545 0.698754 54.3012C1.14549 54.748 1.75119 54.9993 2.38298 55H27.9477L27.9506 55.0002L27.9552 55H29.617C30.2488 54.9993 30.8545 54.748 31.3012 54.3012C31.748 53.8545 31.9993 53.2488 32 52.617V25.383C31.9993 24.7512 31.748 24.1455 31.3012 23.6988C30.8545 23.252 30.2488 23.0007 29.617 23ZM10.2128 37.6383C10.2128 36.4937 10.5522 35.3748 11.1881 34.4231C11.824 33.4714 12.7278 32.7296 13.7853 32.2916C14.8428 31.8536 16.0064 31.739 17.129 31.9623C18.2516 32.1856 19.2828 32.7367 20.0922 33.5461C20.9016 34.3555 21.4527 35.3867 21.676 36.5093C21.8993 37.6319 21.7847 38.7955 21.3467 39.853C20.9087 40.9105 20.1669 41.8143 19.2152 42.4502C18.2635 43.0861 17.1446 43.4255 16 43.4255C14.4657 43.4238 12.9947 42.8135 11.9097 41.7285C10.8248 40.6436 10.2145 39.1726 10.2128 37.6383ZM5.40766 52.9574C6.10421 50.9982 7.32769 49.2691 8.94349 47.9603C10.9417 46.3476 13.4321 45.468 16 45.468C18.5679 45.468 21.0583 46.3476 23.0565 47.9603C24.6723 49.2691 25.8958 50.9982 26.5923 52.9574H5.40766ZM29.9574 52.617C29.9574 52.7073 29.9215 52.7938 29.8576 52.8576C29.7938 52.9215 29.7073 52.9574 29.617 52.9574H28.7374C28.1415 50.9256 27.0674 49.0662 25.6051 47.5349C24.1429 46.0035 22.3349 44.8449 20.3328 44.1559C21.7334 43.2254 22.7972 41.8687 23.3668 40.2866C23.9365 38.7045 23.9816 36.981 23.4956 35.3712C23.0096 33.7615 22.0183 32.3509 20.6684 31.3483C19.3184 30.3458 17.6815 29.8044 16 29.8044C14.3185 29.8044 12.6816 30.3458 11.3316 31.3483C9.98168 32.3509 8.99036 33.7615 8.50436 35.3712C8.01837 36.981 8.06353 38.7045 8.63316 40.2866C9.20279 41.8687 10.2666 43.2254 11.6672 44.1559C9.66507 44.8449 7.85714 46.0035 6.39486 47.5349C4.93258 49.0662 3.85852 50.9256 3.26264 52.9574H2.38298C2.29272 52.9574 2.20618 52.9215 2.14236 52.8576C2.07854 52.7938 2.04264 52.7073 2.04255 52.617V25.383C2.04264 25.2927 2.07854 25.2062 2.14236 25.1424C2.20618 25.0785 2.29272 25.0426 2.38298 25.0426H29.617C29.7073 25.0426 29.7938 25.0785 29.8576 25.1424C29.9215 25.2062 29.9574 25.2927 29.9574 25.383V52.617Z" fill="black"/>
<rect x="2" y="2" width="28" height="28" fill="#C4C4C4"/>
<path d="M29.617 0H2.38298C1.75119 0.000720804 1.14549 0.252015 0.698754 0.698754C0.252015 1.14549 0.000720804 1.75119 0 2.38298V29.617C0.000720804 30.2488 0.252015 30.8545 0.698754 31.3012C1.14549 31.748 1.75119 31.9993 2.38298 32H27.9477L27.9506 32.0002L27.9552 32H29.617C30.2488 31.9993 30.8545 31.748 31.3012 31.3012C31.748 30.8545 31.9993 30.2488 32 29.617V2.38298C31.9993 1.75119 31.748 1.14549 31.3012 0.698754C30.8545 0.252015 30.2488 0.000720804 29.617 0ZM10.2128 14.6383C10.2128 13.4937 10.5522 12.3748 11.1881 11.4231C11.824 10.4714 12.7278 9.72961 13.7853 9.29159C14.8428 8.85357 16.0064 8.73896 17.129 8.96226C18.2516 9.18556 19.2828 9.73675 20.0922 10.5461C20.9016 11.3555 21.4527 12.3867 21.676 13.5093C21.8993 14.6319 21.7847 15.7955 21.3467 16.853C20.9087 17.9105 20.1669 18.8143 19.2152 19.4502C18.2635 20.0861 17.1446 20.4255 16 20.4255C14.4657 20.4238 12.9947 19.8135 11.9097 18.7285C10.8248 17.6436 10.2145 16.1726 10.2128 14.6383ZM5.40766 29.9574C6.10421 27.9982 7.32769 26.2691 8.94349 24.9603C10.9417 23.3476 13.4321 22.468 16 22.468C18.5679 22.468 21.0583 23.3476 23.0565 24.9603C24.6723 26.2691 25.8958 27.9982 26.5923 29.9574H5.40766ZM29.9574 29.617C29.9574 29.7073 29.9215 29.7938 29.8576 29.8576C29.7938 29.9215 29.7073 29.9574 29.617 29.9574H28.7374C28.1415 27.9256 27.0674 26.0662 25.6051 24.5349C24.1429 23.0035 22.3349 21.8449 20.3328 21.1559C21.7334 20.2254 22.7972 18.8687 23.3668 17.2866C23.9365 15.7045 23.9816 13.981 23.4956 12.3712C23.0096 10.7615 22.0183 9.35093 20.6684 8.34835C19.3184 7.34576 17.6815 6.80442 16 6.80442C14.3185 6.80442 12.6816 7.34576 11.3316 8.34835C9.98168 9.35093 8.99036 10.7615 8.50436 12.3712C8.01837 13.981 8.06353 15.7045 8.63316 17.2866C9.20279 18.8687 10.2666 20.2254 11.6672 21.1559C9.66507 21.8449 7.85714 23.0035 6.39486 24.5349C4.93258 26.0662 3.85852 27.9256 3.26264 29.9574H2.38298C2.29272 29.9574 2.20618 29.9215 2.14236 29.8576C2.07854 29.7938 2.04264 29.7073 2.04255 29.617V2.38298C2.04264 2.29272 2.07854 2.20618 2.14236 2.14236C2.20618 2.07854 2.29272 2.04264 2.38298 2.04255H29.617C29.7073 2.04264 29.7938 2.07854 29.8576 2.14236C29.9215 2.20618 29.9574 2.29272 29.9574 2.38298V29.617Z" fill="black"/>
</svg>
