<svg width="22" height="28" viewBox="0 0 22 28" fill="none" xmlns="http://www.w3.org/2000/svg">
<path d="M14.7115 24.5625C13.7213 26.1875 12.4846 27 11 27C9.51539 27 8.27871 26.1875 7.28848 24.5625M18.5492 22.125H3.45077C3.01702 22.1252 2.591 21.9994 2.21624 21.7603C1.84149 21.5213 1.53144 21.1776 1.31778 20.7645C1.10413 20.3513 0.99454 19.8834 1.00021 19.4087C1.00588 18.934 1.12661 18.4694 1.35005 18.0625C2.80709 15.4044 3.57682 12.3629 3.57696 9.26313V7.5C3.57696 5.77609 4.20262 4.12279 5.31629 2.90381C6.42996 1.68482 7.94042 1 9.51539 1H12.4846C14.0596 1 15.57 1.68482 16.6837 2.90381C17.7974 4.12279 18.423 5.77609 18.423 7.5V9.26313C18.423 12.362 19.1921 15.4056 20.65 18.0625C20.8734 18.4694 20.9941 18.934 20.9998 19.4087C21.0055 19.8834 20.8959 20.3513 20.6822 20.7645C20.4686 21.1776 20.1585 21.5213 19.7838 21.7603C19.409 21.9994 18.983 22.1252 18.5492 22.125Z" stroke="white" stroke-linecap="round" stroke-linejoin="round"/>
</svg>
