<svg width="20" height="26" viewBox="0 0 20 26" fill="none" xmlns="http://www.w3.org/2000/svg">
<path d="M0 3.25005C0 2.38808 0.351189 1.56142 0.976311 0.951918C1.60143 0.342415 2.44928 0 3.33333 0L16.6667 0C17.5507 0 18.3986 0.342415 19.0237 0.951918C19.6488 1.56142 20 2.38808 20 3.25005V25.1879C19.9999 25.3349 19.959 25.4791 19.8815 25.6051C19.804 25.7312 19.6929 25.8344 19.56 25.9038C19.4271 25.9732 19.2774 26.0061 19.1268 25.9991C18.9763 25.992 18.8305 25.9453 18.705 25.8639L10 21.2895L1.295 25.8639C1.16951 25.9453 1.02372 25.992 0.873152 25.9991C0.722588 26.0061 0.572888 25.9732 0.439999 25.9038C0.30711 25.8344 0.196007 25.7312 0.118523 25.6051C0.0410401 25.4791 7.78674e-05 25.3349 0 25.1879V3.25005ZM3.33333 1.62503C2.89131 1.62503 2.46738 1.79623 2.15482 2.10099C1.84226 2.40574 1.66667 2.81907 1.66667 3.25005V23.6701L9.53833 19.6368C9.6751 19.5481 9.83572 19.5007 10 19.5007C10.1643 19.5007 10.3249 19.5481 10.4617 19.6368L18.3333 23.6701V3.25005C18.3333 2.81907 18.1577 2.40574 17.8452 2.10099C17.5326 1.79623 17.1087 1.62503 16.6667 1.62503H3.33333Z" fill="white"/>
</svg>
