<svg width="279" height="79" viewBox="0 0 279 79" fill="none" xmlns="http://www.w3.org/2000/svg">
<g filter="url(#filter0_d)">
<path d="M137.944 26.4L120.184 60H111.88L108.952 37.392L96.808 60H88.456L84.184 26.4H91.864L94.84 50.016L107.464 26.4H114.664L117.544 50.208L130.216 26.4H137.944ZM140.642 34.176H148.082L142.946 60H135.506L140.642 34.176ZM145.634 30.576C144.354 30.576 143.298 30.208 142.466 29.472C141.666 28.704 141.266 27.776 141.266 26.688C141.266 25.408 141.714 24.352 142.61 23.52C143.538 22.656 144.738 22.224 146.21 22.224C147.522 22.224 148.578 22.592 149.378 23.328C150.21 24.032 150.626 24.912 150.626 25.968C150.626 27.344 150.162 28.464 149.234 29.328C148.306 30.16 147.106 30.576 145.634 30.576ZM170.056 33.792C172.936 33.792 175.224 34.56 176.92 36.096C178.616 37.6 179.464 39.76 179.464 42.576C179.464 43.632 179.352 44.672 179.128 45.696L176.248 60H168.76L171.544 46.176C171.672 45.632 171.736 45.04 171.736 44.4C171.736 43.056 171.368 42.032 170.632 41.328C169.896 40.624 168.792 40.272 167.32 40.272C165.4 40.272 163.8 40.832 162.52 41.952C161.272 43.04 160.424 44.688 159.976 46.896L157.384 60H149.896L155.032 34.176H162.136L161.56 36.96C163.864 34.848 166.696 33.792 170.056 33.792ZM211.397 45.168C211.397 46.352 211.253 47.664 210.965 49.104H191.189C191.445 52.624 193.669 54.384 197.861 54.384C199.173 54.384 200.421 54.176 201.605 53.76C202.821 53.344 203.877 52.752 204.773 51.984L207.893 56.928C206.453 58.08 204.805 58.944 202.949 59.52C201.093 60.096 199.141 60.384 197.093 60.384C194.437 60.384 192.101 59.92 190.085 58.992C188.101 58.032 186.565 56.672 185.477 54.912C184.421 53.152 183.893 51.12 183.893 48.816C183.893 45.968 184.533 43.408 185.813 41.136C187.125 38.832 188.933 37.04 191.237 35.76C193.541 34.448 196.165 33.792 199.109 33.792C201.605 33.792 203.765 34.256 205.589 35.184C207.445 36.112 208.869 37.44 209.861 39.168C210.885 40.896 211.397 42.896 211.397 45.168ZM198.773 39.408C197.013 39.408 195.525 39.888 194.309 40.848C193.093 41.776 192.229 43.072 191.717 44.736H204.533C204.533 43.072 204.005 41.776 202.949 40.848C201.925 39.888 200.533 39.408 198.773 39.408ZM246.866 24.384L239.762 60H232.658L233.186 57.408C231.01 59.392 228.37 60.384 225.266 60.384C223.25 60.384 221.394 59.92 219.698 58.992C218.002 58.064 216.642 56.736 215.618 55.008C214.626 53.248 214.13 51.184 214.13 48.816C214.13 45.968 214.754 43.408 216.002 41.136C217.282 38.832 219.01 37.04 221.186 35.76C223.362 34.448 225.762 33.792 228.386 33.792C230.274 33.792 231.922 34.112 233.33 34.752C234.77 35.392 235.906 36.336 236.738 37.584L239.378 24.384H246.866ZM227.57 54.192C229.042 54.192 230.354 53.84 231.506 53.136C232.658 52.4 233.554 51.392 234.194 50.112C234.834 48.832 235.154 47.36 235.154 45.696C235.154 43.936 234.626 42.544 233.57 41.52C232.546 40.496 231.106 39.984 229.25 39.984C227.778 39.984 226.466 40.352 225.314 41.088C224.162 41.792 223.266 42.784 222.626 44.064C221.986 45.344 221.666 46.816 221.666 48.48C221.666 50.24 222.178 51.632 223.202 52.656C224.258 53.68 225.714 54.192 227.57 54.192ZM271.844 46.128H263.54L261.908 54.288H255.668L257.3 46.128H248.996L250.148 40.272H258.452L260.084 32.112H266.324L264.692 40.272H272.996L271.844 46.128Z" fill="white"/>
</g>
<path d="M18.6387 27.2797C19.7496 37.1547 28.7605 45.6719 39.4996 45.6719C51.1027 45.6719 60.6074 35.7969 60.6074 25.0578V24.8109C48.5106 23.2062 33.3277 31.9703 18.6387 27.2797Z" fill="white"/>
<path opacity="0.8" d="M66.6562 25.1812C66.6562 11.1094 59.6203 2.46875 59.6203 2.46875H19.3797C19.3797 2.46875 12.3438 11.2328 12.3438 25.1812C12.3438 38.5125 23.8234 50.9797 38.1422 51.7203C38.0187 59.4969 37.2781 67.5203 35.4266 70.3594C32.7109 74.3094 23.3297 72.3344 23.3297 76.5312H55.6703C55.6703 72.3344 46.2891 74.3094 43.5734 70.3594C41.7219 67.5203 40.9812 59.4969 40.8578 51.7203C55.1766 50.9797 66.6562 38.6359 66.6562 25.1812ZM39.5 48.5109C27.4031 48.5109 17.4047 38.8828 16.1703 27.8969C16.0469 27.1562 16.0469 26.2922 16.0469 25.5516C16.0469 13.3313 22.0953 5.925 22.0953 5.925H56.9047C56.9047 5.925 62.8297 13.3313 62.9531 25.3047V25.5516C62.9531 37.4016 52.4609 48.5109 39.5 48.5109Z" fill="white"/>
<defs>
<filter id="filter0_d" x="82.1841" y="22.224" width="196.812" height="46.16" filterUnits="userSpaceOnUse" color-interpolation-filters="sRGB">
<feFlood flood-opacity="0" result="BackgroundImageFix"/>
<feColorMatrix in="SourceAlpha" type="matrix" values="0 0 0 0 0 0 0 0 0 0 0 0 0 0 0 0 0 0 127 0"/>
<feOffset dx="2" dy="4"/>
<feGaussianBlur stdDeviation="2"/>
<feColorMatrix type="matrix" values="0 0 0 0 0 0 0 0 0 0 0 0 0 0 0 0 0 0 0.25 0"/>
<feBlend mode="normal" in2="BackgroundImageFix" result="effect1_dropShadow"/>
<feBlend mode="normal" in="SourceGraphic" in2="effect1_dropShadow" result="shape"/>
</filter>
</defs>
</svg>
